<mxfile host="Electron" modified="2023-08-31T16:10:35.028Z" agent="Mozilla/5.0 (Windows NT 10.0; Win64; x64) AppleWebKit/537.36 (KHTML, like Gecko) draw.io/21.6.5 Chrome/114.0.5735.243 Electron/25.3.1 Safari/537.36" etag="jkWxsRXmv_mCJ_yAYK68" version="21.6.5" type="device" pages="4">
  <diagram name="Context Driven LLM Request" id="obtfp9e0pcNtD7Lv0WoW">
    <mxGraphModel dx="1249" dy="1240" grid="1" gridSize="10" guides="1" tooltips="1" connect="1" arrows="1" fold="1" page="1" pageScale="1" pageWidth="827" pageHeight="1169" math="0" shadow="0">
      <root>
        <mxCell id="0" />
        <mxCell id="1" parent="0" />
        <mxCell id="LVXfSgy_7bovKTVvZtUl-25" style="edgeStyle=orthogonalEdgeStyle;curved=1;rounded=0;orthogonalLoop=1;jettySize=auto;html=1;entryX=0;entryY=0.25;entryDx=0;entryDy=0;exitX=0;exitY=0.5;exitDx=0;exitDy=0;fillColor=#0050ef;strokeColor=#001DBC;" parent="1" source="LVXfSgy_7bovKTVvZtUl-2" target="LVXfSgy_7bovKTVvZtUl-3" edge="1">
          <mxGeometry relative="1" as="geometry">
            <Array as="points">
              <mxPoint x="349" y="140" />
              <mxPoint x="349" y="273" />
            </Array>
          </mxGeometry>
        </mxCell>
        <mxCell id="LVXfSgy_7bovKTVvZtUl-2" value="User Interface (Application Stack)" style="shape=process;whiteSpace=wrap;html=1;backgroundOutline=1;fillColor=#1ba1e2;fontColor=#ffffff;strokeColor=#006EAF;" parent="1" vertex="1">
          <mxGeometry x="413" y="110" width="120" height="60" as="geometry" />
        </mxCell>
        <mxCell id="LVXfSgy_7bovKTVvZtUl-22" style="edgeStyle=orthogonalEdgeStyle;curved=1;rounded=0;orthogonalLoop=1;jettySize=auto;html=1;exitX=0;exitY=0.75;exitDx=0;exitDy=0;fillColor=#0050ef;strokeColor=#001DBC;" parent="1" source="LVXfSgy_7bovKTVvZtUl-3" edge="1">
          <mxGeometry relative="1" as="geometry">
            <mxPoint x="327" y="480" as="targetPoint" />
          </mxGeometry>
        </mxCell>
        <mxCell id="LVXfSgy_7bovKTVvZtUl-23" style="edgeStyle=orthogonalEdgeStyle;curved=1;rounded=0;orthogonalLoop=1;jettySize=auto;html=1;exitX=0.008;exitY=0.578;exitDx=0;exitDy=0;exitPerimeter=0;fillColor=#0050ef;strokeColor=#001DBC;" parent="1" source="LVXfSgy_7bovKTVvZtUl-3" edge="1">
          <mxGeometry relative="1" as="geometry">
            <mxPoint x="212" y="600" as="targetPoint" />
          </mxGeometry>
        </mxCell>
        <mxCell id="LVXfSgy_7bovKTVvZtUl-30" style="edgeStyle=orthogonalEdgeStyle;curved=1;rounded=0;orthogonalLoop=1;jettySize=auto;html=1;" parent="1" source="LVXfSgy_7bovKTVvZtUl-3" target="LVXfSgy_7bovKTVvZtUl-4" edge="1">
          <mxGeometry relative="1" as="geometry" />
        </mxCell>
        <mxCell id="LVXfSgy_7bovKTVvZtUl-3" value="Orchestrator" style="rounded=0;whiteSpace=wrap;html=1;fillColor=#1ba1e2;fontColor=#ffffff;strokeColor=#006EAF;" parent="1" vertex="1">
          <mxGeometry x="413" y="250" width="120" height="90" as="geometry" />
        </mxCell>
        <mxCell id="LVXfSgy_7bovKTVvZtUl-16" style="rounded=0;orthogonalLoop=1;jettySize=auto;html=1;entryX=0.925;entryY=0.033;entryDx=0;entryDy=0;entryPerimeter=0;edgeStyle=orthogonalEdgeStyle;curved=1;fillColor=#647687;strokeColor=#314354;" parent="1" source="LVXfSgy_7bovKTVvZtUl-4" target="LVXfSgy_7bovKTVvZtUl-7" edge="1">
          <mxGeometry relative="1" as="geometry" />
        </mxCell>
        <mxCell id="LVXfSgy_7bovKTVvZtUl-21" style="edgeStyle=orthogonalEdgeStyle;curved=1;rounded=0;orthogonalLoop=1;jettySize=auto;html=1;fillColor=#0050ef;strokeColor=#001DBC;" parent="1" source="LVXfSgy_7bovKTVvZtUl-4" edge="1">
          <mxGeometry relative="1" as="geometry">
            <mxPoint x="349" y="480" as="targetPoint" />
          </mxGeometry>
        </mxCell>
        <mxCell id="LVXfSgy_7bovKTVvZtUl-4" value="Task Planner&lt;br&gt;(DB)" style="rounded=0;whiteSpace=wrap;html=1;" parent="1" vertex="1">
          <mxGeometry x="413" y="380" width="120" height="60" as="geometry" />
        </mxCell>
        <mxCell id="LVXfSgy_7bovKTVvZtUl-15" value="" style="rounded=0;orthogonalLoop=1;jettySize=auto;html=1;edgeStyle=orthogonalEdgeStyle;curved=1;fillColor=#647687;strokeColor=#314354;" parent="1" source="LVXfSgy_7bovKTVvZtUl-5" target="LVXfSgy_7bovKTVvZtUl-7" edge="1">
          <mxGeometry relative="1" as="geometry" />
        </mxCell>
        <mxCell id="LVXfSgy_7bovKTVvZtUl-5" value="Context Data&lt;br&gt;(Vector DB)" style="rounded=0;whiteSpace=wrap;html=1;" parent="1" vertex="1">
          <mxGeometry x="293" y="480" width="120" height="60" as="geometry" />
        </mxCell>
        <mxCell id="LVXfSgy_7bovKTVvZtUl-54" value="" style="edgeStyle=orthogonalEdgeStyle;curved=1;rounded=0;orthogonalLoop=1;jettySize=auto;html=1;" parent="1" source="LVXfSgy_7bovKTVvZtUl-6" target="LVXfSgy_7bovKTVvZtUl-53" edge="1">
          <mxGeometry relative="1" as="geometry" />
        </mxCell>
        <mxCell id="LVXfSgy_7bovKTVvZtUl-6" value="Memory Store&lt;br&gt;(Vector DB" style="rounded=0;whiteSpace=wrap;html=1;" parent="1" vertex="1">
          <mxGeometry x="489" y="500" width="120" height="60" as="geometry" />
        </mxCell>
        <mxCell id="LVXfSgy_7bovKTVvZtUl-17" style="edgeStyle=orthogonalEdgeStyle;rounded=0;orthogonalLoop=1;jettySize=auto;html=1;exitX=1;exitY=0.25;exitDx=0;exitDy=0;entryX=0;entryY=0.5;entryDx=0;entryDy=0;curved=1;endArrow=block;endFill=1;startArrow=classic;startFill=1;fillColor=#647687;strokeColor=#314354;" parent="1" source="LVXfSgy_7bovKTVvZtUl-7" target="LVXfSgy_7bovKTVvZtUl-6" edge="1">
          <mxGeometry relative="1" as="geometry" />
        </mxCell>
        <mxCell id="LVXfSgy_7bovKTVvZtUl-18" style="edgeStyle=orthogonalEdgeStyle;rounded=0;orthogonalLoop=1;jettySize=auto;html=1;entryX=0;entryY=0.5;entryDx=0;entryDy=0;curved=1;" parent="1" source="LVXfSgy_7bovKTVvZtUl-7" target="LVXfSgy_7bovKTVvZtUl-10" edge="1">
          <mxGeometry relative="1" as="geometry" />
        </mxCell>
        <mxCell id="LVXfSgy_7bovKTVvZtUl-7" value="Prompt Manager&lt;br&gt;(select prompt)" style="rounded=0;whiteSpace=wrap;html=1;" parent="1" vertex="1">
          <mxGeometry x="309" y="600" width="120" height="60" as="geometry" />
        </mxCell>
        <mxCell id="LVXfSgy_7bovKTVvZtUl-13" value="" style="edgeStyle=orthogonalEdgeStyle;rounded=0;orthogonalLoop=1;jettySize=auto;html=1;dashed=1;" parent="1" source="LVXfSgy_7bovKTVvZtUl-8" target="LVXfSgy_7bovKTVvZtUl-7" edge="1">
          <mxGeometry relative="1" as="geometry" />
        </mxCell>
        <mxCell id="LVXfSgy_7bovKTVvZtUl-26" style="edgeStyle=orthogonalEdgeStyle;curved=1;rounded=0;orthogonalLoop=1;jettySize=auto;html=1;fillColor=#0050ef;strokeColor=#001DBC;" parent="1" source="LVXfSgy_7bovKTVvZtUl-8" target="LVXfSgy_7bovKTVvZtUl-2" edge="1">
          <mxGeometry relative="1" as="geometry">
            <mxPoint x="539" y="150" as="targetPoint" />
            <Array as="points">
              <mxPoint x="620" y="630" />
              <mxPoint x="620" y="150" />
            </Array>
          </mxGeometry>
        </mxCell>
        <mxCell id="LVXfSgy_7bovKTVvZtUl-31" style="edgeStyle=orthogonalEdgeStyle;curved=1;rounded=0;orthogonalLoop=1;jettySize=auto;html=1;fillColor=#647687;strokeColor=#314354;" parent="1" source="LVXfSgy_7bovKTVvZtUl-8" target="LVXfSgy_7bovKTVvZtUl-6" edge="1">
          <mxGeometry relative="1" as="geometry" />
        </mxCell>
        <mxCell id="LVXfSgy_7bovKTVvZtUl-8" value="Response Manager&lt;br&gt;(validate response)" style="rounded=0;whiteSpace=wrap;html=1;" parent="1" vertex="1">
          <mxGeometry x="480" y="600" width="120" height="60" as="geometry" />
        </mxCell>
        <mxCell id="LVXfSgy_7bovKTVvZtUl-14" value="" style="edgeStyle=orthogonalEdgeStyle;rounded=0;orthogonalLoop=1;jettySize=auto;html=1;fillColor=#647687;strokeColor=#314354;" parent="1" source="LVXfSgy_7bovKTVvZtUl-9" target="LVXfSgy_7bovKTVvZtUl-7" edge="1">
          <mxGeometry relative="1" as="geometry" />
        </mxCell>
        <mxCell id="LVXfSgy_7bovKTVvZtUl-9" value="Evaluation&lt;br&gt;(DB)" style="rounded=0;whiteSpace=wrap;html=1;" parent="1" vertex="1">
          <mxGeometry x="149" y="600" width="120" height="60" as="geometry" />
        </mxCell>
        <mxCell id="LVXfSgy_7bovKTVvZtUl-12" value="" style="edgeStyle=orthogonalEdgeStyle;rounded=0;orthogonalLoop=1;jettySize=auto;html=1;fillColor=#647687;strokeColor=#314354;curved=1;exitX=0.5;exitY=1;exitDx=0;exitDy=0;" parent="1" source="LVXfSgy_7bovKTVvZtUl-10" target="LVXfSgy_7bovKTVvZtUl-11" edge="1">
          <mxGeometry relative="1" as="geometry" />
        </mxCell>
        <mxCell id="LVXfSgy_7bovKTVvZtUl-20" style="edgeStyle=orthogonalEdgeStyle;curved=1;rounded=0;orthogonalLoop=1;jettySize=auto;html=1;entryX=0.5;entryY=1;entryDx=0;entryDy=0;" parent="1" source="LVXfSgy_7bovKTVvZtUl-10" target="LVXfSgy_7bovKTVvZtUl-8" edge="1">
          <mxGeometry relative="1" as="geometry">
            <mxPoint x="600" y="659" as="targetPoint" />
          </mxGeometry>
        </mxCell>
        <mxCell id="LVXfSgy_7bovKTVvZtUl-10" value="LLM Provider" style="rounded=0;whiteSpace=wrap;html=1;" parent="1" vertex="1">
          <mxGeometry x="413" y="700" width="120" height="60" as="geometry" />
        </mxCell>
        <mxCell id="LVXfSgy_7bovKTVvZtUl-11" value="LLM Models / APIs&lt;br&gt;(Chaining and Plugins Approach)" style="rounded=0;whiteSpace=wrap;html=1;fillColor=#60a917;fontColor=#ffffff;strokeColor=#2D7600;" parent="1" vertex="1">
          <mxGeometry x="140" y="840" width="210" height="60" as="geometry" />
        </mxCell>
        <mxCell id="LVXfSgy_7bovKTVvZtUl-28" value="" style="endArrow=none;dashed=1;html=1;dashPattern=1 3;strokeWidth=2;rounded=0;curved=1;" parent="1" edge="1">
          <mxGeometry width="50" height="50" relative="1" as="geometry">
            <mxPoint x="184" y="230" as="sourcePoint" />
            <mxPoint x="659" y="230" as="targetPoint" />
          </mxGeometry>
        </mxCell>
        <mxCell id="LVXfSgy_7bovKTVvZtUl-29" value="User Request" style="text;html=1;strokeColor=none;fillColor=none;align=center;verticalAlign=middle;whiteSpace=wrap;rounded=0;fontStyle=1" parent="1" vertex="1">
          <mxGeometry x="359" y="180" width="60" height="40" as="geometry" />
        </mxCell>
        <mxCell id="LVXfSgy_7bovKTVvZtUl-32" value="&lt;span style=&quot;line-height: 107%;&quot;&gt;&lt;a style=&quot;&quot; href=&quot;https://medium.com/@simon_attard/leveraging-large-language-models-in-your-software-applications-9ea520fb2f34&quot;&gt;&lt;font style=&quot;font-size: 11px;&quot;&gt;Leveraging Large Language Models in your Software Applications | by Simon Attard | Jun, 2023 | Medium&lt;/font&gt;&lt;/a&gt;&lt;/span&gt;" style="text;whiteSpace=wrap;html=1;" parent="1" vertex="1">
          <mxGeometry x="20" y="1120" width="270" height="30" as="geometry" />
        </mxCell>
        <mxCell id="LVXfSgy_7bovKTVvZtUl-34" value="Response" style="text;html=1;strokeColor=none;fillColor=none;align=center;verticalAlign=middle;whiteSpace=wrap;rounded=0;fontStyle=1" parent="1" vertex="1">
          <mxGeometry x="500" y="180" width="60" height="30" as="geometry" />
        </mxCell>
        <mxCell id="LVXfSgy_7bovKTVvZtUl-36" value="&lt;h1 style=&quot;font-size: 10px;&quot;&gt;Orchestrator&lt;/h1&gt;&lt;p style=&quot;font-size: 10px;&quot;&gt;Chains the other modules together, deals with multiple users, provides multi-tenant components, personalised for each user, privacy, to ensure that memories, context etc. are only retrieved by the correct user or use group.&lt;/p&gt;" style="text;html=1;strokeColor=#666666;fillColor=#f5f5f5;spacing=5;spacingTop=-14;whiteSpace=wrap;overflow=hidden;rounded=0;fontSize=10;fontColor=#333333;" parent="1" vertex="1">
          <mxGeometry x="80" y="250" width="200" height="110" as="geometry" />
        </mxCell>
        <mxCell id="LVXfSgy_7bovKTVvZtUl-37" value="&lt;h1 style=&quot;font-size: 10px;&quot;&gt;Memory Store&lt;/h1&gt;&lt;p style=&quot;font-size: 10px;&quot;&gt;Similar to the context data store, but it is populated by LLM prompt and response pairs generated during previous usage of the application.&lt;br style=&quot;font-size: 10px;&quot;&gt;&lt;/p&gt;&lt;p class=&quot;MsoNormal&quot; style=&quot;font-size: 10px;&quot;&gt;Allow the LLM to refer to previous interactions in order to personalise it to the user and steer it in the correct direction.&lt;/p&gt;&lt;p class=&quot;MsoNormal&quot; style=&quot;font-size: 10px;&quot;&gt;&lt;span lang=&quot;EN-IE&quot; style=&quot;font-size: 10px;&quot;&gt;The memories can also be tagged&lt;br style=&quot;font-size: 10px;&quot;&gt;using timestamps, locations etc. to allow for filtering or relevant memories and fading of older memories&lt;span style=&quot;font-size: 10px;&quot;&gt;.&lt;/span&gt;&lt;/span&gt;&lt;/p&gt;&lt;div style=&quot;font-size: 10px;&quot;&gt;&lt;div style=&quot;font-size: 10px;&quot;&gt;&lt;div class=&quot;msocomtxt&quot; id=&quot;_com_1&quot; style=&quot;font-size: 10px;&quot;&gt;&lt;br style=&quot;font-size: 10px;&quot;&gt;&lt;/div&gt;&lt;br style=&quot;font-size: 10px;&quot;&gt;&lt;br style=&quot;font-size: 10px;&quot;&gt;&lt;/div&gt;&lt;br style=&quot;font-size: 10px;&quot;&gt;&lt;br style=&quot;font-size: 10px;&quot;&gt;&lt;/div&gt;" style="text;html=1;strokeColor=#666666;fillColor=#f5f5f5;spacing=5;spacingTop=-14;whiteSpace=wrap;overflow=hidden;rounded=0;fontSize=10;fontColor=#333333;" parent="1" vertex="1">
          <mxGeometry x="630" y="360" width="190" height="190" as="geometry" />
        </mxCell>
        <mxCell id="LVXfSgy_7bovKTVvZtUl-44" value="&lt;h1 style=&quot;font-size: 10px;&quot;&gt;LLM Provider&lt;/h1&gt;&lt;p style=&quot;font-size: 10px;&quot;&gt;Different types of LLM providers exist, each with their own strengths, weaknesses and licenses. You need to take use of multiple LLMs for a varying set of tasks they are good in.&lt;/p&gt;" style="text;html=1;strokeColor=#666666;fillColor=#f5f5f5;spacing=5;spacingTop=-14;whiteSpace=wrap;overflow=hidden;rounded=0;fontSize=10;fontColor=#333333;" parent="1" vertex="1">
          <mxGeometry x="414" y="800" width="190" height="100" as="geometry" />
        </mxCell>
        <mxCell id="LVXfSgy_7bovKTVvZtUl-45" value="&lt;h1 style=&quot;font-size: 10px;&quot;&gt;LLM Models&lt;/h1&gt;&lt;p style=&quot;font-size: 10px;&quot;&gt;&lt;/p&gt;&lt;ul style=&quot;font-size: 10px;&quot;&gt;&lt;li style=&quot;font-size: 10px;&quot;&gt;LLM inference costs&lt;/li&gt;&lt;li style=&quot;font-size: 10px;&quot;&gt;API cost considerations&lt;/li&gt;&lt;li style=&quot;font-size: 10px;&quot;&gt;Encoder models for sentiment analysis.&lt;/li&gt;&lt;li style=&quot;font-size: 10px;&quot;&gt;Decoder models for text completion and chat.&lt;/li&gt;&lt;li style=&quot;font-size: 10px;&quot;&gt;Smaller, faster, cheaper models for text manipulation.&lt;/li&gt;&lt;li style=&quot;font-size: 10px;&quot;&gt;Large models, more expensive for basic reasoning and text generation.&lt;/li&gt;&lt;li style=&quot;font-size: 10px;&quot;&gt;Fine-tuned models for better performance and specific tasks.&lt;/li&gt;&lt;li style=&quot;font-size: 10px;&quot;&gt;Instruct&lt;br style=&quot;font-size: 10px;&quot;&gt;models fine-tuned to act as an assistant in chat mode&lt;/li&gt;&lt;li style=&quot;font-size: 10px;&quot;&gt;The output of one request, can be chained into a&lt;br style=&quot;font-size: 10px;&quot;&gt;second model for text manipulation or review.&lt;/li&gt;&lt;/ul&gt;&lt;p style=&quot;font-size: 10px;&quot;&gt;&lt;/p&gt;" style="text;html=1;strokeColor=#666666;fillColor=#f5f5f5;spacing=5;spacingTop=-14;whiteSpace=wrap;overflow=hidden;rounded=0;fontSize=10;fontColor=#333333;" parent="1" vertex="1">
          <mxGeometry x="110" y="930" width="340" height="180" as="geometry" />
        </mxCell>
        <mxCell id="LVXfSgy_7bovKTVvZtUl-46" value="&lt;h1 style=&quot;font-size: 10px;&quot;&gt;User request&lt;/h1&gt;&lt;p class=&quot;MsoNormal&quot; style=&quot;font-size: 10px;&quot;&gt;A nice approach is to obtain the user’s request / objective and use a model to break this down into subtasks. Each subtask can be further broken down into smaller tasks / objectives depending on the application.&lt;/p&gt;&lt;p style=&quot;font-size: 10px;&quot;&gt;&lt;span style=&quot;background-color: initial; font-size: 10px;&quot;&gt;This would&amp;nbsp;&lt;/span&gt;&lt;span style=&quot;background-color: initial; font-size: 10px;&quot;&gt;be an ongoing process, and as the user moves through objectives, then the LLM&amp;nbsp;&lt;/span&gt;&lt;span style=&quot;background-color: initial; font-size: 10px;&quot;&gt;can be used to expand current tasks and subtasks, or prune the ones that are no&amp;nbsp;&lt;/span&gt;&lt;span style=&quot;background-color: initial; font-size: 10px;&quot;&gt;longer necessary. (i.e. AutoGPT)&lt;/span&gt;&lt;/p&gt;" style="text;html=1;spacing=5;spacingTop=-14;whiteSpace=wrap;overflow=hidden;rounded=0;fontSize=10;strokeColor=#666666;fillColor=#f5f5f5;fontColor=#333333;" parent="1" vertex="1">
          <mxGeometry x="69" y="40" width="240" height="170" as="geometry" />
        </mxCell>
        <mxCell id="LVXfSgy_7bovKTVvZtUl-47" value="&lt;h1 style=&quot;font-size: 10px;&quot;&gt;&lt;font style=&quot;font-size: 10px;&quot;&gt;Context Data Store&lt;/font&gt;&lt;/h1&gt;&lt;p class=&quot;MsoNormal&quot; style=&quot;font-size: 10px;&quot;&gt;&lt;font style=&quot;font-size: 10px;&quot;&gt;Do not use the pre-trained LLM knowledge alone for your application. Instead, prime each prompt with any necessary context information and specify that the LLM only responds based on information included in the prompt.&lt;/font&gt;&lt;/p&gt;&lt;p style=&quot;font-size: 10px;&quot;&gt;&lt;font style=&quot;font-size: 10px;&quot;&gt;&lt;span lang=&quot;EN-IE&quot; style=&quot;line-height: 107%; font-size: 10px;&quot;&gt;This will ensure that the responses are grounded to your business and use cases. By using vector embedding and vector databases, you can semantically retrieve subsets of your context data for each prompt, allowing for better efficiency, performance and lower costs&lt;/span&gt;&lt;/font&gt;&lt;/p&gt;" style="text;html=1;strokeColor=#666666;fillColor=#f5f5f5;spacing=5;spacingTop=-14;whiteSpace=wrap;overflow=hidden;rounded=0;fontSize=10;fontColor=#333333;" parent="1" vertex="1">
          <mxGeometry x="10" y="380" width="190" height="210" as="geometry" />
        </mxCell>
        <mxCell id="LVXfSgy_7bovKTVvZtUl-49" value="&lt;h1 style=&quot;font-size: 10px;&quot;&gt;Prompt Manager&lt;/h1&gt;&lt;p class=&quot;MsoNormal&quot;&gt;A good approach is to build a prompt manager which can accept a number of properties and build the prompt with the correct structure.&lt;/p&gt;" style="text;html=1;strokeColor=#666666;fillColor=#f5f5f5;spacing=5;spacingTop=-14;whiteSpace=wrap;overflow=hidden;rounded=0;fontSize=10;fontColor=#333333;" parent="1" vertex="1">
          <mxGeometry x="178" y="690" width="190" height="80" as="geometry" />
        </mxCell>
        <mxCell id="LVXfSgy_7bovKTVvZtUl-50" value="&lt;h1 style=&quot;font-size: 10px;&quot;&gt;Response Manager&lt;/h1&gt;&lt;p style=&quot;font-size: 10px;&quot;&gt;In order to be able to use the response in your application, it is important that you can predict the format that you will receive. The best approach is to provide the expected JSON format in the prompt.&amp;nbsp;The response manager is similar to the prompt manager, but it will validate and verify the response instead.&lt;/p&gt;&lt;p style=&quot;font-size: 10px;&quot;&gt;&lt;span style=&quot;background-color: initial;&quot;&gt;If the response manager does not approve the response, then it can generate a new prompt with the reasons for the rejection and submit it to the LLM to get a new response.&lt;/span&gt;&lt;br&gt;&lt;/p&gt;&lt;p class=&quot;MsoNormal&quot;&gt;&lt;/p&gt;&lt;p class=&quot;MsoNormal&quot;&gt;&lt;span lang=&quot;EN-IE&quot;&gt;This can take place iteratively until the response meets all criteria and safety checks.&amp;nbsp;&lt;/span&gt;&lt;/p&gt;&lt;p class=&quot;MsoNormal&quot;&gt;&lt;span lang=&quot;EN-IE&quot;&gt;L&lt;/span&gt;&lt;span style=&quot;background-color: initial;&quot;&gt;LMs can be&amp;nbsp;&lt;/span&gt;&lt;span style=&quot;background-color: initial;&quot;&gt;good at evaluating a user’s prompt and rating it according to predefined&amp;nbsp;&lt;/span&gt;&lt;span style=&quot;background-color: initial;&quot;&gt;criteria.&lt;/span&gt;&lt;/p&gt;" style="text;html=1;strokeColor=#666666;fillColor=#f5f5f5;spacing=5;spacingTop=-14;whiteSpace=wrap;overflow=hidden;rounded=0;fontSize=10;fontColor=#333333;" parent="1" vertex="1">
          <mxGeometry x="620" y="580" width="190" height="290" as="geometry" />
        </mxCell>
        <mxCell id="LVXfSgy_7bovKTVvZtUl-53" value="Memory Logs" style="rounded=0;whiteSpace=wrap;html=1;fillColor=#f5f5f5;fontColor=#333333;strokeColor=#666666;" parent="1" vertex="1">
          <mxGeometry x="490" y="450" width="120" height="30" as="geometry" />
        </mxCell>
        <mxCell id="LVXfSgy_7bovKTVvZtUl-55" value="&lt;h1 style=&quot;font-size: 10px;&quot;&gt;Memory Logs&lt;/h1&gt;&lt;p style=&quot;font-size: 10px;&quot;&gt;Can store:&lt;/p&gt;&lt;p style=&quot;font-size: 10px;&quot;&gt;&lt;/p&gt;&lt;ul&gt;&lt;li&gt;user&lt;/li&gt;&lt;li&gt;model version&lt;/li&gt;&lt;li&gt;api costs&lt;/li&gt;&lt;li&gt;tokens stats&lt;/li&gt;&lt;li&gt;response times&lt;/li&gt;&lt;/ul&gt;&lt;p&gt;&lt;/p&gt;&lt;div style=&quot;font-size: 10px;&quot;&gt;&lt;div style=&quot;font-size: 10px;&quot;&gt;&lt;h1 style=&quot;border-color: var(--border-color); font-size: 10px;&quot;&gt;Memory Store&lt;/h1&gt;&lt;p style=&quot;border-color: var(--border-color);&quot;&gt;Memory stored as vector embeddings:&lt;/p&gt;&lt;p style=&quot;border-color: var(--border-color);&quot;&gt;&lt;/p&gt;&lt;ul style=&quot;border-color: var(--border-color);&quot;&gt;&lt;li style=&quot;border-color: var(--border-color);&quot;&gt;LLM Prompts&lt;/li&gt;&lt;li style=&quot;border-color: var(--border-color);&quot;&gt;LLM Responses&lt;/li&gt;&lt;li style=&quot;border-color: var(--border-color);&quot;&gt;Edited Responses By User&lt;/li&gt;&lt;/ul&gt;&lt;p&gt;&lt;/p&gt;&lt;br style=&quot;font-size: 10px;&quot;&gt;&lt;/div&gt;&lt;br style=&quot;font-size: 10px;&quot;&gt;&lt;br style=&quot;font-size: 10px;&quot;&gt;&lt;/div&gt;" style="text;html=1;strokeColor=#666666;fillColor=#f5f5f5;spacing=5;spacingTop=-14;whiteSpace=wrap;overflow=hidden;rounded=0;fontSize=10;fontColor=#333333;" parent="1" vertex="1">
          <mxGeometry x="630" y="120" width="190" height="210" as="geometry" />
        </mxCell>
        <mxCell id="LVXfSgy_7bovKTVvZtUl-56" value="&lt;h1 style=&quot;font-size: 10px; line-height: 100%;&quot;&gt;&lt;br&gt;&lt;/h1&gt;&lt;h1 style=&quot;font-size: 10px; line-height: 100%;&quot;&gt;Privacy and Security&lt;/h1&gt;&lt;p class=&quot;MsoNormal&quot; style=&quot;font-size: 10px; line-height: 100%;&quot;&gt;This design does not address privacy and security concerns when building applications on top of LLMs. New threats such as prompt injection and privacy concerns when using third party LLMs need to be addressed.&lt;/p&gt;" style="text;html=1;strokeColor=#b85450;fillColor=#f8cecc;spacing=5;spacingTop=-20;whiteSpace=wrap;overflow=hidden;rounded=0;fontSize=10;verticalAlign=top;horizontal=1;" parent="1" vertex="1">
          <mxGeometry x="550" y="1040" width="240" height="90" as="geometry" />
        </mxCell>
        <mxCell id="LVXfSgy_7bovKTVvZtUl-57" value="&lt;h1 style=&quot;font-size: 10px;&quot;&gt;Avoid A Thin Application Layer&lt;/h1&gt;&lt;p class=&quot;MsoNormal&quot; style=&quot;font-size: 10px;&quot;&gt;By designing the correct architecture, leveraging a pool of LLMs with different capabilities and grounding them to your data and context — you can quickly build powerful applications. These applications will possibly overcome LLM limitations such as response times, high costs, hallucinations and offer reliability to your users.&lt;/p&gt;" style="text;html=1;strokeColor=#d79b00;fillColor=#ffe6cc;spacing=5;spacingTop=-13;whiteSpace=wrap;overflow=hidden;rounded=0;fontSize=10;" parent="1" vertex="1">
          <mxGeometry x="344" y="10" width="330" height="90" as="geometry" />
        </mxCell>
      </root>
    </mxGraphModel>
  </diagram>
  <diagram id="BGM8y1bMm-VhttPNKTiF" name="Prompt Structure">
    <mxGraphModel dx="1469" dy="1471" grid="0" gridSize="10" guides="1" tooltips="1" connect="1" arrows="1" fold="1" page="1" pageScale="1" pageWidth="1654" pageHeight="2336" math="0" shadow="0">
      <root>
        <mxCell id="0" />
        <mxCell id="1" parent="0" />
        <mxCell id="hnnxuHman6T0Yc0G2PcP-1" value="&lt;h1 style=&quot;font-size: 18px;&quot;&gt;&lt;span lang=&quot;EN-IE&quot; style=&quot;font-size: 18px;&quot;&gt;A prompt will loosely take this form:&lt;/span&gt;&lt;/h1&gt;&lt;p class=&quot;MsoNormal&quot; style=&quot;font-size: 18px;&quot;&gt;&lt;span lang=&quot;EN-IE&quot; style=&quot;font-size: 18px;&quot;&gt;&lt;b&gt;{{System Message}}&lt;/b&gt;&lt;br style=&quot;font-size: 18px;&quot;&gt;&lt;br&gt;E.g. You are an expert nutritionist and a helpful personal trainer&lt;br style=&quot;font-size: 18px;&quot;&gt;&lt;br&gt;&lt;b&gt;{{Primary Focus}}&lt;/b&gt;&lt;br style=&quot;font-size: 18px;&quot;&gt;&lt;br&gt;E.g. I need to lose weight and lower my cholesterol level.&lt;span style=&quot;font-size: 18px;&quot;&gt;&amp;nbsp; &lt;/span&gt;I also want to be able to run 10km.&lt;br style=&quot;font-size: 18px;&quot;&gt;&lt;br&gt;&lt;b&gt;{{Context Focus}}&lt;/b&gt;&lt;br style=&quot;font-size: 18px;&quot;&gt;&lt;br&gt;E.g. Only respond using information provided in the context information below.&lt;span style=&quot;font-size: 18px;&quot;&gt;&amp;nbsp; &lt;/span&gt;If there isn&#39;t enough information below to respond accurately, then respond with &#39;I need more information related to&lt;br&gt;{{Output Request}}.&#39;&lt;br style=&quot;font-size: 18px;&quot;&gt;&lt;br&gt;&lt;/span&gt;&lt;/p&gt;&lt;blockquote style=&quot;margin: 0 0 0 40px; border: none; padding: 0px;&quot;&gt;&lt;p class=&quot;MsoNormal&quot; style=&quot;font-size: 18px;&quot;&gt;&lt;span lang=&quot;EN-IE&quot; style=&quot;font-size: 18px;&quot;&gt;&lt;b&gt;{{Context Information}}&lt;/b&gt;&lt;/span&gt;&lt;/p&gt;&lt;p class=&quot;MsoNormal&quot; style=&quot;font-size: 18px;&quot;&gt;&lt;span lang=&quot;EN-IE&quot; style=&quot;font-size: 18px;&quot;&gt;Shunk of contextual information provided by the user to return accurate response on {{Primary Focus}}.&lt;/span&gt;&lt;/p&gt;&lt;/blockquote&gt;&lt;p class=&quot;MsoNormal&quot; style=&quot;font-size: 18px;&quot;&gt;&lt;span lang=&quot;EN-IE&quot; style=&quot;font-size: 18px;&quot;&gt;&lt;br&gt;&lt;b&gt;{{Memory Focus}}&lt;/b&gt;&lt;br style=&quot;font-size: 18px;&quot;&gt;&lt;br&gt;E.g. We have had the following relevant interactions previously.&lt;span style=&quot;font-size: 18px;&quot;&gt;&amp;nbsp; &lt;/span&gt;Please refer to these interactions and ensure that you adhere to my previously stated preference and requests.&lt;br style=&quot;font-size: 18px;&quot;&gt;&lt;br&gt;&lt;/span&gt;&lt;/p&gt;&lt;blockquote style=&quot;margin: 0 0 0 40px; border: none; padding: 0px;&quot;&gt;&lt;p class=&quot;MsoNormal&quot; style=&quot;font-size: 18px;&quot;&gt;&lt;span lang=&quot;EN-IE&quot; style=&quot;font-size: 18px;&quot;&gt;&lt;b&gt;{{List of Relevant Memory pairs}}&lt;/b&gt;&lt;/span&gt;&lt;/p&gt;&lt;p class=&quot;MsoNormal&quot; style=&quot;font-size: 18px;&quot;&gt;&lt;span lang=&quot;EN-IE&quot; style=&quot;font-size: 18px;&quot;&gt;{[prompts, responses],...} pairs&lt;/span&gt;&lt;/p&gt;&lt;/blockquote&gt;&lt;p class=&quot;MsoNormal&quot; style=&quot;font-size: 18px;&quot;&gt;&lt;span lang=&quot;EN-IE&quot; style=&quot;font-size: 18px;&quot;&gt;&lt;b style=&quot;background-color: initial;&quot;&gt;&lt;br&gt;&lt;br&gt;{{ Response format requirements }}&lt;/b&gt;&lt;br&gt;&lt;/span&gt;&lt;/p&gt;&lt;p class=&quot;MsoNormal&quot; style=&quot;font-size: 18px;&quot;&gt;&lt;span lang=&quot;EN-IE&quot; style=&quot;font-size: 18px;&quot;&gt;E.g. Explicit JSON Format&lt;/span&gt;&lt;/p&gt;" style="text;whiteSpace=wrap;html=1;fontSize=18;fillColor=#ffe6cc;strokeColor=#d79b00;" parent="1" vertex="1">
          <mxGeometry x="405" y="183" width="410" height="970" as="geometry" />
        </mxCell>
        <mxCell id="hnnxuHman6T0Yc0G2PcP-2" value="&lt;p class=&quot;MsoNormal&quot; style=&quot;font-size: 21px;&quot;&gt;&lt;span lang=&quot;EN-IE&quot; style=&quot;font-size: 21px;&quot;&gt;The prompts that we cover could be lengthy and complex. The best approach is to build a &lt;u&gt;prompt manager&lt;/u&gt; which can accept a number of properties and build the prompt in the correct structure.&lt;/span&gt;&lt;/p&gt;" style="text;whiteSpace=wrap;html=1;fontSize=21;fontStyle=1;fillColor=#fff2cc;strokeColor=#d6b656;" parent="1" vertex="1">
          <mxGeometry x="405" y="33" width="912" height="130" as="geometry" />
        </mxCell>
        <mxCell id="hnnxuHman6T0Yc0G2PcP-8" value="&lt;ol style=&quot;border: 0px solid rgb(217, 217, 227); box-sizing: border-box; --tw-border-spacing-x: 0; --tw-border-spacing-y: 0; --tw-translate-x: 0; --tw-translate-y: 0; --tw-rotate: 0; --tw-skew-x: 0; --tw-skew-y: 0; --tw-scale-x: 1; --tw-scale-y: 1; --tw-pan-x: ; --tw-pan-y: ; --tw-pinch-zoom: ; --tw-scroll-snap-strictness: proximity; --tw-gradient-from-position: ; --tw-gradient-via-position: ; --tw-gradient-to-position: ; --tw-ordinal: ; --tw-slashed-zero: ; --tw-numeric-figure: ; --tw-numeric-spacing: ; --tw-numeric-fraction: ; --tw-ring-inset: ; --tw-ring-offset-width: 0px; --tw-ring-offset-color: #fff; --tw-ring-color: rgba(69,89,164,.5); --tw-ring-offset-shadow: 0 0 transparent; --tw-ring-shadow: 0 0 transparent; --tw-shadow: 0 0 transparent; --tw-shadow-colored: 0 0 transparent; --tw-blur: ; --tw-brightness: ; --tw-contrast: ; --tw-grayscale: ; --tw-hue-rotate: ; --tw-invert: ; --tw-saturate: ; --tw-sepia: ; --tw-drop-shadow: ; --tw-backdrop-blur: ; --tw-backdrop-brightness: ; --tw-backdrop-contrast: ; --tw-backdrop-grayscale: ; --tw-backdrop-hue-rotate: ; --tw-backdrop-invert: ; --tw-backdrop-opacity: ; --tw-backdrop-saturate: ; --tw-backdrop-sepia: ; list-style: none; margin: 1.25em 0px; padding: 0px; counter-reset: list-number 0; display: flex; flex-direction: column; font-family: Söhne, ui-sans-serif, system-ui, -apple-system, &amp;quot;Segoe UI&amp;quot;, Roboto, Ubuntu, Cantarell, &amp;quot;Noto Sans&amp;quot;, sans-serif, &amp;quot;Helvetica Neue&amp;quot;, Arial, &amp;quot;Apple Color Emoji&amp;quot;, &amp;quot;Segoe UI Emoji&amp;quot;, &amp;quot;Segoe UI Symbol&amp;quot;, &amp;quot;Noto Color Emoji&amp;quot;; font-size: 16px; font-style: normal; font-variant-ligatures: normal; font-variant-caps: normal; font-weight: 400; letter-spacing: normal; orphans: 2; text-align: start; text-indent: 0px; text-transform: none; widows: 2; word-spacing: 0px; -webkit-text-stroke-width: 0px; background-color: rgb(247, 247, 248); text-decoration-thickness: initial; text-decoration-style: initial; text-decoration-color: initial;&quot;&gt;&lt;li style=&quot;border: 0px solid rgb(217, 217, 227); box-sizing: border-box; --tw-border-spacing-x: 0; --tw-border-spacing-y: 0; --tw-translate-x: 0; --tw-translate-y: 0; --tw-rotate: 0; --tw-skew-x: 0; --tw-skew-y: 0; --tw-scale-x: 1; --tw-scale-y: 1; --tw-pan-x: ; --tw-pan-y: ; --tw-pinch-zoom: ; --tw-scroll-snap-strictness: proximity; --tw-gradient-from-position: ; --tw-gradient-via-position: ; --tw-gradient-to-position: ; --tw-ordinal: ; --tw-slashed-zero: ; --tw-numeric-figure: ; --tw-numeric-spacing: ; --tw-numeric-fraction: ; --tw-ring-inset: ; --tw-ring-offset-width: 0px; --tw-ring-offset-color: #fff; --tw-ring-color: rgba(69,89,164,.5); --tw-ring-offset-shadow: 0 0 transparent; --tw-ring-shadow: 0 0 transparent; --tw-shadow: 0 0 transparent; --tw-shadow-colored: 0 0 transparent; --tw-blur: ; --tw-brightness: ; --tw-contrast: ; --tw-grayscale: ; --tw-hue-rotate: ; --tw-invert: ; --tw-saturate: ; --tw-sepia: ; --tw-drop-shadow: ; --tw-backdrop-blur: ; --tw-backdrop-brightness: ; --tw-backdrop-contrast: ; --tw-backdrop-grayscale: ; --tw-backdrop-hue-rotate: ; --tw-backdrop-invert: ; --tw-backdrop-opacity: ; --tw-backdrop-saturate: ; --tw-backdrop-sepia: ; margin-bottom: 0px; margin-top: 0px; padding-left: 0.375em; counter-increment: list-number 1; display: block; min-height: 28px;&quot;&gt;&lt;p style=&quot;border: 0px solid rgb(217, 217, 227); box-sizing: border-box; --tw-border-spacing-x: 0; --tw-border-spacing-y: 0; --tw-translate-x: 0; --tw-translate-y: 0; --tw-rotate: 0; --tw-skew-x: 0; --tw-skew-y: 0; --tw-scale-x: 1; --tw-scale-y: 1; --tw-pan-x: ; --tw-pan-y: ; --tw-pinch-zoom: ; --tw-scroll-snap-strictness: proximity; --tw-gradient-from-position: ; --tw-gradient-via-position: ; --tw-gradient-to-position: ; --tw-ordinal: ; --tw-slashed-zero: ; --tw-numeric-figure: ; --tw-numeric-spacing: ; --tw-numeric-fraction: ; --tw-ring-inset: ; --tw-ring-offset-width: 0px; --tw-ring-offset-color: #fff; --tw-ring-color: rgba(69,89,164,.5); --tw-ring-offset-shadow: 0 0 transparent; --tw-ring-shadow: 0 0 transparent; --tw-shadow: 0 0 transparent; --tw-shadow-colored: 0 0 transparent; --tw-blur: ; --tw-brightness: ; --tw-contrast: ; --tw-grayscale: ; --tw-hue-rotate: ; --tw-invert: ; --tw-saturate: ; --tw-sepia: ; --tw-drop-shadow: ; --tw-backdrop-blur: ; --tw-backdrop-brightness: ; --tw-backdrop-contrast: ; --tw-backdrop-grayscale: ; --tw-backdrop-hue-rotate: ; --tw-backdrop-invert: ; --tw-backdrop-opacity: ; --tw-backdrop-saturate: ; --tw-backdrop-sepia: ; margin: 0px;&quot;&gt;&lt;strong style=&quot;border: 0px solid rgb(217, 217, 227); box-sizing: border-box; --tw-border-spacing-x: 0; --tw-border-spacing-y: 0; --tw-translate-x: 0; --tw-translate-y: 0; --tw-rotate: 0; --tw-skew-x: 0; --tw-skew-y: 0; --tw-scale-x: 1; --tw-scale-y: 1; --tw-pan-x: ; --tw-pan-y: ; --tw-pinch-zoom: ; --tw-scroll-snap-strictness: proximity; --tw-gradient-from-position: ; --tw-gradient-via-position: ; --tw-gradient-to-position: ; --tw-ordinal: ; --tw-slashed-zero: ; --tw-numeric-figure: ; --tw-numeric-spacing: ; --tw-numeric-fraction: ; --tw-ring-inset: ; --tw-ring-offset-width: 0px; --tw-ring-offset-color: #fff; --tw-ring-color: rgba(69,89,164,.5); --tw-ring-offset-shadow: 0 0 transparent; --tw-ring-shadow: 0 0 transparent; --tw-shadow: 0 0 transparent; --tw-shadow-colored: 0 0 transparent; --tw-blur: ; --tw-brightness: ; --tw-contrast: ; --tw-grayscale: ; --tw-hue-rotate: ; --tw-invert: ; --tw-saturate: ; --tw-sepia: ; --tw-drop-shadow: ; --tw-backdrop-blur: ; --tw-backdrop-brightness: ; --tw-backdrop-contrast: ; --tw-backdrop-grayscale: ; --tw-backdrop-hue-rotate: ; --tw-backdrop-invert: ; --tw-backdrop-opacity: ; --tw-backdrop-saturate: ; --tw-backdrop-sepia: ; font-weight: 600;&quot;&gt;&lt;font color=&quot;#ff3333&quot;&gt;{{System Message}}&lt;/font&gt;&lt;/strong&gt;&lt;/p&gt;&lt;ul style=&quot;color: rgb(55, 65, 81); border: 0px solid rgb(217, 217, 227); box-sizing: border-box; --tw-border-spacing-x: 0; --tw-border-spacing-y: 0; --tw-translate-x: 0; --tw-translate-y: 0; --tw-rotate: 0; --tw-skew-x: 0; --tw-skew-y: 0; --tw-scale-x: 1; --tw-scale-y: 1; --tw-pan-x: ; --tw-pan-y: ; --tw-pinch-zoom: ; --tw-scroll-snap-strictness: proximity; --tw-gradient-from-position: ; --tw-gradient-via-position: ; --tw-gradient-to-position: ; --tw-ordinal: ; --tw-slashed-zero: ; --tw-numeric-figure: ; --tw-numeric-spacing: ; --tw-numeric-fraction: ; --tw-ring-inset: ; --tw-ring-offset-width: 0px; --tw-ring-offset-color: #fff; --tw-ring-color: rgba(69,89,164,.5); --tw-ring-offset-shadow: 0 0 transparent; --tw-ring-shadow: 0 0 transparent; --tw-shadow: 0 0 transparent; --tw-shadow-colored: 0 0 transparent; --tw-blur: ; --tw-brightness: ; --tw-contrast: ; --tw-grayscale: ; --tw-hue-rotate: ; --tw-invert: ; --tw-saturate: ; --tw-sepia: ; --tw-drop-shadow: ; --tw-backdrop-blur: ; --tw-backdrop-brightness: ; --tw-backdrop-contrast: ; --tw-backdrop-grayscale: ; --tw-backdrop-hue-rotate: ; --tw-backdrop-invert: ; --tw-backdrop-opacity: ; --tw-backdrop-saturate: ; --tw-backdrop-sepia: ; list-style: disc; margin: 0px 0px 0px 1rem; padding: 0px; display: flex; flex-direction: column;&quot;&gt;&lt;li style=&quot;border: 0px solid rgb(217, 217, 227); box-sizing: border-box; --tw-border-spacing-x: 0; --tw-border-spacing-y: 0; --tw-translate-x: 0; --tw-translate-y: 0; --tw-rotate: 0; --tw-skew-x: 0; --tw-skew-y: 0; --tw-scale-x: 1; --tw-scale-y: 1; --tw-pan-x: ; --tw-pan-y: ; --tw-pinch-zoom: ; --tw-scroll-snap-strictness: proximity; --tw-gradient-from-position: ; --tw-gradient-via-position: ; --tw-gradient-to-position: ; --tw-ordinal: ; --tw-slashed-zero: ; --tw-numeric-figure: ; --tw-numeric-spacing: ; --tw-numeric-fraction: ; --tw-ring-inset: ; --tw-ring-offset-width: 0px; --tw-ring-offset-color: #fff; --tw-ring-color: rgba(69,89,164,.5); --tw-ring-offset-shadow: 0 0 transparent; --tw-ring-shadow: 0 0 transparent; --tw-shadow: 0 0 transparent; --tw-shadow-colored: 0 0 transparent; --tw-blur: ; --tw-brightness: ; --tw-contrast: ; --tw-grayscale: ; --tw-hue-rotate: ; --tw-invert: ; --tw-saturate: ; --tw-sepia: ; --tw-drop-shadow: ; --tw-backdrop-blur: ; --tw-backdrop-brightness: ; --tw-backdrop-contrast: ; --tw-backdrop-grayscale: ; --tw-backdrop-hue-rotate: ; --tw-backdrop-invert: ; --tw-backdrop-opacity: ; --tw-backdrop-saturate: ; --tw-backdrop-sepia: ; margin: 0px; padding-left: 0.375em; display: block; min-height: 28px;&quot;&gt;This section sets the &quot;persona&quot; or &quot;role&quot; for the model. It gives the model a frame of reference for how it should behave in the subsequent interactions. For example, telling the model &quot;You are an expert nutritionist&quot; instructs it to respond with knowledge and expertise related to nutrition.&lt;/li&gt;&lt;/ul&gt;&lt;/li&gt;&lt;li style=&quot;border: 0px solid rgb(217, 217, 227); box-sizing: border-box; --tw-border-spacing-x: 0; --tw-border-spacing-y: 0; --tw-translate-x: 0; --tw-translate-y: 0; --tw-rotate: 0; --tw-skew-x: 0; --tw-skew-y: 0; --tw-scale-x: 1; --tw-scale-y: 1; --tw-pan-x: ; --tw-pan-y: ; --tw-pinch-zoom: ; --tw-scroll-snap-strictness: proximity; --tw-gradient-from-position: ; --tw-gradient-via-position: ; --tw-gradient-to-position: ; --tw-ordinal: ; --tw-slashed-zero: ; --tw-numeric-figure: ; --tw-numeric-spacing: ; --tw-numeric-fraction: ; --tw-ring-inset: ; --tw-ring-offset-width: 0px; --tw-ring-offset-color: #fff; --tw-ring-color: rgba(69,89,164,.5); --tw-ring-offset-shadow: 0 0 transparent; --tw-ring-shadow: 0 0 transparent; --tw-shadow: 0 0 transparent; --tw-shadow-colored: 0 0 transparent; --tw-blur: ; --tw-brightness: ; --tw-contrast: ; --tw-grayscale: ; --tw-hue-rotate: ; --tw-invert: ; --tw-saturate: ; --tw-sepia: ; --tw-drop-shadow: ; --tw-backdrop-blur: ; --tw-backdrop-brightness: ; --tw-backdrop-contrast: ; --tw-backdrop-grayscale: ; --tw-backdrop-hue-rotate: ; --tw-backdrop-invert: ; --tw-backdrop-opacity: ; --tw-backdrop-saturate: ; --tw-backdrop-sepia: ; margin-bottom: 0px; margin-top: 0px; padding-left: 0.375em; counter-increment: list-number 1; display: block; min-height: 28px;&quot;&gt;&lt;p style=&quot;border: 0px solid rgb(217, 217, 227); box-sizing: border-box; --tw-border-spacing-x: 0; --tw-border-spacing-y: 0; --tw-translate-x: 0; --tw-translate-y: 0; --tw-rotate: 0; --tw-skew-x: 0; --tw-skew-y: 0; --tw-scale-x: 1; --tw-scale-y: 1; --tw-pan-x: ; --tw-pan-y: ; --tw-pinch-zoom: ; --tw-scroll-snap-strictness: proximity; --tw-gradient-from-position: ; --tw-gradient-via-position: ; --tw-gradient-to-position: ; --tw-ordinal: ; --tw-slashed-zero: ; --tw-numeric-figure: ; --tw-numeric-spacing: ; --tw-numeric-fraction: ; --tw-ring-inset: ; --tw-ring-offset-width: 0px; --tw-ring-offset-color: #fff; --tw-ring-color: rgba(69,89,164,.5); --tw-ring-offset-shadow: 0 0 transparent; --tw-ring-shadow: 0 0 transparent; --tw-shadow: 0 0 transparent; --tw-shadow-colored: 0 0 transparent; --tw-blur: ; --tw-brightness: ; --tw-contrast: ; --tw-grayscale: ; --tw-hue-rotate: ; --tw-invert: ; --tw-saturate: ; --tw-sepia: ; --tw-drop-shadow: ; --tw-backdrop-blur: ; --tw-backdrop-brightness: ; --tw-backdrop-contrast: ; --tw-backdrop-grayscale: ; --tw-backdrop-hue-rotate: ; --tw-backdrop-invert: ; --tw-backdrop-opacity: ; --tw-backdrop-saturate: ; --tw-backdrop-sepia: ; margin: 0px;&quot;&gt;&lt;strong style=&quot;border: 0px solid rgb(217, 217, 227); box-sizing: border-box; --tw-border-spacing-x: 0; --tw-border-spacing-y: 0; --tw-translate-x: 0; --tw-translate-y: 0; --tw-rotate: 0; --tw-skew-x: 0; --tw-skew-y: 0; --tw-scale-x: 1; --tw-scale-y: 1; --tw-pan-x: ; --tw-pan-y: ; --tw-pinch-zoom: ; --tw-scroll-snap-strictness: proximity; --tw-gradient-from-position: ; --tw-gradient-via-position: ; --tw-gradient-to-position: ; --tw-ordinal: ; --tw-slashed-zero: ; --tw-numeric-figure: ; --tw-numeric-spacing: ; --tw-numeric-fraction: ; --tw-ring-inset: ; --tw-ring-offset-width: 0px; --tw-ring-offset-color: #fff; --tw-ring-color: rgba(69,89,164,.5); --tw-ring-offset-shadow: 0 0 transparent; --tw-ring-shadow: 0 0 transparent; --tw-shadow: 0 0 transparent; --tw-shadow-colored: 0 0 transparent; --tw-blur: ; --tw-brightness: ; --tw-contrast: ; --tw-grayscale: ; --tw-hue-rotate: ; --tw-invert: ; --tw-saturate: ; --tw-sepia: ; --tw-drop-shadow: ; --tw-backdrop-blur: ; --tw-backdrop-brightness: ; --tw-backdrop-contrast: ; --tw-backdrop-grayscale: ; --tw-backdrop-hue-rotate: ; --tw-backdrop-invert: ; --tw-backdrop-opacity: ; --tw-backdrop-saturate: ; --tw-backdrop-sepia: ; font-weight: 600;&quot;&gt;&lt;br&gt;&lt;font color=&quot;#ff3333&quot;&gt;{{Primary Focus}}&lt;/font&gt;&lt;/strong&gt;&lt;/p&gt;&lt;ul style=&quot;color: rgb(55, 65, 81); border: 0px solid rgb(217, 217, 227); box-sizing: border-box; --tw-border-spacing-x: 0; --tw-border-spacing-y: 0; --tw-translate-x: 0; --tw-translate-y: 0; --tw-rotate: 0; --tw-skew-x: 0; --tw-skew-y: 0; --tw-scale-x: 1; --tw-scale-y: 1; --tw-pan-x: ; --tw-pan-y: ; --tw-pinch-zoom: ; --tw-scroll-snap-strictness: proximity; --tw-gradient-from-position: ; --tw-gradient-via-position: ; --tw-gradient-to-position: ; --tw-ordinal: ; --tw-slashed-zero: ; --tw-numeric-figure: ; --tw-numeric-spacing: ; --tw-numeric-fraction: ; --tw-ring-inset: ; --tw-ring-offset-width: 0px; --tw-ring-offset-color: #fff; --tw-ring-color: rgba(69,89,164,.5); --tw-ring-offset-shadow: 0 0 transparent; --tw-ring-shadow: 0 0 transparent; --tw-shadow: 0 0 transparent; --tw-shadow-colored: 0 0 transparent; --tw-blur: ; --tw-brightness: ; --tw-contrast: ; --tw-grayscale: ; --tw-hue-rotate: ; --tw-invert: ; --tw-saturate: ; --tw-sepia: ; --tw-drop-shadow: ; --tw-backdrop-blur: ; --tw-backdrop-brightness: ; --tw-backdrop-contrast: ; --tw-backdrop-grayscale: ; --tw-backdrop-hue-rotate: ; --tw-backdrop-invert: ; --tw-backdrop-opacity: ; --tw-backdrop-saturate: ; --tw-backdrop-sepia: ; list-style: disc; margin: 0px 0px 0px 1rem; padding: 0px; display: flex; flex-direction: column;&quot;&gt;&lt;li style=&quot;border: 0px solid rgb(217, 217, 227); box-sizing: border-box; --tw-border-spacing-x: 0; --tw-border-spacing-y: 0; --tw-translate-x: 0; --tw-translate-y: 0; --tw-rotate: 0; --tw-skew-x: 0; --tw-skew-y: 0; --tw-scale-x: 1; --tw-scale-y: 1; --tw-pan-x: ; --tw-pan-y: ; --tw-pinch-zoom: ; --tw-scroll-snap-strictness: proximity; --tw-gradient-from-position: ; --tw-gradient-via-position: ; --tw-gradient-to-position: ; --tw-ordinal: ; --tw-slashed-zero: ; --tw-numeric-figure: ; --tw-numeric-spacing: ; --tw-numeric-fraction: ; --tw-ring-inset: ; --tw-ring-offset-width: 0px; --tw-ring-offset-color: #fff; --tw-ring-color: rgba(69,89,164,.5); --tw-ring-offset-shadow: 0 0 transparent; --tw-ring-shadow: 0 0 transparent; --tw-shadow: 0 0 transparent; --tw-shadow-colored: 0 0 transparent; --tw-blur: ; --tw-brightness: ; --tw-contrast: ; --tw-grayscale: ; --tw-hue-rotate: ; --tw-invert: ; --tw-saturate: ; --tw-sepia: ; --tw-drop-shadow: ; --tw-backdrop-blur: ; --tw-backdrop-brightness: ; --tw-backdrop-contrast: ; --tw-backdrop-grayscale: ; --tw-backdrop-hue-rotate: ; --tw-backdrop-invert: ; --tw-backdrop-opacity: ; --tw-backdrop-saturate: ; --tw-backdrop-sepia: ; margin: 0px; padding-left: 0.375em; display: block; min-height: 28px;&quot;&gt;This section provides the specific request or question that the user wants the model to address. It&#39;s the primary focus of the user&#39;s current interaction, and the model should aim to generate a response that satisfies this request.&lt;/li&gt;&lt;/ul&gt;&lt;/li&gt;&lt;li style=&quot;color: rgb(55, 65, 81); border: 0px solid rgb(217, 217, 227); box-sizing: border-box; --tw-border-spacing-x: 0; --tw-border-spacing-y: 0; --tw-translate-x: 0; --tw-translate-y: 0; --tw-rotate: 0; --tw-skew-x: 0; --tw-skew-y: 0; --tw-scale-x: 1; --tw-scale-y: 1; --tw-pan-x: ; --tw-pan-y: ; --tw-pinch-zoom: ; --tw-scroll-snap-strictness: proximity; --tw-gradient-from-position: ; --tw-gradient-via-position: ; --tw-gradient-to-position: ; --tw-ordinal: ; --tw-slashed-zero: ; --tw-numeric-figure: ; --tw-numeric-spacing: ; --tw-numeric-fraction: ; --tw-ring-inset: ; --tw-ring-offset-width: 0px; --tw-ring-offset-color: #fff; --tw-ring-color: rgba(69,89,164,.5); --tw-ring-offset-shadow: 0 0 transparent; --tw-ring-shadow: 0 0 transparent; --tw-shadow: 0 0 transparent; --tw-shadow-colored: 0 0 transparent; --tw-blur: ; --tw-brightness: ; --tw-contrast: ; --tw-grayscale: ; --tw-hue-rotate: ; --tw-invert: ; --tw-saturate: ; --tw-sepia: ; --tw-drop-shadow: ; --tw-backdrop-blur: ; --tw-backdrop-brightness: ; --tw-backdrop-contrast: ; --tw-backdrop-grayscale: ; --tw-backdrop-hue-rotate: ; --tw-backdrop-invert: ; --tw-backdrop-opacity: ; --tw-backdrop-saturate: ; --tw-backdrop-sepia: ; margin-bottom: 0px; margin-top: 0px; padding-left: 0.375em; counter-increment: list-number 1; display: block; min-height: 28px;&quot;&gt;&lt;p style=&quot;border: 0px solid rgb(217, 217, 227); box-sizing: border-box; --tw-border-spacing-x: 0; --tw-border-spacing-y: 0; --tw-translate-x: 0; --tw-translate-y: 0; --tw-rotate: 0; --tw-skew-x: 0; --tw-skew-y: 0; --tw-scale-x: 1; --tw-scale-y: 1; --tw-pan-x: ; --tw-pan-y: ; --tw-pinch-zoom: ; --tw-scroll-snap-strictness: proximity; --tw-gradient-from-position: ; --tw-gradient-via-position: ; --tw-gradient-to-position: ; --tw-ordinal: ; --tw-slashed-zero: ; --tw-numeric-figure: ; --tw-numeric-spacing: ; --tw-numeric-fraction: ; --tw-ring-inset: ; --tw-ring-offset-width: 0px; --tw-ring-offset-color: #fff; --tw-ring-color: rgba(69,89,164,.5); --tw-ring-offset-shadow: 0 0 transparent; --tw-ring-shadow: 0 0 transparent; --tw-shadow: 0 0 transparent; --tw-shadow-colored: 0 0 transparent; --tw-blur: ; --tw-brightness: ; --tw-contrast: ; --tw-grayscale: ; --tw-hue-rotate: ; --tw-invert: ; --tw-saturate: ; --tw-sepia: ; --tw-drop-shadow: ; --tw-backdrop-blur: ; --tw-backdrop-brightness: ; --tw-backdrop-contrast: ; --tw-backdrop-grayscale: ; --tw-backdrop-hue-rotate: ; --tw-backdrop-invert: ; --tw-backdrop-opacity: ; --tw-backdrop-saturate: ; --tw-backdrop-sepia: ; margin: 0px;&quot;&gt;&lt;strong style=&quot;border: 0px solid rgb(217, 217, 227); box-sizing: border-box; --tw-border-spacing-x: 0; --tw-border-spacing-y: 0; --tw-translate-x: 0; --tw-translate-y: 0; --tw-rotate: 0; --tw-skew-x: 0; --tw-skew-y: 0; --tw-scale-x: 1; --tw-scale-y: 1; --tw-pan-x: ; --tw-pan-y: ; --tw-pinch-zoom: ; --tw-scroll-snap-strictness: proximity; --tw-gradient-from-position: ; --tw-gradient-via-position: ; --tw-gradient-to-position: ; --tw-ordinal: ; --tw-slashed-zero: ; --tw-numeric-figure: ; --tw-numeric-spacing: ; --tw-numeric-fraction: ; --tw-ring-inset: ; --tw-ring-offset-width: 0px; --tw-ring-offset-color: #fff; --tw-ring-color: rgba(69,89,164,.5); --tw-ring-offset-shadow: 0 0 transparent; --tw-ring-shadow: 0 0 transparent; --tw-shadow: 0 0 transparent; --tw-shadow-colored: 0 0 transparent; --tw-blur: ; --tw-brightness: ; --tw-contrast: ; --tw-grayscale: ; --tw-hue-rotate: ; --tw-invert: ; --tw-saturate: ; --tw-sepia: ; --tw-drop-shadow: ; --tw-backdrop-blur: ; --tw-backdrop-brightness: ; --tw-backdrop-contrast: ; --tw-backdrop-grayscale: ; --tw-backdrop-hue-rotate: ; --tw-backdrop-invert: ; --tw-backdrop-opacity: ; --tw-backdrop-saturate: ; --tw-backdrop-sepia: ; font-weight: 600; color: var(--tw-prose-bold);&quot;&gt;&lt;br&gt;{{Context Focus}}&lt;/strong&gt;&lt;/p&gt;&lt;ul style=&quot;border: 0px solid rgb(217, 217, 227); box-sizing: border-box; --tw-border-spacing-x: 0; --tw-border-spacing-y: 0; --tw-translate-x: 0; --tw-translate-y: 0; --tw-rotate: 0; --tw-skew-x: 0; --tw-skew-y: 0; --tw-scale-x: 1; --tw-scale-y: 1; --tw-pan-x: ; --tw-pan-y: ; --tw-pinch-zoom: ; --tw-scroll-snap-strictness: proximity; --tw-gradient-from-position: ; --tw-gradient-via-position: ; --tw-gradient-to-position: ; --tw-ordinal: ; --tw-slashed-zero: ; --tw-numeric-figure: ; --tw-numeric-spacing: ; --tw-numeric-fraction: ; --tw-ring-inset: ; --tw-ring-offset-width: 0px; --tw-ring-offset-color: #fff; --tw-ring-color: rgba(69,89,164,.5); --tw-ring-offset-shadow: 0 0 transparent; --tw-ring-shadow: 0 0 transparent; --tw-shadow: 0 0 transparent; --tw-shadow-colored: 0 0 transparent; --tw-blur: ; --tw-brightness: ; --tw-contrast: ; --tw-grayscale: ; --tw-hue-rotate: ; --tw-invert: ; --tw-saturate: ; --tw-sepia: ; --tw-drop-shadow: ; --tw-backdrop-blur: ; --tw-backdrop-brightness: ; --tw-backdrop-contrast: ; --tw-backdrop-grayscale: ; --tw-backdrop-hue-rotate: ; --tw-backdrop-invert: ; --tw-backdrop-opacity: ; --tw-backdrop-saturate: ; --tw-backdrop-sepia: ; list-style: disc; margin: 0px 0px 0px 1rem; padding: 0px; display: flex; flex-direction: column;&quot;&gt;&lt;li style=&quot;border: 0px solid rgb(217, 217, 227); box-sizing: border-box; --tw-border-spacing-x: 0; --tw-border-spacing-y: 0; --tw-translate-x: 0; --tw-translate-y: 0; --tw-rotate: 0; --tw-skew-x: 0; --tw-skew-y: 0; --tw-scale-x: 1; --tw-scale-y: 1; --tw-pan-x: ; --tw-pan-y: ; --tw-pinch-zoom: ; --tw-scroll-snap-strictness: proximity; --tw-gradient-from-position: ; --tw-gradient-via-position: ; --tw-gradient-to-position: ; --tw-ordinal: ; --tw-slashed-zero: ; --tw-numeric-figure: ; --tw-numeric-spacing: ; --tw-numeric-fraction: ; --tw-ring-inset: ; --tw-ring-offset-width: 0px; --tw-ring-offset-color: #fff; --tw-ring-color: rgba(69,89,164,.5); --tw-ring-offset-shadow: 0 0 transparent; --tw-ring-shadow: 0 0 transparent; --tw-shadow: 0 0 transparent; --tw-shadow-colored: 0 0 transparent; --tw-blur: ; --tw-brightness: ; --tw-contrast: ; --tw-grayscale: ; --tw-hue-rotate: ; --tw-invert: ; --tw-saturate: ; --tw-sepia: ; --tw-drop-shadow: ; --tw-backdrop-blur: ; --tw-backdrop-brightness: ; --tw-backdrop-contrast: ; --tw-backdrop-grayscale: ; --tw-backdrop-hue-rotate: ; --tw-backdrop-invert: ; --tw-backdrop-opacity: ; --tw-backdrop-saturate: ; --tw-backdrop-sepia: ; margin: 0px; padding-left: 0.375em; display: block; min-height: 28px;&quot;&gt;This section guides the model on how strictly it should adhere to the provided context. It can also include instructions on how the model should handle situations where there isn&#39;t enough context to provide a precise answer.&lt;/li&gt;&lt;/ul&gt;&lt;/li&gt;&lt;li style=&quot;border: 0px solid rgb(217, 217, 227); box-sizing: border-box; --tw-border-spacing-x: 0; --tw-border-spacing-y: 0; --tw-translate-x: 0; --tw-translate-y: 0; --tw-rotate: 0; --tw-skew-x: 0; --tw-skew-y: 0; --tw-scale-x: 1; --tw-scale-y: 1; --tw-pan-x: ; --tw-pan-y: ; --tw-pinch-zoom: ; --tw-scroll-snap-strictness: proximity; --tw-gradient-from-position: ; --tw-gradient-via-position: ; --tw-gradient-to-position: ; --tw-ordinal: ; --tw-slashed-zero: ; --tw-numeric-figure: ; --tw-numeric-spacing: ; --tw-numeric-fraction: ; --tw-ring-inset: ; --tw-ring-offset-width: 0px; --tw-ring-offset-color: #fff; --tw-ring-color: rgba(69,89,164,.5); --tw-ring-offset-shadow: 0 0 transparent; --tw-ring-shadow: 0 0 transparent; --tw-shadow: 0 0 transparent; --tw-shadow-colored: 0 0 transparent; --tw-blur: ; --tw-brightness: ; --tw-contrast: ; --tw-grayscale: ; --tw-hue-rotate: ; --tw-invert: ; --tw-saturate: ; --tw-sepia: ; --tw-drop-shadow: ; --tw-backdrop-blur: ; --tw-backdrop-brightness: ; --tw-backdrop-contrast: ; --tw-backdrop-grayscale: ; --tw-backdrop-hue-rotate: ; --tw-backdrop-invert: ; --tw-backdrop-opacity: ; --tw-backdrop-saturate: ; --tw-backdrop-sepia: ; margin-bottom: 0px; margin-top: 0px; padding-left: 0.375em; counter-increment: list-number 1; display: block; min-height: 28px;&quot;&gt;&lt;p style=&quot;border: 0px solid rgb(217, 217, 227); box-sizing: border-box; --tw-border-spacing-x: 0; --tw-border-spacing-y: 0; --tw-translate-x: 0; --tw-translate-y: 0; --tw-rotate: 0; --tw-skew-x: 0; --tw-skew-y: 0; --tw-scale-x: 1; --tw-scale-y: 1; --tw-pan-x: ; --tw-pan-y: ; --tw-pinch-zoom: ; --tw-scroll-snap-strictness: proximity; --tw-gradient-from-position: ; --tw-gradient-via-position: ; --tw-gradient-to-position: ; --tw-ordinal: ; --tw-slashed-zero: ; --tw-numeric-figure: ; --tw-numeric-spacing: ; --tw-numeric-fraction: ; --tw-ring-inset: ; --tw-ring-offset-width: 0px; --tw-ring-offset-color: #fff; --tw-ring-color: rgba(69,89,164,.5); --tw-ring-offset-shadow: 0 0 transparent; --tw-ring-shadow: 0 0 transparent; --tw-shadow: 0 0 transparent; --tw-shadow-colored: 0 0 transparent; --tw-blur: ; --tw-brightness: ; --tw-contrast: ; --tw-grayscale: ; --tw-hue-rotate: ; --tw-invert: ; --tw-saturate: ; --tw-sepia: ; --tw-drop-shadow: ; --tw-backdrop-blur: ; --tw-backdrop-brightness: ; --tw-backdrop-contrast: ; --tw-backdrop-grayscale: ; --tw-backdrop-hue-rotate: ; --tw-backdrop-invert: ; --tw-backdrop-opacity: ; --tw-backdrop-saturate: ; --tw-backdrop-sepia: ; margin: 0px;&quot;&gt;&lt;strong style=&quot;border: 0px solid rgb(217, 217, 227); box-sizing: border-box; --tw-border-spacing-x: 0; --tw-border-spacing-y: 0; --tw-translate-x: 0; --tw-translate-y: 0; --tw-rotate: 0; --tw-skew-x: 0; --tw-skew-y: 0; --tw-scale-x: 1; --tw-scale-y: 1; --tw-pan-x: ; --tw-pan-y: ; --tw-pinch-zoom: ; --tw-scroll-snap-strictness: proximity; --tw-gradient-from-position: ; --tw-gradient-via-position: ; --tw-gradient-to-position: ; --tw-ordinal: ; --tw-slashed-zero: ; --tw-numeric-figure: ; --tw-numeric-spacing: ; --tw-numeric-fraction: ; --tw-ring-inset: ; --tw-ring-offset-width: 0px; --tw-ring-offset-color: #fff; --tw-ring-color: rgba(69,89,164,.5); --tw-ring-offset-shadow: 0 0 transparent; --tw-ring-shadow: 0 0 transparent; --tw-shadow: 0 0 transparent; --tw-shadow-colored: 0 0 transparent; --tw-blur: ; --tw-brightness: ; --tw-contrast: ; --tw-grayscale: ; --tw-hue-rotate: ; --tw-invert: ; --tw-saturate: ; --tw-sepia: ; --tw-drop-shadow: ; --tw-backdrop-blur: ; --tw-backdrop-brightness: ; --tw-backdrop-contrast: ; --tw-backdrop-grayscale: ; --tw-backdrop-hue-rotate: ; --tw-backdrop-invert: ; --tw-backdrop-opacity: ; --tw-backdrop-saturate: ; --tw-backdrop-sepia: ; font-weight: 600;&quot;&gt;&lt;br&gt;&lt;font color=&quot;#ff3333&quot;&gt;{{Context Information}}&lt;/font&gt;&lt;/strong&gt;&lt;/p&gt;&lt;ul style=&quot;color: rgb(55, 65, 81); border: 0px solid rgb(217, 217, 227); box-sizing: border-box; --tw-border-spacing-x: 0; --tw-border-spacing-y: 0; --tw-translate-x: 0; --tw-translate-y: 0; --tw-rotate: 0; --tw-skew-x: 0; --tw-skew-y: 0; --tw-scale-x: 1; --tw-scale-y: 1; --tw-pan-x: ; --tw-pan-y: ; --tw-pinch-zoom: ; --tw-scroll-snap-strictness: proximity; --tw-gradient-from-position: ; --tw-gradient-via-position: ; --tw-gradient-to-position: ; --tw-ordinal: ; --tw-slashed-zero: ; --tw-numeric-figure: ; --tw-numeric-spacing: ; --tw-numeric-fraction: ; --tw-ring-inset: ; --tw-ring-offset-width: 0px; --tw-ring-offset-color: #fff; --tw-ring-color: rgba(69,89,164,.5); --tw-ring-offset-shadow: 0 0 transparent; --tw-ring-shadow: 0 0 transparent; --tw-shadow: 0 0 transparent; --tw-shadow-colored: 0 0 transparent; --tw-blur: ; --tw-brightness: ; --tw-contrast: ; --tw-grayscale: ; --tw-hue-rotate: ; --tw-invert: ; --tw-saturate: ; --tw-sepia: ; --tw-drop-shadow: ; --tw-backdrop-blur: ; --tw-backdrop-brightness: ; --tw-backdrop-contrast: ; --tw-backdrop-grayscale: ; --tw-backdrop-hue-rotate: ; --tw-backdrop-invert: ; --tw-backdrop-opacity: ; --tw-backdrop-saturate: ; --tw-backdrop-sepia: ; list-style: disc; margin: 0px 0px 0px 1rem; padding: 0px; display: flex; flex-direction: column;&quot;&gt;&lt;li style=&quot;border: 0px solid rgb(217, 217, 227); box-sizing: border-box; --tw-border-spacing-x: 0; --tw-border-spacing-y: 0; --tw-translate-x: 0; --tw-translate-y: 0; --tw-rotate: 0; --tw-skew-x: 0; --tw-skew-y: 0; --tw-scale-x: 1; --tw-scale-y: 1; --tw-pan-x: ; --tw-pan-y: ; --tw-pinch-zoom: ; --tw-scroll-snap-strictness: proximity; --tw-gradient-from-position: ; --tw-gradient-via-position: ; --tw-gradient-to-position: ; --tw-ordinal: ; --tw-slashed-zero: ; --tw-numeric-figure: ; --tw-numeric-spacing: ; --tw-numeric-fraction: ; --tw-ring-inset: ; --tw-ring-offset-width: 0px; --tw-ring-offset-color: #fff; --tw-ring-color: rgba(69,89,164,.5); --tw-ring-offset-shadow: 0 0 transparent; --tw-ring-shadow: 0 0 transparent; --tw-shadow: 0 0 transparent; --tw-shadow-colored: 0 0 transparent; --tw-blur: ; --tw-brightness: ; --tw-contrast: ; --tw-grayscale: ; --tw-hue-rotate: ; --tw-invert: ; --tw-saturate: ; --tw-sepia: ; --tw-drop-shadow: ; --tw-backdrop-blur: ; --tw-backdrop-brightness: ; --tw-backdrop-contrast: ; --tw-backdrop-grayscale: ; --tw-backdrop-hue-rotate: ; --tw-backdrop-invert: ; --tw-backdrop-opacity: ; --tw-backdrop-saturate: ; --tw-backdrop-sepia: ; margin: 0px; padding-left: 0.375em; display: block; min-height: 28px;&quot;&gt;Here, the user provides additional details or background information that&#39;s relevant to the primary focus. This context helps the model generate more accurate and tailored responses.&lt;/li&gt;&lt;/ul&gt;&lt;/li&gt;&lt;li style=&quot;color: rgb(55, 65, 81); border: 0px solid rgb(217, 217, 227); box-sizing: border-box; --tw-border-spacing-x: 0; --tw-border-spacing-y: 0; --tw-translate-x: 0; --tw-translate-y: 0; --tw-rotate: 0; --tw-skew-x: 0; --tw-skew-y: 0; --tw-scale-x: 1; --tw-scale-y: 1; --tw-pan-x: ; --tw-pan-y: ; --tw-pinch-zoom: ; --tw-scroll-snap-strictness: proximity; --tw-gradient-from-position: ; --tw-gradient-via-position: ; --tw-gradient-to-position: ; --tw-ordinal: ; --tw-slashed-zero: ; --tw-numeric-figure: ; --tw-numeric-spacing: ; --tw-numeric-fraction: ; --tw-ring-inset: ; --tw-ring-offset-width: 0px; --tw-ring-offset-color: #fff; --tw-ring-color: rgba(69,89,164,.5); --tw-ring-offset-shadow: 0 0 transparent; --tw-ring-shadow: 0 0 transparent; --tw-shadow: 0 0 transparent; --tw-shadow-colored: 0 0 transparent; --tw-blur: ; --tw-brightness: ; --tw-contrast: ; --tw-grayscale: ; --tw-hue-rotate: ; --tw-invert: ; --tw-saturate: ; --tw-sepia: ; --tw-drop-shadow: ; --tw-backdrop-blur: ; --tw-backdrop-brightness: ; --tw-backdrop-contrast: ; --tw-backdrop-grayscale: ; --tw-backdrop-hue-rotate: ; --tw-backdrop-invert: ; --tw-backdrop-opacity: ; --tw-backdrop-saturate: ; --tw-backdrop-sepia: ; margin-bottom: 0px; margin-top: 0px; padding-left: 0.375em; counter-increment: list-number 1; display: block; min-height: 28px;&quot;&gt;&lt;p style=&quot;border: 0px solid rgb(217, 217, 227); box-sizing: border-box; --tw-border-spacing-x: 0; --tw-border-spacing-y: 0; --tw-translate-x: 0; --tw-translate-y: 0; --tw-rotate: 0; --tw-skew-x: 0; --tw-skew-y: 0; --tw-scale-x: 1; --tw-scale-y: 1; --tw-pan-x: ; --tw-pan-y: ; --tw-pinch-zoom: ; --tw-scroll-snap-strictness: proximity; --tw-gradient-from-position: ; --tw-gradient-via-position: ; --tw-gradient-to-position: ; --tw-ordinal: ; --tw-slashed-zero: ; --tw-numeric-figure: ; --tw-numeric-spacing: ; --tw-numeric-fraction: ; --tw-ring-inset: ; --tw-ring-offset-width: 0px; --tw-ring-offset-color: #fff; --tw-ring-color: rgba(69,89,164,.5); --tw-ring-offset-shadow: 0 0 transparent; --tw-ring-shadow: 0 0 transparent; --tw-shadow: 0 0 transparent; --tw-shadow-colored: 0 0 transparent; --tw-blur: ; --tw-brightness: ; --tw-contrast: ; --tw-grayscale: ; --tw-hue-rotate: ; --tw-invert: ; --tw-saturate: ; --tw-sepia: ; --tw-drop-shadow: ; --tw-backdrop-blur: ; --tw-backdrop-brightness: ; --tw-backdrop-contrast: ; --tw-backdrop-grayscale: ; --tw-backdrop-hue-rotate: ; --tw-backdrop-invert: ; --tw-backdrop-opacity: ; --tw-backdrop-saturate: ; --tw-backdrop-sepia: ; margin: 0px;&quot;&gt;&lt;strong style=&quot;border: 0px solid rgb(217, 217, 227); box-sizing: border-box; --tw-border-spacing-x: 0; --tw-border-spacing-y: 0; --tw-translate-x: 0; --tw-translate-y: 0; --tw-rotate: 0; --tw-skew-x: 0; --tw-skew-y: 0; --tw-scale-x: 1; --tw-scale-y: 1; --tw-pan-x: ; --tw-pan-y: ; --tw-pinch-zoom: ; --tw-scroll-snap-strictness: proximity; --tw-gradient-from-position: ; --tw-gradient-via-position: ; --tw-gradient-to-position: ; --tw-ordinal: ; --tw-slashed-zero: ; --tw-numeric-figure: ; --tw-numeric-spacing: ; --tw-numeric-fraction: ; --tw-ring-inset: ; --tw-ring-offset-width: 0px; --tw-ring-offset-color: #fff; --tw-ring-color: rgba(69,89,164,.5); --tw-ring-offset-shadow: 0 0 transparent; --tw-ring-shadow: 0 0 transparent; --tw-shadow: 0 0 transparent; --tw-shadow-colored: 0 0 transparent; --tw-blur: ; --tw-brightness: ; --tw-contrast: ; --tw-grayscale: ; --tw-hue-rotate: ; --tw-invert: ; --tw-saturate: ; --tw-sepia: ; --tw-drop-shadow: ; --tw-backdrop-blur: ; --tw-backdrop-brightness: ; --tw-backdrop-contrast: ; --tw-backdrop-grayscale: ; --tw-backdrop-hue-rotate: ; --tw-backdrop-invert: ; --tw-backdrop-opacity: ; --tw-backdrop-saturate: ; --tw-backdrop-sepia: ; font-weight: 600; color: var(--tw-prose-bold);&quot;&gt;&lt;br&gt;{{Memory Focus}}&lt;/strong&gt;&lt;/p&gt;&lt;ul style=&quot;border: 0px solid rgb(217, 217, 227); box-sizing: border-box; --tw-border-spacing-x: 0; --tw-border-spacing-y: 0; --tw-translate-x: 0; --tw-translate-y: 0; --tw-rotate: 0; --tw-skew-x: 0; --tw-skew-y: 0; --tw-scale-x: 1; --tw-scale-y: 1; --tw-pan-x: ; --tw-pan-y: ; --tw-pinch-zoom: ; --tw-scroll-snap-strictness: proximity; --tw-gradient-from-position: ; --tw-gradient-via-position: ; --tw-gradient-to-position: ; --tw-ordinal: ; --tw-slashed-zero: ; --tw-numeric-figure: ; --tw-numeric-spacing: ; --tw-numeric-fraction: ; --tw-ring-inset: ; --tw-ring-offset-width: 0px; --tw-ring-offset-color: #fff; --tw-ring-color: rgba(69,89,164,.5); --tw-ring-offset-shadow: 0 0 transparent; --tw-ring-shadow: 0 0 transparent; --tw-shadow: 0 0 transparent; --tw-shadow-colored: 0 0 transparent; --tw-blur: ; --tw-brightness: ; --tw-contrast: ; --tw-grayscale: ; --tw-hue-rotate: ; --tw-invert: ; --tw-saturate: ; --tw-sepia: ; --tw-drop-shadow: ; --tw-backdrop-blur: ; --tw-backdrop-brightness: ; --tw-backdrop-contrast: ; --tw-backdrop-grayscale: ; --tw-backdrop-hue-rotate: ; --tw-backdrop-invert: ; --tw-backdrop-opacity: ; --tw-backdrop-saturate: ; --tw-backdrop-sepia: ; list-style: disc; margin: 0px 0px 0px 1rem; padding: 0px; display: flex; flex-direction: column;&quot;&gt;&lt;li style=&quot;border: 0px solid rgb(217, 217, 227); box-sizing: border-box; --tw-border-spacing-x: 0; --tw-border-spacing-y: 0; --tw-translate-x: 0; --tw-translate-y: 0; --tw-rotate: 0; --tw-skew-x: 0; --tw-skew-y: 0; --tw-scale-x: 1; --tw-scale-y: 1; --tw-pan-x: ; --tw-pan-y: ; --tw-pinch-zoom: ; --tw-scroll-snap-strictness: proximity; --tw-gradient-from-position: ; --tw-gradient-via-position: ; --tw-gradient-to-position: ; --tw-ordinal: ; --tw-slashed-zero: ; --tw-numeric-figure: ; --tw-numeric-spacing: ; --tw-numeric-fraction: ; --tw-ring-inset: ; --tw-ring-offset-width: 0px; --tw-ring-offset-color: #fff; --tw-ring-color: rgba(69,89,164,.5); --tw-ring-offset-shadow: 0 0 transparent; --tw-ring-shadow: 0 0 transparent; --tw-shadow: 0 0 transparent; --tw-shadow-colored: 0 0 transparent; --tw-blur: ; --tw-brightness: ; --tw-contrast: ; --tw-grayscale: ; --tw-hue-rotate: ; --tw-invert: ; --tw-saturate: ; --tw-sepia: ; --tw-drop-shadow: ; --tw-backdrop-blur: ; --tw-backdrop-brightness: ; --tw-backdrop-contrast: ; --tw-backdrop-grayscale: ; --tw-backdrop-hue-rotate: ; --tw-backdrop-invert: ; --tw-backdrop-opacity: ; --tw-backdrop-saturate: ; --tw-backdrop-sepia: ; margin: 0px; padding-left: 0.375em; display: block; min-height: 28px;&quot;&gt;This section reminds the model about previous interactions that are relevant to the current session. It&#39;s especially useful when the model needs to maintain context across multiple interactions or sessions.&lt;/li&gt;&lt;/ul&gt;&lt;/li&gt;&lt;li style=&quot;color: rgb(55, 65, 81); border: 0px solid rgb(217, 217, 227); box-sizing: border-box; --tw-border-spacing-x: 0; --tw-border-spacing-y: 0; --tw-translate-x: 0; --tw-translate-y: 0; --tw-rotate: 0; --tw-skew-x: 0; --tw-skew-y: 0; --tw-scale-x: 1; --tw-scale-y: 1; --tw-pan-x: ; --tw-pan-y: ; --tw-pinch-zoom: ; --tw-scroll-snap-strictness: proximity; --tw-gradient-from-position: ; --tw-gradient-via-position: ; --tw-gradient-to-position: ; --tw-ordinal: ; --tw-slashed-zero: ; --tw-numeric-figure: ; --tw-numeric-spacing: ; --tw-numeric-fraction: ; --tw-ring-inset: ; --tw-ring-offset-width: 0px; --tw-ring-offset-color: #fff; --tw-ring-color: rgba(69,89,164,.5); --tw-ring-offset-shadow: 0 0 transparent; --tw-ring-shadow: 0 0 transparent; --tw-shadow: 0 0 transparent; --tw-shadow-colored: 0 0 transparent; --tw-blur: ; --tw-brightness: ; --tw-contrast: ; --tw-grayscale: ; --tw-hue-rotate: ; --tw-invert: ; --tw-saturate: ; --tw-sepia: ; --tw-drop-shadow: ; --tw-backdrop-blur: ; --tw-backdrop-brightness: ; --tw-backdrop-contrast: ; --tw-backdrop-grayscale: ; --tw-backdrop-hue-rotate: ; --tw-backdrop-invert: ; --tw-backdrop-opacity: ; --tw-backdrop-saturate: ; --tw-backdrop-sepia: ; margin-bottom: 0px; margin-top: 0px; padding-left: 0.375em; counter-increment: list-number 1; display: block; min-height: 28px;&quot;&gt;&lt;p style=&quot;border: 0px solid rgb(217, 217, 227); box-sizing: border-box; --tw-border-spacing-x: 0; --tw-border-spacing-y: 0; --tw-translate-x: 0; --tw-translate-y: 0; --tw-rotate: 0; --tw-skew-x: 0; --tw-skew-y: 0; --tw-scale-x: 1; --tw-scale-y: 1; --tw-pan-x: ; --tw-pan-y: ; --tw-pinch-zoom: ; --tw-scroll-snap-strictness: proximity; --tw-gradient-from-position: ; --tw-gradient-via-position: ; --tw-gradient-to-position: ; --tw-ordinal: ; --tw-slashed-zero: ; --tw-numeric-figure: ; --tw-numeric-spacing: ; --tw-numeric-fraction: ; --tw-ring-inset: ; --tw-ring-offset-width: 0px; --tw-ring-offset-color: #fff; --tw-ring-color: rgba(69,89,164,.5); --tw-ring-offset-shadow: 0 0 transparent; --tw-ring-shadow: 0 0 transparent; --tw-shadow: 0 0 transparent; --tw-shadow-colored: 0 0 transparent; --tw-blur: ; --tw-brightness: ; --tw-contrast: ; --tw-grayscale: ; --tw-hue-rotate: ; --tw-invert: ; --tw-saturate: ; --tw-sepia: ; --tw-drop-shadow: ; --tw-backdrop-blur: ; --tw-backdrop-brightness: ; --tw-backdrop-contrast: ; --tw-backdrop-grayscale: ; --tw-backdrop-hue-rotate: ; --tw-backdrop-invert: ; --tw-backdrop-opacity: ; --tw-backdrop-saturate: ; --tw-backdrop-sepia: ; margin: 0px;&quot;&gt;&lt;strong style=&quot;border: 0px solid rgb(217, 217, 227); box-sizing: border-box; --tw-border-spacing-x: 0; --tw-border-spacing-y: 0; --tw-translate-x: 0; --tw-translate-y: 0; --tw-rotate: 0; --tw-skew-x: 0; --tw-skew-y: 0; --tw-scale-x: 1; --tw-scale-y: 1; --tw-pan-x: ; --tw-pan-y: ; --tw-pinch-zoom: ; --tw-scroll-snap-strictness: proximity; --tw-gradient-from-position: ; --tw-gradient-via-position: ; --tw-gradient-to-position: ; --tw-ordinal: ; --tw-slashed-zero: ; --tw-numeric-figure: ; --tw-numeric-spacing: ; --tw-numeric-fraction: ; --tw-ring-inset: ; --tw-ring-offset-width: 0px; --tw-ring-offset-color: #fff; --tw-ring-color: rgba(69,89,164,.5); --tw-ring-offset-shadow: 0 0 transparent; --tw-ring-shadow: 0 0 transparent; --tw-shadow: 0 0 transparent; --tw-shadow-colored: 0 0 transparent; --tw-blur: ; --tw-brightness: ; --tw-contrast: ; --tw-grayscale: ; --tw-hue-rotate: ; --tw-invert: ; --tw-saturate: ; --tw-sepia: ; --tw-drop-shadow: ; --tw-backdrop-blur: ; --tw-backdrop-brightness: ; --tw-backdrop-contrast: ; --tw-backdrop-grayscale: ; --tw-backdrop-hue-rotate: ; --tw-backdrop-invert: ; --tw-backdrop-opacity: ; --tw-backdrop-saturate: ; --tw-backdrop-sepia: ; font-weight: 600; color: var(--tw-prose-bold);&quot;&gt;&lt;br&gt;{{List of Relevant Memory pairs}}&lt;/strong&gt;&lt;/p&gt;&lt;ul style=&quot;border: 0px solid rgb(217, 217, 227); box-sizing: border-box; --tw-border-spacing-x: 0; --tw-border-spacing-y: 0; --tw-translate-x: 0; --tw-translate-y: 0; --tw-rotate: 0; --tw-skew-x: 0; --tw-skew-y: 0; --tw-scale-x: 1; --tw-scale-y: 1; --tw-pan-x: ; --tw-pan-y: ; --tw-pinch-zoom: ; --tw-scroll-snap-strictness: proximity; --tw-gradient-from-position: ; --tw-gradient-via-position: ; --tw-gradient-to-position: ; --tw-ordinal: ; --tw-slashed-zero: ; --tw-numeric-figure: ; --tw-numeric-spacing: ; --tw-numeric-fraction: ; --tw-ring-inset: ; --tw-ring-offset-width: 0px; --tw-ring-offset-color: #fff; --tw-ring-color: rgba(69,89,164,.5); --tw-ring-offset-shadow: 0 0 transparent; --tw-ring-shadow: 0 0 transparent; --tw-shadow: 0 0 transparent; --tw-shadow-colored: 0 0 transparent; --tw-blur: ; --tw-brightness: ; --tw-contrast: ; --tw-grayscale: ; --tw-hue-rotate: ; --tw-invert: ; --tw-saturate: ; --tw-sepia: ; --tw-drop-shadow: ; --tw-backdrop-blur: ; --tw-backdrop-brightness: ; --tw-backdrop-contrast: ; --tw-backdrop-grayscale: ; --tw-backdrop-hue-rotate: ; --tw-backdrop-invert: ; --tw-backdrop-opacity: ; --tw-backdrop-saturate: ; --tw-backdrop-sepia: ; list-style: disc; margin: 0px 0px 0px 1rem; padding: 0px; display: flex; flex-direction: column;&quot;&gt;&lt;li style=&quot;border: 0px solid rgb(217, 217, 227); box-sizing: border-box; --tw-border-spacing-x: 0; --tw-border-spacing-y: 0; --tw-translate-x: 0; --tw-translate-y: 0; --tw-rotate: 0; --tw-skew-x: 0; --tw-skew-y: 0; --tw-scale-x: 1; --tw-scale-y: 1; --tw-pan-x: ; --tw-pan-y: ; --tw-pinch-zoom: ; --tw-scroll-snap-strictness: proximity; --tw-gradient-from-position: ; --tw-gradient-via-position: ; --tw-gradient-to-position: ; --tw-ordinal: ; --tw-slashed-zero: ; --tw-numeric-figure: ; --tw-numeric-spacing: ; --tw-numeric-fraction: ; --tw-ring-inset: ; --tw-ring-offset-width: 0px; --tw-ring-offset-color: #fff; --tw-ring-color: rgba(69,89,164,.5); --tw-ring-offset-shadow: 0 0 transparent; --tw-ring-shadow: 0 0 transparent; --tw-shadow: 0 0 transparent; --tw-shadow-colored: 0 0 transparent; --tw-blur: ; --tw-brightness: ; --tw-contrast: ; --tw-grayscale: ; --tw-hue-rotate: ; --tw-invert: ; --tw-saturate: ; --tw-sepia: ; --tw-drop-shadow: ; --tw-backdrop-blur: ; --tw-backdrop-brightness: ; --tw-backdrop-contrast: ; --tw-backdrop-grayscale: ; --tw-backdrop-hue-rotate: ; --tw-backdrop-invert: ; --tw-backdrop-opacity: ; --tw-backdrop-saturate: ; --tw-backdrop-sepia: ; margin: 0px; padding-left: 0.375em; display: block; min-height: 28px;&quot;&gt;This section contains actual pairs of previous prompts and responses that are relevant to the current interaction. By referring to these pairs, the model can generate responses that are consistent with past interactions and adhere to user preferences.&lt;/li&gt;&lt;/ul&gt;&lt;/li&gt;&lt;li style=&quot;border: 0px solid rgb(217, 217, 227); box-sizing: border-box; --tw-border-spacing-x: 0; --tw-border-spacing-y: 0; --tw-translate-x: 0; --tw-translate-y: 0; --tw-rotate: 0; --tw-skew-x: 0; --tw-skew-y: 0; --tw-scale-x: 1; --tw-scale-y: 1; --tw-pan-x: ; --tw-pan-y: ; --tw-pinch-zoom: ; --tw-scroll-snap-strictness: proximity; --tw-gradient-from-position: ; --tw-gradient-via-position: ; --tw-gradient-to-position: ; --tw-ordinal: ; --tw-slashed-zero: ; --tw-numeric-figure: ; --tw-numeric-spacing: ; --tw-numeric-fraction: ; --tw-ring-inset: ; --tw-ring-offset-width: 0px; --tw-ring-offset-color: #fff; --tw-ring-color: rgba(69,89,164,.5); --tw-ring-offset-shadow: 0 0 transparent; --tw-ring-shadow: 0 0 transparent; --tw-shadow: 0 0 transparent; --tw-shadow-colored: 0 0 transparent; --tw-blur: ; --tw-brightness: ; --tw-contrast: ; --tw-grayscale: ; --tw-hue-rotate: ; --tw-invert: ; --tw-saturate: ; --tw-sepia: ; --tw-drop-shadow: ; --tw-backdrop-blur: ; --tw-backdrop-brightness: ; --tw-backdrop-contrast: ; --tw-backdrop-grayscale: ; --tw-backdrop-hue-rotate: ; --tw-backdrop-invert: ; --tw-backdrop-opacity: ; --tw-backdrop-saturate: ; --tw-backdrop-sepia: ; margin-bottom: 0px; margin-top: 0px; padding-left: 0.375em; counter-increment: list-number 1; display: block; min-height: 28px;&quot;&gt;&lt;p style=&quot;border: 0px solid rgb(217, 217, 227); box-sizing: border-box; --tw-border-spacing-x: 0; --tw-border-spacing-y: 0; --tw-translate-x: 0; --tw-translate-y: 0; --tw-rotate: 0; --tw-skew-x: 0; --tw-skew-y: 0; --tw-scale-x: 1; --tw-scale-y: 1; --tw-pan-x: ; --tw-pan-y: ; --tw-pinch-zoom: ; --tw-scroll-snap-strictness: proximity; --tw-gradient-from-position: ; --tw-gradient-via-position: ; --tw-gradient-to-position: ; --tw-ordinal: ; --tw-slashed-zero: ; --tw-numeric-figure: ; --tw-numeric-spacing: ; --tw-numeric-fraction: ; --tw-ring-inset: ; --tw-ring-offset-width: 0px; --tw-ring-offset-color: #fff; --tw-ring-color: rgba(69,89,164,.5); --tw-ring-offset-shadow: 0 0 transparent; --tw-ring-shadow: 0 0 transparent; --tw-shadow: 0 0 transparent; --tw-shadow-colored: 0 0 transparent; --tw-blur: ; --tw-brightness: ; --tw-contrast: ; --tw-grayscale: ; --tw-hue-rotate: ; --tw-invert: ; --tw-saturate: ; --tw-sepia: ; --tw-drop-shadow: ; --tw-backdrop-blur: ; --tw-backdrop-brightness: ; --tw-backdrop-contrast: ; --tw-backdrop-grayscale: ; --tw-backdrop-hue-rotate: ; --tw-backdrop-invert: ; --tw-backdrop-opacity: ; --tw-backdrop-saturate: ; --tw-backdrop-sepia: ; margin: 0px;&quot;&gt;&lt;strong style=&quot;border: 0px solid rgb(217, 217, 227); box-sizing: border-box; --tw-border-spacing-x: 0; --tw-border-spacing-y: 0; --tw-translate-x: 0; --tw-translate-y: 0; --tw-rotate: 0; --tw-skew-x: 0; --tw-skew-y: 0; --tw-scale-x: 1; --tw-scale-y: 1; --tw-pan-x: ; --tw-pan-y: ; --tw-pinch-zoom: ; --tw-scroll-snap-strictness: proximity; --tw-gradient-from-position: ; --tw-gradient-via-position: ; --tw-gradient-to-position: ; --tw-ordinal: ; --tw-slashed-zero: ; --tw-numeric-figure: ; --tw-numeric-spacing: ; --tw-numeric-fraction: ; --tw-ring-inset: ; --tw-ring-offset-width: 0px; --tw-ring-offset-color: #fff; --tw-ring-color: rgba(69,89,164,.5); --tw-ring-offset-shadow: 0 0 transparent; --tw-ring-shadow: 0 0 transparent; --tw-shadow: 0 0 transparent; --tw-shadow-colored: 0 0 transparent; --tw-blur: ; --tw-brightness: ; --tw-contrast: ; --tw-grayscale: ; --tw-hue-rotate: ; --tw-invert: ; --tw-saturate: ; --tw-sepia: ; --tw-drop-shadow: ; --tw-backdrop-blur: ; --tw-backdrop-brightness: ; --tw-backdrop-contrast: ; --tw-backdrop-grayscale: ; --tw-backdrop-hue-rotate: ; --tw-backdrop-invert: ; --tw-backdrop-opacity: ; --tw-backdrop-saturate: ; --tw-backdrop-sepia: ; font-weight: 600;&quot;&gt;&lt;br&gt;&lt;font color=&quot;#ff3333&quot;&gt;{{Response format requirements}}&lt;/font&gt;&lt;/strong&gt;&lt;/p&gt;&lt;ul style=&quot;color: rgb(55, 65, 81); border: 0px solid rgb(217, 217, 227); box-sizing: border-box; --tw-border-spacing-x: 0; --tw-border-spacing-y: 0; --tw-translate-x: 0; --tw-translate-y: 0; --tw-rotate: 0; --tw-skew-x: 0; --tw-skew-y: 0; --tw-scale-x: 1; --tw-scale-y: 1; --tw-pan-x: ; --tw-pan-y: ; --tw-pinch-zoom: ; --tw-scroll-snap-strictness: proximity; --tw-gradient-from-position: ; --tw-gradient-via-position: ; --tw-gradient-to-position: ; --tw-ordinal: ; --tw-slashed-zero: ; --tw-numeric-figure: ; --tw-numeric-spacing: ; --tw-numeric-fraction: ; --tw-ring-inset: ; --tw-ring-offset-width: 0px; --tw-ring-offset-color: #fff; --tw-ring-color: rgba(69,89,164,.5); --tw-ring-offset-shadow: 0 0 transparent; --tw-ring-shadow: 0 0 transparent; --tw-shadow: 0 0 transparent; --tw-shadow-colored: 0 0 transparent; --tw-blur: ; --tw-brightness: ; --tw-contrast: ; --tw-grayscale: ; --tw-hue-rotate: ; --tw-invert: ; --tw-saturate: ; --tw-sepia: ; --tw-drop-shadow: ; --tw-backdrop-blur: ; --tw-backdrop-brightness: ; --tw-backdrop-contrast: ; --tw-backdrop-grayscale: ; --tw-backdrop-hue-rotate: ; --tw-backdrop-invert: ; --tw-backdrop-opacity: ; --tw-backdrop-saturate: ; --tw-backdrop-sepia: ; list-style: disc; margin: 0px 0px 0px 1rem; padding: 0px; display: flex; flex-direction: column;&quot;&gt;&lt;li style=&quot;border: 0px solid rgb(217, 217, 227); box-sizing: border-box; --tw-border-spacing-x: 0; --tw-border-spacing-y: 0; --tw-translate-x: 0; --tw-translate-y: 0; --tw-rotate: 0; --tw-skew-x: 0; --tw-skew-y: 0; --tw-scale-x: 1; --tw-scale-y: 1; --tw-pan-x: ; --tw-pan-y: ; --tw-pinch-zoom: ; --tw-scroll-snap-strictness: proximity; --tw-gradient-from-position: ; --tw-gradient-via-position: ; --tw-gradient-to-position: ; --tw-ordinal: ; --tw-slashed-zero: ; --tw-numeric-figure: ; --tw-numeric-spacing: ; --tw-numeric-fraction: ; --tw-ring-inset: ; --tw-ring-offset-width: 0px; --tw-ring-offset-color: #fff; --tw-ring-color: rgba(69,89,164,.5); --tw-ring-offset-shadow: 0 0 transparent; --tw-ring-shadow: 0 0 transparent; --tw-shadow: 0 0 transparent; --tw-shadow-colored: 0 0 transparent; --tw-blur: ; --tw-brightness: ; --tw-contrast: ; --tw-grayscale: ; --tw-hue-rotate: ; --tw-invert: ; --tw-saturate: ; --tw-sepia: ; --tw-drop-shadow: ; --tw-backdrop-blur: ; --tw-backdrop-brightness: ; --tw-backdrop-contrast: ; --tw-backdrop-grayscale: ; --tw-backdrop-hue-rotate: ; --tw-backdrop-invert: ; --tw-backdrop-opacity: ; --tw-backdrop-saturate: ; --tw-backdrop-sepia: ; margin: 0px; padding-left: 0.375em; display: block; min-height: 28px;&quot;&gt;This section specifies the desired format for the model&#39;s output. For instance, if the user wants the response in a specific structure like JSON, they can specify that here. This helps in scenarios where the output needs to be processed by another system or application.&lt;/li&gt;&lt;/ul&gt;&lt;/li&gt;&lt;/ol&gt;&lt;p style=&quot;border: 0px solid rgb(217, 217, 227); box-sizing: border-box; --tw-border-spacing-x: 0; --tw-border-spacing-y: 0; --tw-translate-x: 0; --tw-translate-y: 0; --tw-rotate: 0; --tw-skew-x: 0; --tw-skew-y: 0; --tw-scale-x: 1; --tw-scale-y: 1; --tw-pan-x: ; --tw-pan-y: ; --tw-pinch-zoom: ; --tw-scroll-snap-strictness: proximity; --tw-gradient-from-position: ; --tw-gradient-via-position: ; --tw-gradient-to-position: ; --tw-ordinal: ; --tw-slashed-zero: ; --tw-numeric-figure: ; --tw-numeric-spacing: ; --tw-numeric-fraction: ; --tw-ring-inset: ; --tw-ring-offset-width: 0px; --tw-ring-offset-color: #fff; --tw-ring-color: rgba(69,89,164,.5); --tw-ring-offset-shadow: 0 0 transparent; --tw-ring-shadow: 0 0 transparent; --tw-shadow: 0 0 transparent; --tw-shadow-colored: 0 0 transparent; --tw-blur: ; --tw-brightness: ; --tw-contrast: ; --tw-grayscale: ; --tw-hue-rotate: ; --tw-invert: ; --tw-saturate: ; --tw-sepia: ; --tw-drop-shadow: ; --tw-backdrop-blur: ; --tw-backdrop-brightness: ; --tw-backdrop-contrast: ; --tw-backdrop-grayscale: ; --tw-backdrop-hue-rotate: ; --tw-backdrop-invert: ; --tw-backdrop-opacity: ; --tw-backdrop-saturate: ; --tw-backdrop-sepia: ; margin: 1.25em 0px 0px; color: rgb(55, 65, 81); font-family: Söhne, ui-sans-serif, system-ui, -apple-system, &amp;quot;Segoe UI&amp;quot;, Roboto, Ubuntu, Cantarell, &amp;quot;Noto Sans&amp;quot;, sans-serif, &amp;quot;Helvetica Neue&amp;quot;, Arial, &amp;quot;Apple Color Emoji&amp;quot;, &amp;quot;Segoe UI Emoji&amp;quot;, &amp;quot;Segoe UI Symbol&amp;quot;, &amp;quot;Noto Color Emoji&amp;quot;; font-size: 16px; font-style: normal; font-variant-ligatures: normal; font-variant-caps: normal; font-weight: 400; letter-spacing: normal; orphans: 2; text-align: start; text-indent: 0px; text-transform: none; widows: 2; word-spacing: 0px; -webkit-text-stroke-width: 0px; background-color: rgb(247, 247, 248); text-decoration-thickness: initial; text-decoration-style: initial; text-decoration-color: initial;&quot;&gt;Each of these sections plays a crucial role in guiding the model&#39;s behavior and ensuring that the generated response is both relevant and consistent with the user&#39;s needs and preferences.&lt;/p&gt;" style="text;whiteSpace=wrap;html=1;fillColor=#f5f5f5;fontColor=#333333;strokeColor=#666666;" parent="1" vertex="1">
          <mxGeometry x="836" y="183" width="480" height="970" as="geometry" />
        </mxCell>
      </root>
    </mxGraphModel>
  </diagram>
  <diagram id="PA0D_FI1fBPl1djwi9CM" name="Single User">
    <mxGraphModel dx="1700" dy="1364" grid="0" gridSize="10" guides="1" tooltips="1" connect="1" arrows="1" fold="1" page="1" pageScale="1" pageWidth="1654" pageHeight="2336" math="0" shadow="0">
      <root>
        <mxCell id="0" />
        <mxCell id="1" parent="0" />
        <mxCell id="ItdWZb3pQPPJKnLkRFLI-1" value="Orchestrator (single user)" style="swimlane;whiteSpace=wrap;html=1;fontSize=23;fillColor=#dae8fc;strokeColor=#6c8ebf;" parent="1" vertex="1">
          <mxGeometry x="1872" y="240" width="800" height="1607" as="geometry" />
        </mxCell>
        <mxCell id="4f1eyeeucxYTZ4xAIUrl-2" value="" style="shape=image;verticalLabelPosition=bottom;labelBackgroundColor=default;verticalAlign=top;aspect=fixed;imageAspect=0;image=data:image/svg+xml,PHN2ZyB4bWxucz0iaHR0cDovL3d3dy53My5vcmcvMjAwMC9zdmciIHZpZXdCb3g9IjAgMCAzMiAzMiI+PHBhdGggZD0ibTEyLjc1IDIyYzAgLjQxNC0uMzM2Ljc1LS43NS43NXMtLjc1LS4zMzYtLjc1LS43NS4zMzYtLjc1Ljc1LS43NS43NS4zMzYuNzUuNzV6bTE1LjA2NC00Ljc0aC4yMTVjMS4zNDUgMCAyLjYwMy0uNzE5IDMuMjgxLTEuODc1LjA2Ni0uMTEyLjA2Ni0uMjUyIDAtLjM2NC0uNjEzLTEuMDQ0LTEuNjY0LTEuNzE4LTIuODU3LTEuODQ4LS4xMTEtMS4yMjUtLjgzLTIuMzMxLTEuOTMyLTIuOTM5LS4xMDctLjA2MS0uMjM5LS4wNjEtLjM0OSAwLTEuMi42NjUtMS45NDYgMS45MTktMS45NDYgMy4yNzMgMCAuNzY4LjI0MSAxLjUxNC42NzkgMi4xMzhoLTIuNTQ1di0zLjY0NWMwLS4xOTktLjE2MS0uMzYtLjM2LS4zNmgtMy42NHYtNy42NGMwLS4xOTktLjE2MS0uMzYtLjM2LS4zNmgtNGMtLjE5OSAwLS4zNi4xNjEtLjM2LjM2djMuNjRoLTMuNjRjLS4xOTkgMC0uMzYuMTYxLS4zNi4zNnYzLjY0aC0zLjY0Yy0uMTk5IDAtLjM2LjE2MS0uMzYuMzZ2My42NDJoLTQuNjRjLS4wOTYgMC0uMTg3LjAzOC0uMjU0LjEwNS0uMDY4LjA2Ny0uMTA1LjE1OS0uMTA1LjI1NHYuODk4YzAgMi44MjYgMS4xNDggNS4zOTQgMy4wMTEgNy4yNzcuMDMzLjA1OC4wODEuMTA1LjEzOS4xMzggMS45MjkgMS44ODIgNC41ODYgMy4wNDYgNy41MTYgMy4wNDYgOC44MzcgMCAxNS44MTQtNS45MTMgMTYuNTA3LTEwLjF6bS0xNy43NjcgNi4zODdjLjE5LS4wNTcuMjk5LS4yNTcuMjQzLS40NDdzLS4yNTYtLjMwMS0uNDQ4LS4yNDJjLTEuNDI1LjQyMy0zLjQ5OS42Ny01LjcxLjY4Mi0xLjcxNi0xLjc1MS0yLjc3Mi00LjEyNy0yLjc3Mi02Ljc0di0uNTM5bDI0LjM0LjAwM2MuMTQ4IDAgLjI4Mi0uMDkxLjMzNi0uMjNzLjAxNy0uMjk2LS4wOTQtLjM5NmMtLjYzMy0uNTc0LS45OTUtMS4zODctLjk5NS0yLjIzMSAwLTEuMDI2LjUzMS0xLjk4MSAxLjQtMi41NC44NjkuNTU4IDEuNCAxLjUxMyAxLjQgMi41NHYuMDA0YzAgLjE5Ni4xNTYuMzU1LjM1My4zNiAxLjAwNS4wMjIgMS45MTUuNTE3IDIuNDc0IDEuMzMzLS41Ny44My0xLjUyNiAxLjMzNy0yLjU0NSAxLjMzN2gtLjUzMWMtLjE4NyAwLS4zNDMuMTQzLS4zNTguMzI5LS4zMzcgMy44NDQtNy4yODcgOS43NzEtMTUuODM0IDkuNzcxLTIuNDM4IDAtNC42NzMtLjg2My02LjQwNC0yLjI5NCAxLjk4Ny0uMDYgMy44MjUtLjMwOCA1LjE0NS0uN3ptOC4zMTMtMTEuMjg3aDMuMjc5djMuMjhoLTMuMjc5em0tNCAwaDMuMjh2My4yOGgtMy4yOHptLTQgMGgzLjI4djMuMjhoLTMuMjh6bS00IDBoMy4yOHYzLjI4aC0zLjI4em04LTRoMy4yOHYzLjI4aC0zLjI4em0tNCAwaDMuMjh2My4yOGgtMy4yOHptNC00aDMuMjh2My4yOGgtMy4yOHoiLz48cGF0aCBmaWxsPSJub25lIiBkPSJtMCAwaDMydjMyaC0zMnoiLz48L3N2Zz4=;" parent="ItdWZb3pQPPJKnLkRFLI-1" vertex="1">
          <mxGeometry x="389" y="192" width="43" height="43" as="geometry" />
        </mxCell>
        <mxCell id="ItdWZb3pQPPJKnLkRFLI-2" value="User Memory" style="swimlane;whiteSpace=wrap;html=1;fontSize=20;" parent="ItdWZb3pQPPJKnLkRFLI-1" vertex="1">
          <mxGeometry x="448" y="190" width="282" height="150" as="geometry" />
        </mxCell>
        <mxCell id="ItdWZb3pQPPJKnLkRFLI-3" value="Previous Responses&lt;br&gt;Memory" style="rounded=0;whiteSpace=wrap;html=1;fontSize=15;fontStyle=1" parent="ItdWZb3pQPPJKnLkRFLI-2" vertex="1">
          <mxGeometry x="14" y="49" width="133" height="60" as="geometry" />
        </mxCell>
        <mxCell id="ItdWZb3pQPPJKnLkRFLI-4" value="Prompt" style="rounded=1;whiteSpace=wrap;html=1;fillColor=#d5e8d4;strokeColor=#82b366;gradientColor=#97d077;" parent="ItdWZb3pQPPJKnLkRFLI-2" vertex="1">
          <mxGeometry x="157" y="33" width="100" height="30" as="geometry" />
        </mxCell>
        <mxCell id="ItdWZb3pQPPJKnLkRFLI-5" value="Response" style="rounded=1;whiteSpace=wrap;html=1;fillColor=#fff2cc;strokeColor=#d6b656;gradientColor=#ffd966;" parent="ItdWZb3pQPPJKnLkRFLI-2" vertex="1">
          <mxGeometry x="157" y="71" width="100" height="30" as="geometry" />
        </mxCell>
        <mxCell id="ItdWZb3pQPPJKnLkRFLI-6" value="Edited Response" style="rounded=1;whiteSpace=wrap;html=1;fillColor=#ffcd28;gradientColor=#ffa500;strokeColor=#d79b00;" parent="ItdWZb3pQPPJKnLkRFLI-2" vertex="1">
          <mxGeometry x="157" y="109" width="100" height="30" as="geometry" />
        </mxCell>
        <mxCell id="ItdWZb3pQPPJKnLkRFLI-7" value="Elastic" style="shape=image;verticalLabelPosition=top;labelBackgroundColor=default;verticalAlign=bottom;aspect=fixed;imageAspect=0;image=data:image/png,iVBORw0KGgoAAAANSUhEUgAAADAAAAAwCAYAAABXAvmHAAAAAXNSR0IArs4c6QAACcFJREFUaEO1WWlwVFUW/s7rdPaEENaEJISEQNgS2bdhJGGUYV/GshgJFjJCgctIqYyso+UEAavE0qKcEZdRlikEFSsMICAg4IQRUQgJYTWQhQQmC4Gsne73ztR56U46SXenOzTnV/d7997zfXc557vnER6iMbMBwHwAKwD0B2C0c1cP4CyAN4noSEdhUEc7uurHzP4ADgBIadmOrX8duv0AwAtEZGvkFjSvE2DmZQAEDAANXLEN2v82AeYiAHbYyAgKHAOKeBsUMMQGVgMwlojOuIUegFcJMPN+AFN16MUrwOV/dw8H+UOJ2w8KHG1r/xoRve1OZ7cJMPOTsl8BxFqJFwJIJ6LPxBEzfwtgMtR7UC/3BbQ6d/y3aEMhU6HE7rY9e5WI3mlvkHYJMPMgAOcB+DQNxgxQU1dZdn3/wlIK9VJcy63SHoLW7/0SYegnZ1u3oUQkvp2aSwLMPAbAaeltPpuP2s3HwbUNjYMRYBwWjaBVkwEfBWAVak5nfd8/qFHI41Biv5ZhVCJqnjgHAzslwMzS0Sx9ql/fD0vWLYe4jMOjEbRuCrSSNeCy9x4Ue1N/pc9BUPAE+f8WEa1xNrArAtsBpNX/6yzqd//iFFjgK6nwndAX6pUkoCHPawRARhgG35XxmIiUjhBQASiVs7e6BNVp29OgUH+o2aFe2T72zpS4I6CgsfJoOBE5nEWHK2DbPurNclQt/8olgbBvllj3fyfvzb51JPJPgpKQKf/2EtFcRw6cEZBMWtdw8jpqNx9zDsxoQNiePwGmX6FeTfY6AYkUhiFVMm4lEUmEaGPOCMhzzZJbgurV+5wCM/TvgZBNs8Cl70K7ve4hEICVAGlEJLrKPQL6yWGuhaoF3F+6C1pptUNwAYvHwW/aYGjXxoPrsx4OgcEVAPmCqDnx2DtqswLMnGCN/V3sG3K1CebMPJgO5kK9WSEMEbr1j1C6hzTGf9YjrtdNj0RkdBqJWhBgZkndLwuKY8V1+ODyPSzsG4rUyAAE+rTkyg0WkK+kCoaaHeJ14LYBDUP01a8homCXW4iZPwLwrElljMwoQkVDy4wq8BNCjVgQH4JZvQMR7mfdkmyBmhP2UAhQ1z9DiXhLxhYwoo3ebe1In1ZmfgzAYQGf8FUBNDcV+depPTGqmx+0GzPA1ce9SkKJ+hDUeb4uwFVVg49Bz2WiY/oSkQhJ3WwELAAMSXsL28y8K1Rhvgpy5kQDahXU3AivEVDij4ECR8Gsaui7fjeqTGY8N24A0qeNsPkYRkTndALMPANAxuFbtVj0Q6nHIE5NjUSfECO0q6PAplyP+7fsoMCQeAUwRqC8ph6JG76EKsrXaondOyHzpZm2v8FEVCMELst9NfmbQpSbPFeSMUE+yJzeCzDfgno5seNSWgmAYUAhoPgjp+Qufrvl3w4nY8bAGHw+/1F5l0dE8UJA1zxRX+R3aPYm9vTHjkd7NPXliu3Qil8C2Cq73RnVGNk48yBkZOdj4a6TLntdWvkEeoQESJsIIcBmjdFnT4E7rlq0SYsLxsaRjeli1618zOvVu5lIzSlo+U8Bqq4onZpcI5X4o/r7Td9lYdPxC+3iGB/bHfsWT5Z2O3QCFo0R6yGB1UlheG5AJz1KjPrhCG6ZGq+Qi6Ji8Ua/IfCxJU5THtSbc4GG622AUeenoUQ13v8X7jyBjFz3JlEhQll6mnS7LwRkrY2ebKF/jO2K6TFBsDBj0ImDqFIliLW0lPBu+HDISAT7WC9UaiW0/DRwzfd6QyViI6jrC/rvCe/vw8U7le3OvH2D8vQFcqtlISABfOLEA8W4XtW+HMiY1BPDuvqh2mLBoJMHYbaLEo4Q9AsKxo7kMYgKCGx8zWZw3Tk9TKoaI3HDHpTXmjwCL43L09NEH+kEBgK4eO2eGSnfFjvfqwAyp/VCdLAPSurrMOI/R+yrPO0C6GL0xT+TRmFEWLjetrbBgj7pX+ixviNWsX6BdDPZElkZgC6zv7uNs+VtZ8NAQPbsaIT6Ksi+X4nJP7mOEq4A+SsK8lKmixZEl7Vya/Xc4sJDcPaV2dLxlI1AdwB35InooJI6iayNJiLu4pxoGBXC4dLbWHjB7aKZU2Rr4gfg+dgEvHPsAtYf9VyGH1k6BcOju8r4o5okJjNLXJLiFF48XYa9BTXo4W/A2ZlRegnok4I8rLuW4/l0OeghTosmzdR1TJe1O0SLuT1uTFgQzq/Qb5f1RBTQWk4nARCNodSrDH/ZOwD+eiUbHxfdcNuJOw2fj4nHmoRB+PS/V/DqPvdW1WhQUPzGUzAoOi696OXoQiPP1gNYKanxmawfcahM311et6JJM6BYy7PF92qx65dfsePn68i/W90mQPQKDcS5FXPgo+iqdD0RrZUfrupC9RbW/GKOOdYk3mBTPEmEGUNjFUqrAlxVvRkHcgvw2U/XsPaxRzA+rqfN5Woi2mD744qAdtfcQINO6sfC6+anKLiRMh2lNdewK+dZKGRA96BEJPeYi9jO4+BrsOaNZs8S40cTkdTpm8wVAS5rMCHp1CGvg5cBR4R2RsbICcgs3Iqfi3c6POqd/COxIHknCFRGRN0cAXG5AnWqSvHfS8nf+5bebzAWRcdhe1YaKuubLlhtHKUl70Bn/2j3qxK2EZi5RtJA5NEM76MHcGbc73R5seVMCpidZ+M/DHwfkSF60cyHiJoTlBWVqxUQjZsqeueuuX2N5CnLotQZkM9hW35s9Rmt1UDPDP0Swb767lEcfT9zRWAigOPbim5g5ZVsT/G5bG8gQmHqDNw3leDz8/NctCW8OFpXryYiknJnG2vvA4eeI3t5eRslBAbjxNhUnL+9B6fytzglMDH2ZQzpMUvebySiVR0hILeNZZ8W5mHtVe/ICAGxPDYBf4kfgN0Xl+JO9SWHBBLCU/D7hDfknRwQ2f8O9UZ7KyDv5eDQ+MyjuFEn5/rBTG5TBSnTZUND1RqQceU1FN1vLv37+4RgakI6eoU+YnOUSERyYXZoLglID2aW7zwnhf7AEwdxz/JgBzprwmR08/WToV8HIFPcqIjBEu/tQYqu709ELqsN7RKwkvgbgLVCIuX0MVytdVytdrU2knnP/eZxhBl9pdlHRLSEmcX/EqvuirTWZOTyvIqInNf17Ry5RcBKQgTeavm9p7gAyy+dd/tGNi8iGpsHDrW5/ZiIFj/YRmzu7TYBKwkJ2pIf9H6HSkvw5rVc3KyraUMm3OiLZTHxWNq7LyRsWu0JInL9zcpDZh4RsJIQPfuJVELsfWlSZmeGAaQf0Fa2F8CTRNS2fOEh4NbNPSZgG8C6f6fI2ZDLBQD7RCOlGsl+InvlA13Hbu5ukPs/GxqH3VUVUrQAAAAASUVORK5CYII=;labelPosition=center;align=center;fontStyle=1;fontSize=13;" parent="ItdWZb3pQPPJKnLkRFLI-2" vertex="1">
          <mxGeometry x="-25.99764705882353" y="1.0035294117648164" width="48" height="48" as="geometry" />
        </mxCell>
        <mxCell id="ItdWZb3pQPPJKnLkRFLI-8" value="Prompt Engineering" style="swimlane;whiteSpace=wrap;html=1;fontSize=20;" parent="ItdWZb3pQPPJKnLkRFLI-1" vertex="1">
          <mxGeometry x="10" y="180" width="340" height="220" as="geometry" />
        </mxCell>
        <mxCell id="ItdWZb3pQPPJKnLkRFLI-9" value="Prompt Manager" style="rounded=0;whiteSpace=wrap;html=1;fontSize=15;fontStyle=1" parent="ItdWZb3pQPPJKnLkRFLI-8" vertex="1">
          <mxGeometry x="120" y="146.5" width="160" height="60" as="geometry" />
        </mxCell>
        <mxCell id="ItdWZb3pQPPJKnLkRFLI-10" value="Curated Templates" style="edgeStyle=orthogonalEdgeStyle;rounded=0;orthogonalLoop=1;jettySize=auto;html=1;fontSize=13;" parent="ItdWZb3pQPPJKnLkRFLI-8" source="ItdWZb3pQPPJKnLkRFLI-11" target="ItdWZb3pQPPJKnLkRFLI-9" edge="1">
          <mxGeometry relative="1" as="geometry" />
        </mxCell>
        <mxCell id="ItdWZb3pQPPJKnLkRFLI-11" value="Prompt Template&lt;br style=&quot;border-color: var(--border-color);&quot;&gt;Collections" style="rounded=0;whiteSpace=wrap;html=1;fontSize=15;fontStyle=1" parent="ItdWZb3pQPPJKnLkRFLI-8" vertex="1">
          <mxGeometry x="120" y="30.5" width="160" height="60" as="geometry" />
        </mxCell>
        <mxCell id="ItdWZb3pQPPJKnLkRFLI-12" value="REVIEW" style="rounded=1;whiteSpace=wrap;html=1;fillColor=#fad7ac;strokeColor=#b46504;" parent="ItdWZb3pQPPJKnLkRFLI-8" vertex="1">
          <mxGeometry x="10" y="57" width="100" height="30" as="geometry" />
        </mxCell>
        <mxCell id="ItdWZb3pQPPJKnLkRFLI-13" value="EVALUATION" style="rounded=1;whiteSpace=wrap;html=1;fillColor=#fad9d5;strokeColor=#ae4132;" parent="ItdWZb3pQPPJKnLkRFLI-8" vertex="1">
          <mxGeometry x="10" y="95" width="100" height="30" as="geometry" />
        </mxCell>
        <mxCell id="ItdWZb3pQPPJKnLkRFLI-14" value="FEEDBACK" style="rounded=1;whiteSpace=wrap;html=1;fillColor=#fff2cc;gradientColor=#ffd966;strokeColor=#d6b656;" parent="ItdWZb3pQPPJKnLkRFLI-8" vertex="1">
          <mxGeometry x="10" y="133" width="100" height="30" as="geometry" />
        </mxCell>
        <mxCell id="ItdWZb3pQPPJKnLkRFLI-15" value="" style="dashed=0;outlineConnect=0;html=1;align=center;labelPosition=center;verticalLabelPosition=bottom;verticalAlign=top;shape=mxgraph.weblogos.json" parent="ItdWZb3pQPPJKnLkRFLI-8" vertex="1">
          <mxGeometry x="283" y="38.5" width="43" height="48.5" as="geometry" />
        </mxCell>
        <mxCell id="ItdWZb3pQPPJKnLkRFLI-16" value="Invalid Task&lt;br style=&quot;font-size: 13px;&quot;&gt;Response&lt;br style=&quot;font-size: 13px;&quot;&gt;NO WORKFLOW" style="edgeStyle=orthogonalEdgeStyle;rounded=0;orthogonalLoop=1;jettySize=auto;html=1;entryX=0.75;entryY=1;entryDx=0;entryDy=0;exitX=0.25;exitY=0;exitDx=0;exitDy=0;curved=1;fontStyle=1;fontSize=13;" parent="ItdWZb3pQPPJKnLkRFLI-1" source="ItdWZb3pQPPJKnLkRFLI-18" target="ItdWZb3pQPPJKnLkRFLI-9" edge="1">
          <mxGeometry relative="1" as="geometry" />
        </mxCell>
        <mxCell id="ItdWZb3pQPPJKnLkRFLI-17" value="&lt;br style=&quot;font-size: 13px;&quot;&gt;Valid Task&lt;br style=&quot;font-size: 13px;&quot;&gt;Response" style="rounded=0;orthogonalLoop=1;jettySize=auto;html=1;exitX=0.75;exitY=0;exitDx=0;exitDy=0;fontStyle=1;fontSize=13;entryX=0.5;entryY=1;entryDx=0;entryDy=0;" parent="ItdWZb3pQPPJKnLkRFLI-1" source="ItdWZb3pQPPJKnLkRFLI-18" target="ItdWZb3pQPPJKnLkRFLI-67" edge="1">
          <mxGeometry relative="1" as="geometry" />
        </mxCell>
        <mxCell id="ItdWZb3pQPPJKnLkRFLI-18" value="Validate Responses" style="swimlane;whiteSpace=wrap;html=1;fontSize=20;fillColor=#e51400;fontColor=#ffffff;strokeColor=#B20000;" parent="ItdWZb3pQPPJKnLkRFLI-1" vertex="1">
          <mxGeometry x="290" y="510" width="220" height="160" as="geometry" />
        </mxCell>
        <mxCell id="ItdWZb3pQPPJKnLkRFLI-19" style="edgeStyle=orthogonalEdgeStyle;rounded=0;orthogonalLoop=1;jettySize=auto;html=1;exitX=0.5;exitY=1;exitDx=0;exitDy=0;" parent="ItdWZb3pQPPJKnLkRFLI-18" source="ItdWZb3pQPPJKnLkRFLI-20" target="ItdWZb3pQPPJKnLkRFLI-21" edge="1">
          <mxGeometry relative="1" as="geometry" />
        </mxCell>
        <mxCell id="ItdWZb3pQPPJKnLkRFLI-20" value="Response Manager" style="rounded=0;whiteSpace=wrap;html=1;fontSize=15;fontStyle=1" parent="ItdWZb3pQPPJKnLkRFLI-18" vertex="1">
          <mxGeometry x="30" y="36" width="160" height="34" as="geometry" />
        </mxCell>
        <mxCell id="ItdWZb3pQPPJKnLkRFLI-21" value="Log Responses &lt;br&gt;and Costs" style="rounded=0;whiteSpace=wrap;html=1;fillColor=#f5f5f5;strokeColor=#666666;fontColor=#333333;fontStyle=1" parent="ItdWZb3pQPPJKnLkRFLI-18" vertex="1">
          <mxGeometry x="50" y="90" width="120" height="40" as="geometry" />
        </mxCell>
        <mxCell id="ItdWZb3pQPPJKnLkRFLI-22" value="LLM Response" style="edgeStyle=orthogonalEdgeStyle;rounded=0;orthogonalLoop=1;jettySize=auto;html=1;entryX=0.5;entryY=1;entryDx=0;entryDy=0;fontSize=13;fontStyle=1;exitX=0.5;exitY=0;exitDx=0;exitDy=0;" parent="ItdWZb3pQPPJKnLkRFLI-1" source="ItdWZb3pQPPJKnLkRFLI-84" target="ItdWZb3pQPPJKnLkRFLI-18" edge="1">
          <mxGeometry relative="1" as="geometry">
            <mxPoint x="400" y="765" as="sourcePoint" />
          </mxGeometry>
        </mxCell>
        <mxCell id="ItdWZb3pQPPJKnLkRFLI-23" value="API deployment" style="edgeStyle=orthogonalEdgeStyle;rounded=0;orthogonalLoop=1;jettySize=auto;html=1;entryX=0.5;entryY=1;entryDx=0;entryDy=0;fontSize=14;fontStyle=1" parent="ItdWZb3pQPPJKnLkRFLI-1" source="ItdWZb3pQPPJKnLkRFLI-24" target="ItdWZb3pQPPJKnLkRFLI-84" edge="1">
          <mxGeometry relative="1" as="geometry" />
        </mxCell>
        <mxCell id="ItdWZb3pQPPJKnLkRFLI-24" value="LLM Models and Tasks" style="swimlane;whiteSpace=wrap;html=1;fontSize=20;align=left;spacingLeft=17;fillColor=#60a917;fontColor=#ffffff;strokeColor=#2D7600;" parent="ItdWZb3pQPPJKnLkRFLI-1" vertex="1">
          <mxGeometry x="15" y="843" width="760" height="450" as="geometry" />
        </mxCell>
        <mxCell id="ItdWZb3pQPPJKnLkRFLI-25" value="NLP" style="swimlane;fontStyle=1;childLayout=stackLayout;horizontal=1;startSize=26;fillColor=#dae8fc;horizontalStack=0;resizeParent=1;resizeParentMax=0;resizeLast=0;collapsible=1;marginBottom=0;html=1;strokeColor=#6c8ebf;" parent="ItdWZb3pQPPJKnLkRFLI-24" vertex="1">
          <mxGeometry x="10" y="30" width="160" height="182" as="geometry" />
        </mxCell>
        <mxCell id="ItdWZb3pQPPJKnLkRFLI-26" value="Question-Answering" style="text;strokeColor=#b46504;fillColor=#fad7ac;align=left;verticalAlign=top;spacingLeft=4;spacingRight=4;overflow=hidden;rotatable=0;points=[[0,0.5],[1,0.5]];portConstraint=eastwest;whiteSpace=wrap;html=1;" parent="ItdWZb3pQPPJKnLkRFLI-25" vertex="1">
          <mxGeometry y="26" width="160" height="26" as="geometry" />
        </mxCell>
        <mxCell id="ItdWZb3pQPPJKnLkRFLI-27" value="Text Summarization" style="text;strokeColor=#b46504;fillColor=#fad7ac;align=left;verticalAlign=top;spacingLeft=4;spacingRight=4;overflow=hidden;rotatable=0;points=[[0,0.5],[1,0.5]];portConstraint=eastwest;whiteSpace=wrap;html=1;" parent="ItdWZb3pQPPJKnLkRFLI-25" vertex="1">
          <mxGeometry y="52" width="160" height="26" as="geometry" />
        </mxCell>
        <mxCell id="ItdWZb3pQPPJKnLkRFLI-28" value="Translation" style="text;strokeColor=none;fillColor=none;align=left;verticalAlign=top;spacingLeft=4;spacingRight=4;overflow=hidden;rotatable=0;points=[[0,0.5],[1,0.5]];portConstraint=eastwest;whiteSpace=wrap;html=1;" parent="ItdWZb3pQPPJKnLkRFLI-25" vertex="1">
          <mxGeometry y="78" width="160" height="26" as="geometry" />
        </mxCell>
        <mxCell id="ItdWZb3pQPPJKnLkRFLI-29" value="Sentiment Analysis" style="text;strokeColor=none;fillColor=none;align=left;verticalAlign=top;spacingLeft=4;spacingRight=4;overflow=hidden;rotatable=0;points=[[0,0.5],[1,0.5]];portConstraint=eastwest;whiteSpace=wrap;html=1;" parent="ItdWZb3pQPPJKnLkRFLI-25" vertex="1">
          <mxGeometry y="104" width="160" height="26" as="geometry" />
        </mxCell>
        <mxCell id="ItdWZb3pQPPJKnLkRFLI-30" value="Named entity recognition" style="text;strokeColor=#b46504;fillColor=#fad7ac;align=left;verticalAlign=top;spacingLeft=4;spacingRight=4;overflow=hidden;rotatable=0;points=[[0,0.5],[1,0.5]];portConstraint=eastwest;whiteSpace=wrap;html=1;" parent="ItdWZb3pQPPJKnLkRFLI-25" vertex="1">
          <mxGeometry y="130" width="160" height="26" as="geometry" />
        </mxCell>
        <mxCell id="ItdWZb3pQPPJKnLkRFLI-31" value="Chatbot functionality" style="text;strokeColor=none;fillColor=none;align=left;verticalAlign=top;spacingLeft=4;spacingRight=4;overflow=hidden;rotatable=0;points=[[0,0.5],[1,0.5]];portConstraint=eastwest;whiteSpace=wrap;html=1;" parent="ItdWZb3pQPPJKnLkRFLI-25" vertex="1">
          <mxGeometry y="156" width="160" height="26" as="geometry" />
        </mxCell>
        <mxCell id="ItdWZb3pQPPJKnLkRFLI-32" value="Content Creation" style="swimlane;fontStyle=1;childLayout=stackLayout;horizontal=1;startSize=26;fillColor=#dae8fc;horizontalStack=0;resizeParent=1;resizeParentMax=0;resizeLast=0;collapsible=1;marginBottom=0;html=1;strokeColor=#6c8ebf;" parent="ItdWZb3pQPPJKnLkRFLI-24" vertex="1">
          <mxGeometry x="10" y="330" width="230" height="104" as="geometry" />
        </mxCell>
        <mxCell id="ItdWZb3pQPPJKnLkRFLI-33" value="Writiing articles, essays, or reports" style="text;strokeColor=none;fillColor=none;align=left;verticalAlign=top;spacingLeft=4;spacingRight=4;overflow=hidden;rotatable=0;points=[[0,0.5],[1,0.5]];portConstraint=eastwest;whiteSpace=wrap;html=1;" parent="ItdWZb3pQPPJKnLkRFLI-32" vertex="1">
          <mxGeometry y="26" width="230" height="26" as="geometry" />
        </mxCell>
        <mxCell id="ItdWZb3pQPPJKnLkRFLI-34" value="Creating poetry or stories" style="text;strokeColor=none;fillColor=none;align=left;verticalAlign=top;spacingLeft=4;spacingRight=4;overflow=hidden;rotatable=0;points=[[0,0.5],[1,0.5]];portConstraint=eastwest;whiteSpace=wrap;html=1;" parent="ItdWZb3pQPPJKnLkRFLI-32" vertex="1">
          <mxGeometry y="52" width="230" height="26" as="geometry" />
        </mxCell>
        <mxCell id="ItdWZb3pQPPJKnLkRFLI-35" value="Generating creative content or prompts" style="text;strokeColor=none;fillColor=none;align=left;verticalAlign=top;spacingLeft=4;spacingRight=4;overflow=hidden;rotatable=0;points=[[0,0.5],[1,0.5]];portConstraint=eastwest;whiteSpace=wrap;html=1;" parent="ItdWZb3pQPPJKnLkRFLI-32" vertex="1">
          <mxGeometry y="78" width="230" height="26" as="geometry" />
        </mxCell>
        <mxCell id="ItdWZb3pQPPJKnLkRFLI-36" value="Education" style="swimlane;fontStyle=1;childLayout=stackLayout;horizontal=1;startSize=26;fillColor=#dae8fc;horizontalStack=0;resizeParent=1;resizeParentMax=0;resizeLast=0;collapsible=1;marginBottom=0;html=1;strokeColor=#6c8ebf;" parent="ItdWZb3pQPPJKnLkRFLI-24" vertex="1">
          <mxGeometry x="180" y="114" width="260" height="104" as="geometry" />
        </mxCell>
        <mxCell id="ItdWZb3pQPPJKnLkRFLI-37" value="Tutoring in various subjects" style="text;strokeColor=none;fillColor=none;align=left;verticalAlign=top;spacingLeft=4;spacingRight=4;overflow=hidden;rotatable=0;points=[[0,0.5],[1,0.5]];portConstraint=eastwest;whiteSpace=wrap;html=1;" parent="ItdWZb3pQPPJKnLkRFLI-36" vertex="1">
          <mxGeometry y="26" width="260" height="26" as="geometry" />
        </mxCell>
        <mxCell id="ItdWZb3pQPPJKnLkRFLI-38" value="Providing explanations for complex concepts" style="text;strokeColor=#d79b00;fillColor=#ffe6cc;align=left;verticalAlign=top;spacingLeft=4;spacingRight=4;overflow=hidden;rotatable=0;points=[[0,0.5],[1,0.5]];portConstraint=eastwest;whiteSpace=wrap;html=1;" parent="ItdWZb3pQPPJKnLkRFLI-36" vertex="1">
          <mxGeometry y="52" width="260" height="26" as="geometry" />
        </mxCell>
        <mxCell id="ItdWZb3pQPPJKnLkRFLI-39" value="Assisting with homework or assignments" style="text;strokeColor=none;fillColor=none;align=left;verticalAlign=top;spacingLeft=4;spacingRight=4;overflow=hidden;rotatable=0;points=[[0,0.5],[1,0.5]];portConstraint=eastwest;whiteSpace=wrap;html=1;" parent="ItdWZb3pQPPJKnLkRFLI-36" vertex="1">
          <mxGeometry y="78" width="260" height="26" as="geometry" />
        </mxCell>
        <mxCell id="ItdWZb3pQPPJKnLkRFLI-40" value="Programming" style="swimlane;fontStyle=1;childLayout=stackLayout;horizontal=1;startSize=26;fillColor=#dae8fc;horizontalStack=0;resizeParent=1;resizeParentMax=0;resizeLast=0;collapsible=1;marginBottom=0;html=1;strokeColor=#6c8ebf;" parent="ItdWZb3pQPPJKnLkRFLI-24" vertex="1">
          <mxGeometry x="180" y="30" width="260" height="78" as="geometry" />
        </mxCell>
        <mxCell id="ItdWZb3pQPPJKnLkRFLI-41" value="Writing, debugging, or explaining code" style="text;strokeColor=#b46504;fillColor=#fad7ac;align=left;verticalAlign=top;spacingLeft=4;spacingRight=4;overflow=hidden;rotatable=0;points=[[0,0.5],[1,0.5]];portConstraint=eastwest;whiteSpace=wrap;html=1;" parent="ItdWZb3pQPPJKnLkRFLI-40" vertex="1">
          <mxGeometry y="26" width="260" height="26" as="geometry" />
        </mxCell>
        <mxCell id="ItdWZb3pQPPJKnLkRFLI-42" value="Performing code-related tasks or calculations" style="text;strokeColor=#b46504;fillColor=#fad7ac;align=left;verticalAlign=top;spacingLeft=4;spacingRight=4;overflow=hidden;rotatable=0;points=[[0,0.5],[1,0.5]];portConstraint=eastwest;whiteSpace=wrap;html=1;" parent="ItdWZb3pQPPJKnLkRFLI-40" vertex="1">
          <mxGeometry y="52" width="260" height="26" as="geometry" />
        </mxCell>
        <mxCell id="ItdWZb3pQPPJKnLkRFLI-43" value="Research Assistance" style="swimlane;fontStyle=1;childLayout=stackLayout;horizontal=1;startSize=26;fillColor=#dae8fc;horizontalStack=0;resizeParent=1;resizeParentMax=0;resizeLast=0;collapsible=1;marginBottom=0;html=1;strokeColor=#6c8ebf;" parent="ItdWZb3pQPPJKnLkRFLI-24" vertex="1">
          <mxGeometry x="450" y="30" width="300" height="78" as="geometry" />
        </mxCell>
        <mxCell id="ItdWZb3pQPPJKnLkRFLI-44" value="Summarizing research papers or articles" style="text;fillColor=none;align=left;verticalAlign=top;spacingLeft=4;spacingRight=4;overflow=hidden;rotatable=0;points=[[0,0.5],[1,0.5]];portConstraint=eastwest;whiteSpace=wrap;html=1;" parent="ItdWZb3pQPPJKnLkRFLI-43" vertex="1">
          <mxGeometry y="26" width="300" height="26" as="geometry" />
        </mxCell>
        <mxCell id="ItdWZb3pQPPJKnLkRFLI-45" value="Providing insights or explanations on specific topics" style="text;strokeColor=#b46504;fillColor=#fad7ac;align=left;verticalAlign=top;spacingLeft=4;spacingRight=4;overflow=hidden;rotatable=0;points=[[0,0.5],[1,0.5]];portConstraint=eastwest;whiteSpace=wrap;html=1;" parent="ItdWZb3pQPPJKnLkRFLI-43" vertex="1">
          <mxGeometry y="52" width="300" height="26" as="geometry" />
        </mxCell>
        <mxCell id="ItdWZb3pQPPJKnLkRFLI-46" value="Business Applications" style="swimlane;fontStyle=1;childLayout=stackLayout;horizontal=1;startSize=26;fillColor=#dae8fc;horizontalStack=0;resizeParent=1;resizeParentMax=0;resizeLast=0;collapsible=1;marginBottom=0;html=1;strokeColor=#6c8ebf;" parent="ItdWZb3pQPPJKnLkRFLI-24" vertex="1">
          <mxGeometry x="450" y="114" width="300" height="104" as="geometry" />
        </mxCell>
        <mxCell id="ItdWZb3pQPPJKnLkRFLI-47" value="Drafting emails or business communications" style="text;strokeColor=none;fillColor=none;align=left;verticalAlign=top;spacingLeft=4;spacingRight=4;overflow=hidden;rotatable=0;points=[[0,0.5],[1,0.5]];portConstraint=eastwest;whiteSpace=wrap;html=1;" parent="ItdWZb3pQPPJKnLkRFLI-46" vertex="1">
          <mxGeometry y="26" width="300" height="26" as="geometry" />
        </mxCell>
        <mxCell id="ItdWZb3pQPPJKnLkRFLI-48" value="Assisting with data analysis or visualization" style="text;fillColor=none;align=left;verticalAlign=top;spacingLeft=4;spacingRight=4;overflow=hidden;rotatable=0;points=[[0,0.5],[1,0.5]];portConstraint=eastwest;whiteSpace=wrap;html=1;" parent="ItdWZb3pQPPJKnLkRFLI-46" vertex="1">
          <mxGeometry y="52" width="300" height="26" as="geometry" />
        </mxCell>
        <mxCell id="ItdWZb3pQPPJKnLkRFLI-49" value="Automating repetitive tasks" style="text;strokeColor=none;fillColor=none;align=left;verticalAlign=top;spacingLeft=4;spacingRight=4;overflow=hidden;rotatable=0;points=[[0,0.5],[1,0.5]];portConstraint=eastwest;whiteSpace=wrap;html=1;" parent="ItdWZb3pQPPJKnLkRFLI-46" vertex="1">
          <mxGeometry y="78" width="300" height="26" as="geometry" />
        </mxCell>
        <mxCell id="ItdWZb3pQPPJKnLkRFLI-50" value="General Knowledge Queries" style="swimlane;fontStyle=1;childLayout=stackLayout;horizontal=1;startSize=26;fillColor=#dae8fc;horizontalStack=0;resizeParent=1;resizeParentMax=0;resizeLast=0;collapsible=1;marginBottom=0;html=1;strokeColor=#6c8ebf;" parent="ItdWZb3pQPPJKnLkRFLI-24" vertex="1">
          <mxGeometry x="10" y="240" width="280" height="78" as="geometry" />
        </mxCell>
        <mxCell id="ItdWZb3pQPPJKnLkRFLI-51" value="Providing information on a wide range of topics" style="text;strokeColor=none;fillColor=none;align=left;verticalAlign=top;spacingLeft=4;spacingRight=4;overflow=hidden;rotatable=0;points=[[0,0.5],[1,0.5]];portConstraint=eastwest;whiteSpace=wrap;html=1;" parent="ItdWZb3pQPPJKnLkRFLI-50" vertex="1">
          <mxGeometry y="26" width="280" height="26" as="geometry" />
        </mxCell>
        <mxCell id="ItdWZb3pQPPJKnLkRFLI-52" value="Offering historical or factual data" style="text;strokeColor=none;fillColor=none;align=left;verticalAlign=top;spacingLeft=4;spacingRight=4;overflow=hidden;rotatable=0;points=[[0,0.5],[1,0.5]];portConstraint=eastwest;whiteSpace=wrap;html=1;" parent="ItdWZb3pQPPJKnLkRFLI-50" vertex="1">
          <mxGeometry y="52" width="280" height="26" as="geometry" />
        </mxCell>
        <mxCell id="ItdWZb3pQPPJKnLkRFLI-53" value="Simulations and Scenarios" style="swimlane;fontStyle=1;childLayout=stackLayout;horizontal=1;startSize=26;fillColor=#dae8fc;horizontalStack=0;resizeParent=1;resizeParentMax=0;resizeLast=0;collapsible=1;marginBottom=0;html=1;strokeColor=#6c8ebf;" parent="ItdWZb3pQPPJKnLkRFLI-24" vertex="1">
          <mxGeometry x="300" y="240" width="280" height="78" as="geometry" />
        </mxCell>
        <mxCell id="ItdWZb3pQPPJKnLkRFLI-54" value="Simulating conversations or interactions" style="text;strokeColor=none;fillColor=none;align=left;verticalAlign=top;spacingLeft=4;spacingRight=4;overflow=hidden;rotatable=0;points=[[0,0.5],[1,0.5]];portConstraint=eastwest;whiteSpace=wrap;html=1;" parent="ItdWZb3pQPPJKnLkRFLI-53" vertex="1">
          <mxGeometry y="26" width="280" height="26" as="geometry" />
        </mxCell>
        <mxCell id="ItdWZb3pQPPJKnLkRFLI-55" value="Role-playing specific characters or personalities" style="text;strokeColor=none;fillColor=none;align=left;verticalAlign=top;spacingLeft=4;spacingRight=4;overflow=hidden;rotatable=0;points=[[0,0.5],[1,0.5]];portConstraint=eastwest;whiteSpace=wrap;html=1;" parent="ItdWZb3pQPPJKnLkRFLI-53" vertex="1">
          <mxGeometry y="52" width="280" height="26" as="geometry" />
        </mxCell>
        <mxCell id="ItdWZb3pQPPJKnLkRFLI-56" value="Entertainment" style="swimlane;fontStyle=1;childLayout=stackLayout;horizontal=1;startSize=26;fillColor=#dae8fc;horizontalStack=0;resizeParent=1;resizeParentMax=0;resizeLast=0;collapsible=1;marginBottom=0;html=1;strokeColor=#6c8ebf;" parent="ItdWZb3pQPPJKnLkRFLI-24" vertex="1">
          <mxGeometry x="250" y="330" width="230" height="104" as="geometry" />
        </mxCell>
        <mxCell id="ItdWZb3pQPPJKnLkRFLI-57" value="Playing text-based games" style="text;strokeColor=none;fillColor=none;align=left;verticalAlign=top;spacingLeft=4;spacingRight=4;overflow=hidden;rotatable=0;points=[[0,0.5],[1,0.5]];portConstraint=eastwest;whiteSpace=wrap;html=1;" parent="ItdWZb3pQPPJKnLkRFLI-56" vertex="1">
          <mxGeometry y="26" width="230" height="26" as="geometry" />
        </mxCell>
        <mxCell id="ItdWZb3pQPPJKnLkRFLI-58" value="Role-playing scenarios" style="text;strokeColor=none;fillColor=none;align=left;verticalAlign=top;spacingLeft=4;spacingRight=4;overflow=hidden;rotatable=0;points=[[0,0.5],[1,0.5]];portConstraint=eastwest;whiteSpace=wrap;html=1;" parent="ItdWZb3pQPPJKnLkRFLI-56" vertex="1">
          <mxGeometry y="52" width="230" height="26" as="geometry" />
        </mxCell>
        <mxCell id="ItdWZb3pQPPJKnLkRFLI-59" value="Generating jokes or trivia" style="text;strokeColor=none;fillColor=none;align=left;verticalAlign=top;spacingLeft=4;spacingRight=4;overflow=hidden;rotatable=0;points=[[0,0.5],[1,0.5]];portConstraint=eastwest;whiteSpace=wrap;html=1;" parent="ItdWZb3pQPPJKnLkRFLI-56" vertex="1">
          <mxGeometry y="78" width="230" height="26" as="geometry" />
        </mxCell>
        <mxCell id="ItdWZb3pQPPJKnLkRFLI-62" value="User&lt;br style=&quot;font-size: 15px;&quot;&gt;Task" style="edgeStyle=orthogonalEdgeStyle;rounded=0;orthogonalLoop=1;jettySize=auto;html=1;fontStyle=1;fontSize=15;entryX=0.241;entryY=-0.004;entryDx=0;entryDy=0;entryPerimeter=0;" parent="ItdWZb3pQPPJKnLkRFLI-1" source="ItdWZb3pQPPJKnLkRFLI-9" target="ItdWZb3pQPPJKnLkRFLI-84" edge="1">
          <mxGeometry relative="1" as="geometry">
            <mxPoint x="202" y="740" as="targetPoint" />
          </mxGeometry>
        </mxCell>
        <mxCell id="ItdWZb3pQPPJKnLkRFLI-63" value="" style="edgeStyle=orthogonalEdgeStyle;rounded=0;orthogonalLoop=1;jettySize=auto;html=1;curved=1;fontSize=12;fontStyle=1;exitX=0;exitY=0.5;exitDx=0;exitDy=0;" parent="ItdWZb3pQPPJKnLkRFLI-1" source="ItdWZb3pQPPJKnLkRFLI-64" target="ItdWZb3pQPPJKnLkRFLI-8" edge="1">
          <mxGeometry relative="1" as="geometry">
            <mxPoint x="200" y="110" as="sourcePoint" />
          </mxGeometry>
        </mxCell>
        <mxCell id="ItdWZb3pQPPJKnLkRFLI-64" value="Single Task" style="swimlane;whiteSpace=wrap;html=1;fontSize=20;" parent="ItdWZb3pQPPJKnLkRFLI-1" vertex="1">
          <mxGeometry x="310" y="40" width="210" height="120" as="geometry" />
        </mxCell>
        <mxCell id="ItdWZb3pQPPJKnLkRFLI-65" value="Primary Focus&lt;br style=&quot;border-color: var(--border-color); font-size: 12px;&quot;&gt;&lt;span style=&quot;border-color: var(--border-color); font-size: 12px; background-color: rgb(255, 255, 255);&quot;&gt;Context Information&lt;/span&gt;" style="rounded=0;whiteSpace=wrap;html=1;fontSize=15;fontStyle=1" parent="ItdWZb3pQPPJKnLkRFLI-64" vertex="1">
          <mxGeometry x="25" y="40" width="160" height="60" as="geometry" />
        </mxCell>
        <mxCell id="ItdWZb3pQPPJKnLkRFLI-66" value="Store Prompt and&lt;br style=&quot;font-size: 12px;&quot;&gt;Response" style="rounded=0;orthogonalLoop=1;jettySize=auto;html=1;fontSize=12;fontStyle=1;entryX=0.5;entryY=1;entryDx=0;entryDy=0;" parent="ItdWZb3pQPPJKnLkRFLI-1" source="ItdWZb3pQPPJKnLkRFLI-67" target="ItdWZb3pQPPJKnLkRFLI-3" edge="1">
          <mxGeometry x="-0.3333" relative="1" as="geometry">
            <mxPoint x="570" y="290" as="targetPoint" />
            <mxPoint as="offset" />
          </mxGeometry>
        </mxCell>
        <mxCell id="ItdWZb3pQPPJKnLkRFLI-67" value="Human Edited&lt;br&gt;Response" style="rounded=0;whiteSpace=wrap;html=1;fontSize=15;fontStyle=1;fillColor=#d5e8d4;strokeColor=#82b366;" parent="ItdWZb3pQPPJKnLkRFLI-1" vertex="1">
          <mxGeometry x="461" y="388" width="135" height="40" as="geometry" />
        </mxCell>
        <mxCell id="ItdWZb3pQPPJKnLkRFLI-68" value="BENEFIT / RISK MANAGEMENT APPROACH" style="edgeStyle=orthogonalEdgeStyle;rounded=0;orthogonalLoop=1;jettySize=auto;html=1;entryX=0.5;entryY=1;entryDx=0;entryDy=0;fontSize=14;fontStyle=1" parent="ItdWZb3pQPPJKnLkRFLI-1" source="ItdWZb3pQPPJKnLkRFLI-69" target="ItdWZb3pQPPJKnLkRFLI-24" edge="1">
          <mxGeometry relative="1" as="geometry" />
        </mxCell>
        <mxCell id="ItdWZb3pQPPJKnLkRFLI-69" value="RISKS / GUARDRAILS Of Generative Pre-trained TRANSFORMER" style="swimlane;whiteSpace=wrap;html=1;fillColor=#d5e8d4;strokeColor=#82b366;fontSize=15;" parent="ItdWZb3pQPPJKnLkRFLI-1" vertex="1">
          <mxGeometry x="13" y="1377" width="760" height="210" as="geometry" />
        </mxCell>
        <mxCell id="ItdWZb3pQPPJKnLkRFLI-70" value="" style="edgeStyle=orthogonalEdgeStyle;rounded=0;orthogonalLoop=1;jettySize=auto;html=1;" parent="ItdWZb3pQPPJKnLkRFLI-69" source="ItdWZb3pQPPJKnLkRFLI-71" target="ItdWZb3pQPPJKnLkRFLI-73" edge="1">
          <mxGeometry relative="1" as="geometry" />
        </mxCell>
        <mxCell id="ItdWZb3pQPPJKnLkRFLI-71" value="Legislation" style="whiteSpace=wrap;html=1;aspect=fixed;" parent="ItdWZb3pQPPJKnLkRFLI-69" vertex="1">
          <mxGeometry x="390" y="50" width="80" height="80" as="geometry" />
        </mxCell>
        <mxCell id="ItdWZb3pQPPJKnLkRFLI-72" value="" style="edgeStyle=orthogonalEdgeStyle;rounded=0;orthogonalLoop=1;jettySize=auto;html=1;" parent="ItdWZb3pQPPJKnLkRFLI-69" source="ItdWZb3pQPPJKnLkRFLI-73" target="ItdWZb3pQPPJKnLkRFLI-82" edge="1">
          <mxGeometry relative="1" as="geometry" />
        </mxCell>
        <mxCell id="ItdWZb3pQPPJKnLkRFLI-73" value="Regulatory Compliance" style="whiteSpace=wrap;html=1;aspect=fixed;" parent="ItdWZb3pQPPJKnLkRFLI-69" vertex="1">
          <mxGeometry x="510" y="50" width="80" height="80" as="geometry" />
        </mxCell>
        <mxCell id="ItdWZb3pQPPJKnLkRFLI-74" style="edgeStyle=orthogonalEdgeStyle;rounded=0;orthogonalLoop=1;jettySize=auto;html=1;" parent="ItdWZb3pQPPJKnLkRFLI-69" source="ItdWZb3pQPPJKnLkRFLI-75" target="ItdWZb3pQPPJKnLkRFLI-79" edge="1">
          <mxGeometry relative="1" as="geometry" />
        </mxCell>
        <mxCell id="ItdWZb3pQPPJKnLkRFLI-75" value="Open&lt;br&gt;LLMs" style="ellipse;whiteSpace=wrap;html=1;" parent="ItdWZb3pQPPJKnLkRFLI-69" vertex="1">
          <mxGeometry x="13" y="30" width="90" height="60" as="geometry" />
        </mxCell>
        <mxCell id="ItdWZb3pQPPJKnLkRFLI-76" style="edgeStyle=orthogonalEdgeStyle;rounded=0;orthogonalLoop=1;jettySize=auto;html=1;" parent="ItdWZb3pQPPJKnLkRFLI-69" source="ItdWZb3pQPPJKnLkRFLI-77" target="ItdWZb3pQPPJKnLkRFLI-79" edge="1">
          <mxGeometry relative="1" as="geometry" />
        </mxCell>
        <mxCell id="ItdWZb3pQPPJKnLkRFLI-77" value="CLOSED&lt;br&gt;&amp;nbsp;LLMs" style="ellipse;whiteSpace=wrap;html=1;" parent="ItdWZb3pQPPJKnLkRFLI-69" vertex="1">
          <mxGeometry x="13" y="100" width="90" height="60" as="geometry" />
        </mxCell>
        <mxCell id="ItdWZb3pQPPJKnLkRFLI-78" value="" style="edgeStyle=orthogonalEdgeStyle;rounded=0;orthogonalLoop=1;jettySize=auto;html=1;" parent="ItdWZb3pQPPJKnLkRFLI-69" source="ItdWZb3pQPPJKnLkRFLI-79" target="ItdWZb3pQPPJKnLkRFLI-81" edge="1">
          <mxGeometry relative="1" as="geometry" />
        </mxCell>
        <mxCell id="ItdWZb3pQPPJKnLkRFLI-79" value="Security" style="whiteSpace=wrap;html=1;aspect=fixed;" parent="ItdWZb3pQPPJKnLkRFLI-69" vertex="1">
          <mxGeometry x="160" y="50" width="80" height="80" as="geometry" />
        </mxCell>
        <mxCell id="ItdWZb3pQPPJKnLkRFLI-80" value="" style="edgeStyle=orthogonalEdgeStyle;rounded=0;orthogonalLoop=1;jettySize=auto;html=1;" parent="ItdWZb3pQPPJKnLkRFLI-69" source="ItdWZb3pQPPJKnLkRFLI-81" target="ItdWZb3pQPPJKnLkRFLI-71" edge="1">
          <mxGeometry relative="1" as="geometry" />
        </mxCell>
        <mxCell id="ItdWZb3pQPPJKnLkRFLI-81" value="Data Protection" style="whiteSpace=wrap;html=1;aspect=fixed;" parent="ItdWZb3pQPPJKnLkRFLI-69" vertex="1">
          <mxGeometry x="270" y="50" width="80" height="80" as="geometry" />
        </mxCell>
        <mxCell id="ItdWZb3pQPPJKnLkRFLI-82" value="Develop AI Software or devices that are compliant." style="shape=process;whiteSpace=wrap;html=1;backgroundOutline=1;" parent="ItdWZb3pQPPJKnLkRFLI-69" vertex="1">
          <mxGeometry x="620" y="60" width="120" height="60" as="geometry" />
        </mxCell>
        <mxCell id="ItdWZb3pQPPJKnLkRFLI-83" value="GUARDRAILS DURING TRAINING | Data Filtering | Training Objectives | Fine-Tuning" style="rounded=1;arcSize=10;dashed=1;strokeColor=#ff0000;fillColor=none;gradientColor=none;dashPattern=8 4;strokeWidth=2;fontStyle=1" parent="ItdWZb3pQPPJKnLkRFLI-69" vertex="1">
          <mxGeometry x="125" y="150" width="610" height="39.5" as="geometry" />
        </mxCell>
        <mxCell id="ItdWZb3pQPPJKnLkRFLI-84" value="API MODELS IN USE" style="swimlane;whiteSpace=wrap;html=1;fillColor=#008a00;strokeColor=#005700;fontColor=#ffffff;" parent="ItdWZb3pQPPJKnLkRFLI-1" vertex="1">
          <mxGeometry x="20" y="727" width="755" height="65" as="geometry" />
        </mxCell>
        <mxCell id="ItdWZb3pQPPJKnLkRFLI-85" value="gpt-3.5-turbo" style="rounded=1;whiteSpace=wrap;html=1;fontStyle=0;fontSize=13;fillColor=#fff2cc;gradientColor=#ffd966;strokeColor=#d6b656;" parent="ItdWZb3pQPPJKnLkRFLI-84" vertex="1">
          <mxGeometry x="85" y="32" width="120" height="24" as="geometry" />
        </mxCell>
        <mxCell id="ItdWZb3pQPPJKnLkRFLI-86" value="gpt-3.5-turbo-16k" style="rounded=1;whiteSpace=wrap;html=1;fontStyle=1;fontSize=13;fillColor=#fff2cc;gradientColor=#ffd966;strokeColor=#d6b656;" parent="ItdWZb3pQPPJKnLkRFLI-84" vertex="1">
          <mxGeometry x="222" y="32" width="120" height="24" as="geometry" />
        </mxCell>
        <mxCell id="ItdWZb3pQPPJKnLkRFLI-87" value="gpt-4" style="rounded=1;whiteSpace=wrap;html=1;fontStyle=1;fontSize=13;fillColor=#fff2cc;gradientColor=#ffd966;strokeColor=#d6b656;" parent="ItdWZb3pQPPJKnLkRFLI-84" vertex="1">
          <mxGeometry x="366" y="32" width="120" height="24" as="geometry" />
        </mxCell>
        <mxCell id="ItdWZb3pQPPJKnLkRFLI-88" value="gpt-4-32k" style="rounded=1;whiteSpace=wrap;html=1;fontStyle=1;fontSize=13;fillColor=#fff2cc;gradientColor=#ffd966;strokeColor=#d6b656;" parent="ItdWZb3pQPPJKnLkRFLI-84" vertex="1">
          <mxGeometry x="500" y="32" width="120" height="24" as="geometry" />
        </mxCell>
        <mxCell id="f9fGz2h5eEANuruj3QtL-3" value="3" style="ellipse;whiteSpace=wrap;html=1;aspect=fixed;strokeWidth=2;fontFamily=Tahoma;spacingBottom=4;spacingRight=2;strokeColor=#d3d3d3;fillColor=#000000;fontColor=#ffffff;fontStyle=1;fontSize=14;" parent="ItdWZb3pQPPJKnLkRFLI-84" vertex="1">
          <mxGeometry x="279" y="-5" width="26" height="26" as="geometry" />
        </mxCell>
        <mxCell id="f9fGz2h5eEANuruj3QtL-2" value="2" style="ellipse;whiteSpace=wrap;html=1;aspect=fixed;strokeWidth=2;fontFamily=Tahoma;spacingBottom=4;spacingRight=2;strokeColor=#d3d3d3;fillColor=#000000;fontColor=#ffffff;fontStyle=1;fontSize=14;" parent="ItdWZb3pQPPJKnLkRFLI-1" vertex="1">
          <mxGeometry x="225" width="26" height="26" as="geometry" />
        </mxCell>
        <mxCell id="f9fGz2h5eEANuruj3QtL-4" value="4" style="ellipse;whiteSpace=wrap;html=1;aspect=fixed;strokeWidth=2;fontFamily=Tahoma;spacingBottom=4;spacingRight=2;strokeColor=#d3d3d3;fillColor=#000000;fontColor=#ffffff;fontStyle=1;fontSize=14;" parent="ItdWZb3pQPPJKnLkRFLI-1" vertex="1">
          <mxGeometry x="411" y="235" width="26" height="26" as="geometry" />
        </mxCell>
        <mxCell id="f9fGz2h5eEANuruj3QtL-6" value="" style="shape=image;verticalLabelPosition=bottom;labelBackgroundColor=default;verticalAlign=top;aspect=fixed;imageAspect=0;image=data:image/png,iVBORw0KGgoAAAANSUhEUgAAADAAAAAwCAYAAABXAvmHAAAACXBIWXMAAAsTAAALEwEAmpwYAAAEBUlEQVRoge2ZaWgTQRSAq+CJiAeCTXdTlXpXtN2NVjyCooJoRfH6IYig+E/QH9LsprKKeOMBgv4WESTilZ0eaqWiYLPb2KLUA0XxQrTe1pOqzzeJbRObZGdjmC3aB4+k0GS/b+a9mZ1NVlZn/CMhacHesqLny2qwWPKTpbJK1tL0KGSZ7NMXyCXlBR7fqYFOc8ZFoY9ICHlIUvQ7sqr/xPfAkPdkhews2HjG5Sg8Au+g0BNLy2DxvmqYvKmcBT4m9XeSLzjHEXh6YQpB4a89eAU0HjQ2gXdLpV2Jj3JpxUjuAlgCBynAkv2XIDbWHzFtChCQVP0odwG86El68SlaBTx78zkC3/SlGeburEpH4IkDAqSqBWD2tvPgP14H83dftA0fSYV8clTgr9MZgYps2UeGWaWkkKcdUoA1cGN72CmQbkwqqRiCJbAdL3CF7p5Y9/dtp6I3OyJA72EQ4HPGGpVRAMLZvcF0r21NQ1wFteJsuCr0Yob3+PUVXMATCRi5g8EUoV0aYiO+FlvCT9TK++K0v+5wAhEJ4RuKjE0pIKlla7jCq3QnJh+YBKIzUZ1SAEcjwFsAV6pbzAI0w7mjUswAuc99BnClaxNwjbAUMEUlIfw4H+lv41CSqXxUpFUOaBUICQutBQQ9SfnQ4yDP0iHXCnxn82IZEC5gKWAIz5IIBL3plYBeizCH6TGRKVVdkf1kVpamdY2DN4Tp2KQ/GUoIoG7woHYChf6ymbbAVWJKarAwaUPZCAjljMfRf84EH12N2i+n9KmBDYFzRRsC7LtjMnDDNRBh/JgfmeGjfeBt92X0KQHjsvdivHa6XxyI6RLxi7fSBsNSuGCZplCF2YCfabYH/jtD4rSEI4L12chQOiXxoygswhH8lBZIulmTOzqxgEIqrQQ8pWfHtsG7JqDAV67whvgDQnl9EwrgpuKzEhijBfq0CYgnucJHl9G6pE0llQTdVptZ3rryHm21L7znLmAKe5MKRPuAnGYRgIYx3fnDY4bdqZfuyIE9xVGwVeBuXg8HRj+cEj5OQtWP4S77pcMI0F06lDODSaAlvFp1T3o2jn1UguhduAtQeEPcbAveKtgFaKPTm7R0UjyGuQtHviij8DYFGjJ+8UzE/yNgiI/BcC+1TtfkjinA3KjCCb4CYalbWqDXpwI83ARww/tnqQW4CkQkTOGFLfi6fIDmt9Gfc743AdQXxM7Afv4ChnDAlsDNeXE/ScHtJTHrPOceiAjgbS0C1DML1A4FeH85Cv/BwL+HtQjs4Q7fKkEfyNKZoPfprCL1E1rAX+JnVzgGHxso4sae0BDKhNRHxVf4fwSPhSupvNPcCSP6mFzwIGwxhITV+LocgedATc5wp9k6I9PxC6Txv+vqYH82AAAAAElFTkSuQmCC;" parent="ItdWZb3pQPPJKnLkRFLI-1" vertex="1">
          <mxGeometry x="17" y="31" width="48" height="48" as="geometry" />
        </mxCell>
        <mxCell id="f9fGz2h5eEANuruj3QtL-5" value="5" style="ellipse;whiteSpace=wrap;html=1;aspect=fixed;strokeWidth=2;fontFamily=Tahoma;spacingBottom=4;spacingRight=2;strokeColor=#d3d3d3;fillColor=#000000;fontColor=#ffffff;fontStyle=1;fontSize=14;" parent="ItdWZb3pQPPJKnLkRFLI-1" vertex="1">
          <mxGeometry x="60" y="62" width="26" height="26" as="geometry" />
        </mxCell>
        <mxCell id="ItdWZb3pQPPJKnLkRFLI-89" value="UI Application Stack" style="swimlane;whiteSpace=wrap;html=1;startSize=30;fontSize=21;fillColor=#ffcd28;gradientColor=#ffa500;strokeColor=#d79b00;" parent="1" vertex="1">
          <mxGeometry x="1870" y="42" width="800" height="128" as="geometry" />
        </mxCell>
        <mxCell id="ItdWZb3pQPPJKnLkRFLI-90" value="" style="fontColor=#0066CC;verticalAlign=top;verticalLabelPosition=bottom;labelPosition=center;align=center;html=1;outlineConnect=0;fillColor=#CCCCCC;strokeColor=#6881B3;gradientColor=none;gradientDirection=north;strokeWidth=2;shape=mxgraph.networks.terminal;" parent="ItdWZb3pQPPJKnLkRFLI-89" vertex="1">
          <mxGeometry x="360" y="50" width="80" height="65" as="geometry" />
        </mxCell>
        <mxCell id="ItdWZb3pQPPJKnLkRFLI-91" value="New Valid&lt;br style=&quot;font-size: 15px;&quot;&gt;Response" style="edgeStyle=elbowEdgeStyle;rounded=0;orthogonalLoop=1;jettySize=auto;html=1;strokeWidth=2;fontStyle=1;fontSize=15;exitX=1;exitY=0.25;exitDx=0;exitDy=0;" parent="ItdWZb3pQPPJKnLkRFLI-89" source="ItdWZb3pQPPJKnLkRFLI-18" edge="1">
          <mxGeometry x="0.703" y="20" relative="1" as="geometry">
            <mxPoint x="510" y="693.5000000000002" as="sourcePoint" />
            <mxPoint x="440" y="58" as="targetPoint" />
            <Array as="points">
              <mxPoint x="760" y="363.5" />
            </Array>
            <mxPoint as="offset" />
          </mxGeometry>
        </mxCell>
        <mxCell id="ItdWZb3pQPPJKnLkRFLI-92" value="" style="outlineConnect=0;dashed=0;verticalLabelPosition=bottom;verticalAlign=top;align=center;html=1;shape=mxgraph.aws3.user;fillColor=#D2D3D3;gradientColor=none;" parent="ItdWZb3pQPPJKnLkRFLI-89" vertex="1">
          <mxGeometry x="270" y="50" width="45" height="63" as="geometry" />
        </mxCell>
        <mxCell id="ItdWZb3pQPPJKnLkRFLI-93" value="" style="shape=image;verticalLabelPosition=bottom;labelBackgroundColor=default;verticalAlign=top;aspect=fixed;imageAspect=0;image=data:image/png,iVBORw0KGgoAAAANSUhEUgAAAlkAAAFICAYAAABjmuvkAAAXnklEQVR42u3dv25b6Z3GcV+CLsGXQMCibFGyfYayZySOBPAOojswy4VXkZRisEiAwEo5RaAJFlsE2IGcIlhMxhkixRYpBgK22GKKFZBiizQsUmwxBZeHkkd/SEmkeP685z2fL/BFsMBmsZAtnsfnefTTo0cAAAAAgHrxbZIkf07ax98lG2d/TjYGI4ep3yWvTkf/efwh2ej6KgEAAMzIKFjtXg1V93iW/u/7qgEAANzCSZIsjULTyYzh6qbH/dF/31cRAADgRsD6cF4DDh9qWiMKWgAAAFdI30QtErAug9ZG31cTAABgRD/ZeJNFwLq03fNVBQAAteY/kuTxHCP3WR2k/3d9dQEAQG1J672MA5baEAAA1Jvsa0K1IQAAqDk51YRqQwAAUG/yqgnVhgAAoLbkXxNe99ukfeirDgAAoqagmnDCPyWvG776AAAgWoqqCaddg/fVBwAAUdJPXh2UEbDUhgAAIFouasJh2aoNAQBAVIwCzlkIIUttCAAAoqHsmlBtCAAAoiOUmlBtCAAAoiKUmlBtCAAAoiG0mlBtCAAAKk+oNeFk0EoSf1oAAKAyhFoTTvGsnyRL/sQAAEDwhF4TTvrqnT81AAAQNFWpCdWGAACgUlSoJlQbAgCAalC9mlBtCAAAAqeqNaHaEAAABE2Fa0K1IQAACJPq14RqQwAAEBix1IRqQwAAEBQR1YRqQwAAEAbx1YRqQwAAUDKx1oRqQwAAUCoR14RqQwAAUA7x14RqQwAAUDB1qQnVhgAAoFBqVBOqDQEAQDHUryZUGwIAgJypa02oNgQAALlxkiRLNa4J1YYAACAf+kn7nXClNgQAABmS1mNCldoQAABkiJpQbQgAAHJATag2BAAAGaMmVBsCAICMUROqDQEAQA6oCdWGAAAgY9SEakMAAJAxF1fd1YRqQwD3cPDs2eMH/ReHnc7u8PPP+6P/PBv953Dk4OJ/3h36EAGiZRQUjoUltSGASXqNZGl/pXXw8+Zaf+Two3vNtdP9p6tv/qlxT+gahajGKEydXgSruzwebm4+9iUHYgpY7V0haXE/JBtdf5uACMPV8trgaria4tnek+fduwLWYIaAdWmncyBsAdVHTZipA7UhUKtwdc39lbWfXQ9Yo6A0Ck1ncwWsS8/SsOWPA6jyWyw1Ycae+FsF1CtcXXHwttlqXIastP57WMC6GbZ2/fEAVQtYakK1IYCUnzdbuyPPHhiurtq/+hZrmKHCFlAR1IRqQwCPHu0tP0syClc/eR6ydna6GYcsYQuozFssNaHaEKh7uLr+04LZhqxO5zCnkPXR/nBzM/FHCYQWsNSEakNAuMrLokKWsw9AYKgJ1YZAHUlvWeUdrm6GrN2CQpawBQTzFktNqDYEaheujosIV9dDVvbDd2ELCDpgqQnVhkA9yOAcw2Ihaxy00t1UOUEr9Z2wBRSDmrDc2jD9+vtbCMQdrsaurJ1dDVm9EkOWg6ZAYW+x1IRl+l2y0fe3EIg4XP1ka/cyZHW7S3P/Sh1nH4CKBSw1YRi2e/42AtkzPiRaerg69+DZjV8WPQo3RwGELGELyAE1odoQiJW9lefdrA+JLujxxP+Tw+3tJKCQJWwBmb7FUhOqDYHIwlUBt64e4t6T1ek/5FLyAP7usOWgKfDAgKUmVBsCwlXhg/cpIasXaMg6t9M58ZOIwOyoCdWGgHBVnPsrrcPbQ1Y4A3g3toBM3mKpCdWGQLUp45BoZoP3iaC1tfVVBUKWsAXcG7DUhGpDoLqk5xgOmmvvqhCuLrz/H02BDuCFLWAO1IRqQ6DK4SqMW1cL3Ma6M2h9/vlpBYPW+KCpsAWoCdWGgHAVzOB9ImR1OocVDFnOPgCP1IRqQ6B67DdX31QyXN11G+vWkHU+gB9WXGELtUNNqDYEqsT4SntYh0TzGbxPBK1wb2YJW8Ctb7HUhGpDIHyqcI4h08H7RMiq5gDeQVPUOGCpCdWGgHAV7OB9ytusQWRBazh+Q2ccj8hQE6oNAeGqFAfpYP9hIavaA3hnH1Ab0ppJOFEbAqExPiS63DqJMFzNP3ifCFlxDOCFLURNP9l4I5ioDYGQqOAh0Yf9Mujl9WShL1REA3hhC9FxURMOBBK1IRBKuKrsras8b2PdGrLiG8Df5cBBU1QJNaHaEBCuKjZ4n/I2a1CjoOXsAyqBmlBtCAhXFbqNdWvIinsAL2yhcqgJ1YZA2cRySLTwwfuUkNWoacgSthAkakK1IVAW5+cYahuushm8TwSt+gzghS0EjZpQbQiUF66ivHVV/OB9SsjqCVlXDpq+ft3wLQc1IdWGEK7qZkaD92sh6/xm1kDAcvYB5eGqu9rQdwGKYnxIVLjKb/A+EbQ6nSPBSthCWTXhqwNBg2pDFBSujgWqaVVh631uX/ia3cwSthBaTShgUG2I3KjzOYaZB+9PVru5/iEYwM+gg6ZQE1JtCOHK4P0BIcsAfvafRDzw7Qs1IdWGEK7cxpotZBnAO/sANSGD8E+Jn3LGwxgfEhWuwhi8TwQtA3hhC2pCBlAbvjr1XYJ5cEj0wRZX0RvAC1tQEzIMv03ah75bMFu4co4hqNtYdwYtA/jFD5pubia+9aEmpNoQwlXNB+9TKsNDQcnZB6gJqTaEcGXwnnXIMoAXtqAmpNoQQeGQaPa+bTbLeVM83N4+EY6ELagJqTZEuaTnGA6aa++EooyPjzbXyntLbACfq++ELTUhqTbEfeHKrauIBu8TQUtl6KAp1IRUG0K4chsrh5BlAO/sA9SEVBuiMPabq2+Eq0gH7xMh63wALwgJW1ATMhzP+kmy5DsrLsZX2h0SLW6PtbyeBPEH72aWsAU1IUPz1TvfXXHgHENNbmPdGrIM4MsLWw6aqgnJW/dZic8H4YpVHLxPeZtlAF+Wnc6Jn0RUE5JqQ+GKkQzeJ0KWAbwbW1ATUm2IBzM+JLrcOhFyDN4nQ5YBvLAFNSHVhpgbh0QN3metDA3ghS2oCak2xIzhyq0rg/fZQ9bOTlewCfOgqbClJqTa0HefcMW7Hf25HIYbsvzSaGcfoCak2hDClcF7TkGr0zkSaIQtqAmpNsQlDolWwn7wf5HczBK2oCak2hDnpOcY9pprpwKM21jZBS0DeAdNcY20pvFwp9qwXuHKrSuD97xCVk94qZx94/h8OEmSJTUh1YbCFd3GyiZkGcA7+4ArNWH7nYc61YZxMz4kKlwZvBcWtAzghS2oCak2rEe4OhZUDN6LDVkG8MKWmlBNSLVhpDjHYPAewjbLAD4OBw6aqgmpNoRwFaGD9M+0qiHLAD62n0Tc2ur5mFUTUm0oXNHg3QCebmypCUm14UKMD4kKV1H6ttlsVPov53B7+0QoEbbUhKTasGqcn2Nwpd1tLAN4CltB8CHZ6HpYU20YQ7hyjsHgvTrbrFNBpDYHTWv7IX3xy5/VhFQbCld0G6vAkNXpHAogzj7EzugBdewhTbWhcEWD9zIG8MKHsBVxwGrvejhTbVgtHBKtr3vL63H9HXczS9hSE5JqwxD46RyDsGHwHk3IMoBnpAdN1YRUG1YsXDnHYPAeI25m8eInEQ/UhKTaULiiwbsBPJ19UBNSbVhR9purb4QrXlaFrffRjgwN4BlT2FITUm0YLuMr7Q6J8ubg/clqN+qf5jCAZwxhS01ItWGYOMfAWg3eDeA5p6ehHzRVE7KGDkKvDYUr1uo2lgE8Yz37oCZkTT0RrmjwbgBPYUtNSOZg+rs5Q/leHB8SXW6dCA+c0f6jujAKWQ3hgVULW2pCsvzaMD3HcNBceyc00G0sA3hGFLbUhGR5taFbVzR4ny9k9QQGLnLQdFjgv6jVhGQ5taFwRYP3h9/MMoBn8Gcf1IRk8bWhcEWD98W3WUeCAkMPW2pCstja0CFRZnZ8tLl2+qiuuJnF0MOWmpAsrjZMzzGkD0XhgAbvBvAMOWxlcNBUTUjeXxum3yduXTFU09q57iHLAJ552V/kJxHVhOT9fpds9IUrGrwbwNPZBzUhmYvt3tyHRIUr5r3HWl5PHsEAnmGFLTUhmU9teBGujgUAuo1lAM+ahi01IZltbegcAw3ey99mnXr4s/CDpjfClpqQzK42FK7oNlY4laFfGs1Szz6oCclsakPhigbvBvDktbB19vqzvockuZjfvNw4Fa5o8O5mFjnh/3U6w/9+9amHJbmAX66+8LCnwbsBPHl72Pq+/doDk3zQ26z28IuVdQ98Fu7+SutQmrr7bZbKkME42Nwa/ucnrzw4yTn9+vknHvo0eDeAJ+/3fz/bFLZItSHDti9FzTaA92CnsEWqDUm3sQzgKWyRVBvS4N0AnszEHzud4f+8/kzYItWGdBvLAJ7M6ycRf3D2gVQb0uDdAJ50Y4tUG9Lg3QDew5vCFqk2JA3eDeBJYYtUG7JAB9LSQ0PWzk7Xw5oxHDR1PZ5UG9Lg3S+NJp19INWGrIRvm82GtLTYAP7IA5rCFqk2JK+611w7lZLczCKFLVJtSIN3A3iyaB00pdqQdBurzJDV8zBm7D+JmIYtD16qDUmDdwN40tkHUm3IcvZYy+uJdGQATwpbpNqQfhm0ATwpbJFl1YbPBwIEDd4N4EkHTcmM/cOLtvBAg3cDeNLZBzIPf9t6KUTwnqqw9V4aMoAnhS3yAf7yqZ825B2D9yerXWko323WiYcsKWxRbUiDdxjAk7n7t08dNKXakG5jIZtzDmcerOT0g6Z/EbaoNqTBOxYIWYceqqSzD1Qbsjb2pZ9iB/AeqKSwRbUh3caCm1mksEXO66+eOlJq8G7wbgBPViBsOWjKqvnHl+3hL/wSaYN3lPI2y80sck7/7uwDK+bv1tSGBu8wgCfd2CJz8dfPngscBu8wgCeFLVJtSIN3A3iSwhbVhgzTQa+RLEk6BvBkVAdNhS2qDWnwDr80mnT2gWpDxvjLoJfXEynHAJ4Utki1Id3GijZkNTwQSWGLakMavMMAnnTQlFQb0m2syoSsnocgWYyDzS3jeKoNafBuAE/S2QeqDWnwjkW3WUcefKSwRbUhDd7hZhYpbJFqQ164v9I6lGYM4Ene4o8OmlJtSIN3A3iSzj5QbUi/DBoG8KSwRaoN3caCATxJYYtqQxq8G8CTFLaoNqTbWJh5m3XqgUaGfdD0r8bxVBvS4L2SlaFfGk06+0C1IQ3eYQBPClvCFtWGBu9wM4uksEW1IQ3eDeBJVk8HTak2NHhH+G+zVIZkhX8SMQ1bwgLVhnH6ttlsSCoG8CSdfWBF/df1ZCDQhOdec+1USoljAO9BRQpbrLG/WX0h2Bi8wwCepLDFrP1Gbeg2FgzgSc530PT79mshgjP5+/VEuDF4hwE8SWcfqDaMeI+1vJ5IJgbwJIUtqg3pNhbuDFmbm489hEhhi1QbGrzDAJ7kgv7tUwdNqTY0eEcxIWtnp+vBQzpoSqoNy6oKW++lkbhvZhnAk84+kMN/f/6JI6VFD96frHalkbgH8EceOKSwJWQw9Uu1ocE73MwiKWwxn9rwC7VhQb9Gp3UkhRjAk6xZ2HLQtN5+/fwTIcjgHRmGrJ6HC8mb1+P9JKLakLnZlz4M4Em6sSVsqQ3pNhYM4EkKW1QbGrzDAJ6ksEW1oV8GDQN4krx50FTYUhvS4B0G8CSdfaDa0OAdBvAkhS2qDQ3eEeM268RDg6SwRbVh5g56jWRJ0jCA98Ag6aAp1YYG78hhm6UyJOmgKdWGWf4aneX1RMJAejPr0AOCpLMPVBu6jYV8BvAeDiSFLaoNDd7hZhZJYYtqQ7exYABPkg6aqg0N3mEAT5J5/iTiD84+qA0N3mEAT5JubFFtaPAOA3iSwhbVhiX6z8urPWkCBvAkhS2qDQ3eUWjI2tnp+sAnWeZBU9fj1YbVrApb76UIzFIZGsCTdPaBakO3sWAAT1LYotrQ4B3VCFkNH+4khS2qDd3GggE8SQdNWVpt+Hxg8G7wjvlCVs8HOslQfxIxDVtCThj+4UW77m+x+lIDDOBJOvvAXPxt66XBOzDnNuvIBzlJYYuz+Mun6wbvwMwhyy+NJilsUW1o8A4DeJJM/ceWg6Zqw2J822w2JAUYwJN09oFqwwzda66dSgkwgCcpbAlbakODdxjAk6SwpTZ0GwsG8CQpbHGqv3oa9ZFSg3dkus069eFMMraDpn8RtnLzjy/bw19E+kuk95bXE8kAWVaGfmk0SWcfOJe/W3vpNhYw4wDehzJJYYtz+etnzw3egRkqQzezSApbrHVtaPAOA3iSXDBsOWiqNjR4R9Fvs9zMIlkbB5tbfhJRbXg5eH+y2pUEYABPks4+qA0N3mEAT5LCltowbPdXWodSAAzgSVLYUhsavMMAniSrfdBU2KpFbdj39IcBPEk6+6A2dBsLBvAkKWypDQ3egZshq+FDlSSFrRrUhm5jwQCeJEMLW//1ykHTqteGBu8oJ2Tt7HR9kJKkg6YR14YG7ygpZJ3fzDKAJ0lnHyKtDQ3eUe4268iHJ0kKWxHWhoNeI1nypEd5IcvNLJIUtuKsDQ3eYQBPklXWQdMwa8O95fXEEx4hhKyeD0qSXOwnEX9w9iGc2tBtLBjAk6QbW2pDg3cYwJMkha1K1IZuY8EAniSFLbWhwTsM4EmSixw0/b79Wm1o8A4DeJKksw8VrA0N3mEAT5LCVh3C1r+tJwbvwJVt1okPQJIUtrLyN6svDN4BA3iSdNA0a78pqjZcab33FEcVtlkqQ5Is4ScR07AVY9D6fQG14d6T1a4nOMIPWZ3OoQ88knT2oTK1ocE7KjaA92FHksJWVWpDt7FQqcrQzSySFLYqURsavMMAniT5YP+xFcdB0xxqw76nNgzgSZIL+/eKn33IvjZ0GwsG8CRJN7bGfv38E4N3GMD7ICNJYSsPv8ymNjR4hwE8SVLYulkbfrFgbfi22Wx4UqO6IWtnp+vDiySrddC0KmFrkdpwr7l26imNGCpDA3iSdPYhsNrQ4B0G8CRJYSvz2rDXSJY8oVH9kOVmFkkKW2HVhgbvMIAnSYYVtkI9aDpPbbi3vJ54MiOmkNXzAUWScTjY3ApuHD9zbeg2FgzgSZLOPuRRGxq8I84B/JEPJZIUtsqsDf0yaBjAkySFrexrQ4N3GMCTJKvpjwEcNL2tNjR4hwE8SdLZh6xrQ4N3GMCTJIWt7GvD/ZXWoacw4g9aW1tf+eAhSWGryNrQ4B0G8CRJYSv72rDv6Ys6bbNOfdiQZL0Pmv61gHF8Whv+yzO3sVCnkOWXRpMkCzn70DZ4hwE8SVLYyjpk9ZPEFgu1rAydcyBJ5ha2vk3ah562qHPQcpyUJDnh4gdN1YSwzWqoDUmSt/0kYhq2HhCwBmpCQG1Iksz87EN719MV+Bi0trePfJCQJBcNW3ZYwPQ3Wi7BkyQfHLY+JBtHnqaAoEWSzOCg6fft1x8D1leeosD91aFDpSTJOX4ScVPAAozhSZIZ2/PUBOYNWpubj0ffPGc+QEiSUzwbbm8nnpbA4m+1hC2S5LmdztEwSZY8IYHs3moZxZNkve17ewXkG7a82SLJenk67HR2PQWBogLX6F8zF2+3BC6SjM/0V64de3MFhBG4esPzXzjtdyGSZFWD1fb2SfrWyuYKCDV0pb94emenO/rPw/G/hM7/NXQyDmGdjjdfJFn8W6nTi8/h459MP6PTQJV+Xne7jz29gFiC2OgbevwGLP3mTt+CXQay/vjDwBsxkrw/PJ3/w7V/EZqOLj5Pd8efr4ITgHvfigljJIWna+FJnQeg+DdjqekH0flr8KOfakqBjGQYwemytvtY153bEJ4AxBrIrr4hsx0jOctRzrOLf8BdvnG6unMSnABgzlD2sba8/qZMMCOrHpiuVnQf3zR9rOmEJgAIKJhd3ZNNvjG7/tZMQCOzreRuhqWr1dz5P5gEJgCodUC7rDRvD2nn15jPbM4YRUC6fJt0e0hK/+HycQAuKAEACg9qt4W1y7rz8OKnlm6Gtsu3a96w8a5q7fpbo/6UG0yXddvVcPTxLZITAwAA3AhvV3dqk2/cbga5m2FuMtRNC3dC3mwhZ3rYmQw914fZkwHoagi6EYSEIQAA6hz6pnn1TV5I3ggwU1WBAXgg/w8GIQ134xnF5QAAAABJRU5ErkJggqEPPJJ09qEytaHBOyo2gPdhR5LCVlVqQ7exUKnK0M0skhS2KlEbGrzD;" parent="ItdWZb3pQPPJKnLkRFLI-89" vertex="1">
          <mxGeometry x="364" y="52" width="66.53" height="36.31" as="geometry" />
        </mxCell>
        <mxCell id="f9fGz2h5eEANuruj3QtL-1" value="1" style="ellipse;whiteSpace=wrap;html=1;aspect=fixed;strokeWidth=2;fontFamily=Tahoma;spacingBottom=4;spacingRight=2;strokeColor=#d3d3d3;fillColor=#000000;fontColor=#ffffff;fontStyle=1;fontSize=14;" parent="ItdWZb3pQPPJKnLkRFLI-89" vertex="1">
          <mxGeometry x="259" y="2" width="26" height="26" as="geometry" />
        </mxCell>
        <mxCell id="f9fGz2h5eEANuruj3QtL-100" value="6" style="ellipse;whiteSpace=wrap;html=1;aspect=fixed;strokeWidth=2;fontFamily=Tahoma;spacingBottom=4;spacingRight=2;strokeColor=#d3d3d3;fillColor=#000000;fontColor=#ffffff;fontStyle=1;fontSize=14;" parent="ItdWZb3pQPPJKnLkRFLI-89" vertex="1">
          <mxGeometry x="325" y="50" width="26" height="26" as="geometry" />
        </mxCell>
        <mxCell id="ItdWZb3pQPPJKnLkRFLI-94" value="New User&lt;br style=&quot;font-size: 14px;&quot;&gt;Request" style="rounded=0;orthogonalLoop=1;jettySize=auto;html=1;strokeWidth=2;entryX=0.5;entryY=0;entryDx=0;entryDy=0;exitX=0.5;exitY=1;exitDx=0;exitDy=0;exitPerimeter=0;fontSize=14;fontStyle=1" parent="1" source="ItdWZb3pQPPJKnLkRFLI-90" target="ItdWZb3pQPPJKnLkRFLI-1" edge="1">
          <mxGeometry relative="1" as="geometry">
            <mxPoint x="2150" y="93" as="sourcePoint" />
            <mxPoint x="2090" y="110" as="targetPoint" />
          </mxGeometry>
        </mxCell>
        <mxCell id="ItdWZb3pQPPJKnLkRFLI-95" value="Search&lt;br style=&quot;font-size: 13px;&quot;&gt;User&lt;br style=&quot;font-size: 13px;&quot;&gt;Memory" style="rounded=0;orthogonalLoop=1;jettySize=auto;html=1;entryX=0.75;entryY=0;entryDx=0;entryDy=0;fontStyle=1;fontSize=13;edgeStyle=orthogonalEdgeStyle;curved=1;" parent="1" source="ItdWZb3pQPPJKnLkRFLI-90" target="ItdWZb3pQPPJKnLkRFLI-2" edge="1">
          <mxGeometry x="0.556" y="33" relative="1" as="geometry">
            <mxPoint x="2380" y="130.00000000000023" as="sourcePoint" />
            <mxPoint x="2512.5" y="430" as="targetPoint" />
            <mxPoint as="offset" />
          </mxGeometry>
        </mxCell>
      </root>
    </mxGraphModel>
  </diagram>
  <diagram id="NKyE2CF5QpcXURRb9H0P" name="Multi-tenant">
    <mxGraphModel dx="3354" dy="1364" grid="0" gridSize="10" guides="1" tooltips="1" connect="1" arrows="1" fold="1" page="1" pageScale="1" pageWidth="1654" pageHeight="2336" math="0" shadow="0">
      <root>
        <mxCell id="0" />
        <mxCell id="1" parent="0" />
        <mxCell id="NW7aTTPV9me7si0JIGtR-1" value="Orchestrator (multi-tenant)" style="swimlane;whiteSpace=wrap;html=1;fontSize=23;fillColor=#dae8fc;strokeColor=#c4c4c4;" parent="1" vertex="1">
          <mxGeometry x="356" y="513" width="794" height="1557" as="geometry" />
        </mxCell>
        <mxCell id="vrCM3ZJGCrk5wsnZjBwA-99" value="" style="shape=doubleArrow;direction=south;whiteSpace=wrap;html=1;dashed=1;dashPattern=1 4;strokeColor=#c4c0c0;fillColor=none;" parent="NW7aTTPV9me7si0JIGtR-1" vertex="1">
          <mxGeometry x="318.5" y="130" width="157" height="600" as="geometry" />
        </mxCell>
        <mxCell id="7VOVCTVdG1Zl8jir6fUF-1" style="edgeStyle=orthogonalEdgeStyle;rounded=0;orthogonalLoop=1;jettySize=auto;html=1;entryX=1;entryY=0.75;entryDx=0;entryDy=0;exitX=1;exitY=0.5;exitDx=0;exitDy=0;dashed=1;fillColor=#e51400;strokeColor=#B20000;" edge="1" parent="NW7aTTPV9me7si0JIGtR-1" source="NW7aTTPV9me7si0JIGtR-2" target="Y2u720_w0oZSXogZxxiW-7">
          <mxGeometry relative="1" as="geometry">
            <Array as="points">
              <mxPoint x="825" y="280" />
              <mxPoint x="825" y="1275" />
            </Array>
          </mxGeometry>
        </mxCell>
        <mxCell id="NW7aTTPV9me7si0JIGtR-2" value="User/Group Memories" style="swimlane;whiteSpace=wrap;html=1;fontSize=20;" parent="NW7aTTPV9me7si0JIGtR-1" vertex="1">
          <mxGeometry x="460" y="180" width="270" height="200" as="geometry" />
        </mxCell>
        <mxCell id="NW7aTTPV9me7si0JIGtR-3" value="Context Memories" style="rounded=0;whiteSpace=wrap;html=1;fontSize=15;fontStyle=1" parent="NW7aTTPV9me7si0JIGtR-2" vertex="1">
          <mxGeometry x="20" y="50" width="160" height="60" as="geometry" />
        </mxCell>
        <mxCell id="NW7aTTPV9me7si0JIGtR-4" value="Previous Responses&lt;br&gt;Memories" style="rounded=0;whiteSpace=wrap;html=1;fontSize=15;fontStyle=1" parent="NW7aTTPV9me7si0JIGtR-2" vertex="1">
          <mxGeometry x="20" y="120" width="160" height="60" as="geometry" />
        </mxCell>
        <mxCell id="vrCM3ZJGCrk5wsnZjBwA-2" value="2" style="ellipse;whiteSpace=wrap;html=1;aspect=fixed;strokeWidth=2;fontFamily=Tahoma;spacingBottom=4;spacingRight=2;strokeColor=#d3d3d3;fillColor=#000000;fontColor=#ffffff;fontStyle=1;fontSize=14;" parent="NW7aTTPV9me7si0JIGtR-2" vertex="1">
          <mxGeometry x="162" y="38" width="26" height="26" as="geometry" />
        </mxCell>
        <mxCell id="vrCM3ZJGCrk5wsnZjBwA-3" value="3" style="ellipse;whiteSpace=wrap;html=1;aspect=fixed;strokeWidth=2;fontFamily=Tahoma;spacingBottom=4;spacingRight=2;strokeColor=#d3d3d3;fillColor=#000000;fontColor=#ffffff;fontStyle=1;fontSize=14;" parent="NW7aTTPV9me7si0JIGtR-2" vertex="1">
          <mxGeometry x="166" y="163" width="26" height="26" as="geometry" />
        </mxCell>
        <mxCell id="NW7aTTPV9me7si0JIGtR-5" value="Prompt Engineering" style="swimlane;whiteSpace=wrap;html=1;fontSize=20;" parent="NW7aTTPV9me7si0JIGtR-1" vertex="1">
          <mxGeometry x="10" y="180" width="340" height="220" as="geometry" />
        </mxCell>
        <mxCell id="NW7aTTPV9me7si0JIGtR-6" value="Prompt Manager" style="rounded=0;whiteSpace=wrap;html=1;fontSize=15;fontStyle=1" parent="NW7aTTPV9me7si0JIGtR-5" vertex="1">
          <mxGeometry x="120" y="129.5" width="160" height="60" as="geometry" />
        </mxCell>
        <mxCell id="NW7aTTPV9me7si0JIGtR-7" value="Curated Templates" style="edgeStyle=orthogonalEdgeStyle;rounded=0;orthogonalLoop=1;jettySize=auto;html=1;" parent="NW7aTTPV9me7si0JIGtR-5" source="NW7aTTPV9me7si0JIGtR-8" target="NW7aTTPV9me7si0JIGtR-6" edge="1">
          <mxGeometry relative="1" as="geometry" />
        </mxCell>
        <mxCell id="NW7aTTPV9me7si0JIGtR-8" value="Prompt Template&lt;br style=&quot;border-color: var(--border-color);&quot;&gt;Collections" style="rounded=0;whiteSpace=wrap;html=1;fontSize=15;fontStyle=1" parent="NW7aTTPV9me7si0JIGtR-5" vertex="1">
          <mxGeometry x="120" y="30.5" width="160" height="60" as="geometry" />
        </mxCell>
        <mxCell id="NW7aTTPV9me7si0JIGtR-9" value="REVIEW" style="rounded=1;whiteSpace=wrap;html=1;fillColor=#fad7ac;strokeColor=#b46504;" parent="NW7aTTPV9me7si0JIGtR-5" vertex="1">
          <mxGeometry x="10" y="57" width="100" height="30" as="geometry" />
        </mxCell>
        <mxCell id="NW7aTTPV9me7si0JIGtR-10" value="EVALUATION" style="rounded=1;whiteSpace=wrap;html=1;fillColor=#fad9d5;strokeColor=#ae4132;" parent="NW7aTTPV9me7si0JIGtR-5" vertex="1">
          <mxGeometry x="10" y="95" width="100" height="30" as="geometry" />
        </mxCell>
        <mxCell id="NW7aTTPV9me7si0JIGtR-11" value="FEEDBACK" style="rounded=1;whiteSpace=wrap;html=1;fillColor=#fff2cc;gradientColor=#ffd966;strokeColor=#d6b656;" parent="NW7aTTPV9me7si0JIGtR-5" vertex="1">
          <mxGeometry x="10" y="133" width="100" height="30" as="geometry" />
        </mxCell>
        <mxCell id="NW7aTTPV9me7si0JIGtR-12" value="&lt;div style=&quot;&quot;&gt;&lt;span style=&quot;background-color: initial;&quot;&gt;Clarification Prompts&lt;/span&gt;&lt;/div&gt;" style="text;strokeColor=#FF3333;fillColor=none;html=1;whiteSpace=wrap;verticalAlign=middle;overflow=hidden;dashed=1;dashPattern=12 12;rounded=1;align=center;" parent="NW7aTTPV9me7si0JIGtR-5" vertex="1">
          <mxGeometry x="29" y="182" width="157" height="29" as="geometry" />
        </mxCell>
        <mxCell id="vrCM3ZJGCrk5wsnZjBwA-4" value="4" style="ellipse;whiteSpace=wrap;html=1;aspect=fixed;strokeWidth=2;fontFamily=Tahoma;spacingBottom=4;spacingRight=2;strokeColor=#d3d3d3;fillColor=#000000;fontColor=#ffffff;fontStyle=1;fontSize=14;" parent="NW7aTTPV9me7si0JIGtR-5" vertex="1">
          <mxGeometry x="259" y="118" width="26" height="26" as="geometry" />
        </mxCell>
        <mxCell id="NW7aTTPV9me7si0JIGtR-13" value="Iteration&lt;br&gt;Response&lt;br&gt;(WORKFLOW)" style="edgeStyle=orthogonalEdgeStyle;rounded=0;orthogonalLoop=1;jettySize=auto;html=1;entryX=0.75;entryY=1;entryDx=0;entryDy=0;exitX=0.25;exitY=0;exitDx=0;exitDy=0;curved=1;fontStyle=1;fontSize=12;" parent="NW7aTTPV9me7si0JIGtR-1" source="NW7aTTPV9me7si0JIGtR-15" target="NW7aTTPV9me7si0JIGtR-6" edge="1">
          <mxGeometry x="0.0014" relative="1" as="geometry">
            <mxPoint as="offset" />
          </mxGeometry>
        </mxCell>
        <mxCell id="NW7aTTPV9me7si0JIGtR-14" value="&lt;br style=&quot;font-size: 12px;&quot;&gt;Final&lt;br style=&quot;font-size: 12px;&quot;&gt;Response" style="edgeStyle=orthogonalEdgeStyle;rounded=0;orthogonalLoop=1;jettySize=auto;html=1;curved=1;exitX=0.75;exitY=0;exitDx=0;exitDy=0;fontStyle=1;fontSize=12;entryX=0;entryY=0.5;entryDx=0;entryDy=0;" parent="NW7aTTPV9me7si0JIGtR-1" source="NW7aTTPV9me7si0JIGtR-15" target="NW7aTTPV9me7si0JIGtR-66" edge="1">
          <mxGeometry relative="1" as="geometry">
            <Array as="points">
              <mxPoint x="455" y="460" />
            </Array>
          </mxGeometry>
        </mxCell>
        <mxCell id="NW7aTTPV9me7si0JIGtR-15" value="Validate Responses" style="swimlane;whiteSpace=wrap;html=1;fontSize=20;fillColor=#e51400;fontColor=#ffffff;strokeColor=#B20000;" parent="NW7aTTPV9me7si0JIGtR-1" vertex="1">
          <mxGeometry x="290" y="510" width="220" height="160" as="geometry" />
        </mxCell>
        <mxCell id="NW7aTTPV9me7si0JIGtR-17" value="Response Manager" style="rounded=0;whiteSpace=wrap;html=1;fontSize=15;fontStyle=1" parent="NW7aTTPV9me7si0JIGtR-15" vertex="1">
          <mxGeometry x="30" y="30" width="160" height="39" as="geometry" />
        </mxCell>
        <mxCell id="vrCM3ZJGCrk5wsnZjBwA-93" value="5" style="ellipse;whiteSpace=wrap;html=1;aspect=fixed;strokeWidth=2;fontFamily=Tahoma;spacingBottom=4;spacingRight=2;strokeColor=#d3d3d3;fillColor=#000000;fontColor=#ffffff;fontStyle=1;fontSize=14;" parent="NW7aTTPV9me7si0JIGtR-15" vertex="1">
          <mxGeometry x="15" y="52" width="26" height="26" as="geometry" />
        </mxCell>
        <mxCell id="NW7aTTPV9me7si0JIGtR-19" value="LLM Response" style="edgeStyle=orthogonalEdgeStyle;rounded=0;orthogonalLoop=1;jettySize=auto;html=1;entryX=0.5;entryY=1;entryDx=0;entryDy=0;fontSize=12;fontStyle=1" parent="NW7aTTPV9me7si0JIGtR-1" source="NW7aTTPV9me7si0JIGtR-20" target="NW7aTTPV9me7si0JIGtR-15" edge="1">
          <mxGeometry relative="1" as="geometry" />
        </mxCell>
        <mxCell id="NW7aTTPV9me7si0JIGtR-20" value="LLM Provider &amp;gt;&amp;gt; Models / API Tasks" style="swimlane;whiteSpace=wrap;html=1;fontSize=20;align=left;spacingLeft=17;" parent="NW7aTTPV9me7si0JIGtR-1" vertex="1">
          <mxGeometry x="20" y="733" width="760" height="450" as="geometry" />
        </mxCell>
        <mxCell id="NW7aTTPV9me7si0JIGtR-21" value="NLP" style="swimlane;fontStyle=1;childLayout=stackLayout;horizontal=1;startSize=26;fillColor=#dae8fc;horizontalStack=0;resizeParent=1;resizeParentMax=0;resizeLast=0;collapsible=1;marginBottom=0;html=1;strokeColor=#6c8ebf;" parent="NW7aTTPV9me7si0JIGtR-20" vertex="1">
          <mxGeometry x="10" y="30" width="160" height="182" as="geometry" />
        </mxCell>
        <mxCell id="NW7aTTPV9me7si0JIGtR-22" value="Question-Answering" style="text;strokeColor=none;fillColor=none;align=left;verticalAlign=top;spacingLeft=4;spacingRight=4;overflow=hidden;rotatable=0;points=[[0,0.5],[1,0.5]];portConstraint=eastwest;whiteSpace=wrap;html=1;" parent="NW7aTTPV9me7si0JIGtR-21" vertex="1">
          <mxGeometry y="26" width="160" height="26" as="geometry" />
        </mxCell>
        <mxCell id="NW7aTTPV9me7si0JIGtR-23" value="Text Summarization" style="text;strokeColor=none;fillColor=none;align=left;verticalAlign=top;spacingLeft=4;spacingRight=4;overflow=hidden;rotatable=0;points=[[0,0.5],[1,0.5]];portConstraint=eastwest;whiteSpace=wrap;html=1;" parent="NW7aTTPV9me7si0JIGtR-21" vertex="1">
          <mxGeometry y="52" width="160" height="26" as="geometry" />
        </mxCell>
        <mxCell id="NW7aTTPV9me7si0JIGtR-24" value="Translation" style="text;strokeColor=none;fillColor=none;align=left;verticalAlign=top;spacingLeft=4;spacingRight=4;overflow=hidden;rotatable=0;points=[[0,0.5],[1,0.5]];portConstraint=eastwest;whiteSpace=wrap;html=1;" parent="NW7aTTPV9me7si0JIGtR-21" vertex="1">
          <mxGeometry y="78" width="160" height="26" as="geometry" />
        </mxCell>
        <mxCell id="NW7aTTPV9me7si0JIGtR-25" value="Sentiment Analysis" style="text;strokeColor=none;fillColor=none;align=left;verticalAlign=top;spacingLeft=4;spacingRight=4;overflow=hidden;rotatable=0;points=[[0,0.5],[1,0.5]];portConstraint=eastwest;whiteSpace=wrap;html=1;" parent="NW7aTTPV9me7si0JIGtR-21" vertex="1">
          <mxGeometry y="104" width="160" height="26" as="geometry" />
        </mxCell>
        <mxCell id="NW7aTTPV9me7si0JIGtR-26" value="Named entity recognition" style="text;strokeColor=none;fillColor=none;align=left;verticalAlign=top;spacingLeft=4;spacingRight=4;overflow=hidden;rotatable=0;points=[[0,0.5],[1,0.5]];portConstraint=eastwest;whiteSpace=wrap;html=1;" parent="NW7aTTPV9me7si0JIGtR-21" vertex="1">
          <mxGeometry y="130" width="160" height="26" as="geometry" />
        </mxCell>
        <mxCell id="NW7aTTPV9me7si0JIGtR-27" value="Chatbot functionality" style="text;strokeColor=none;fillColor=none;align=left;verticalAlign=top;spacingLeft=4;spacingRight=4;overflow=hidden;rotatable=0;points=[[0,0.5],[1,0.5]];portConstraint=eastwest;whiteSpace=wrap;html=1;" parent="NW7aTTPV9me7si0JIGtR-21" vertex="1">
          <mxGeometry y="156" width="160" height="26" as="geometry" />
        </mxCell>
        <mxCell id="NW7aTTPV9me7si0JIGtR-28" value="Content Creation" style="swimlane;fontStyle=1;childLayout=stackLayout;horizontal=1;startSize=26;fillColor=#dae8fc;horizontalStack=0;resizeParent=1;resizeParentMax=0;resizeLast=0;collapsible=1;marginBottom=0;html=1;strokeColor=#6c8ebf;" parent="NW7aTTPV9me7si0JIGtR-20" vertex="1">
          <mxGeometry x="10" y="330" width="230" height="104" as="geometry" />
        </mxCell>
        <mxCell id="NW7aTTPV9me7si0JIGtR-29" value="Writiing articles, essays, or reports" style="text;strokeColor=none;fillColor=none;align=left;verticalAlign=top;spacingLeft=4;spacingRight=4;overflow=hidden;rotatable=0;points=[[0,0.5],[1,0.5]];portConstraint=eastwest;whiteSpace=wrap;html=1;" parent="NW7aTTPV9me7si0JIGtR-28" vertex="1">
          <mxGeometry y="26" width="230" height="26" as="geometry" />
        </mxCell>
        <mxCell id="NW7aTTPV9me7si0JIGtR-30" value="Creating poetry or stories" style="text;strokeColor=none;fillColor=none;align=left;verticalAlign=top;spacingLeft=4;spacingRight=4;overflow=hidden;rotatable=0;points=[[0,0.5],[1,0.5]];portConstraint=eastwest;whiteSpace=wrap;html=1;" parent="NW7aTTPV9me7si0JIGtR-28" vertex="1">
          <mxGeometry y="52" width="230" height="26" as="geometry" />
        </mxCell>
        <mxCell id="NW7aTTPV9me7si0JIGtR-31" value="Generating creative content or prompts" style="text;strokeColor=none;fillColor=none;align=left;verticalAlign=top;spacingLeft=4;spacingRight=4;overflow=hidden;rotatable=0;points=[[0,0.5],[1,0.5]];portConstraint=eastwest;whiteSpace=wrap;html=1;" parent="NW7aTTPV9me7si0JIGtR-28" vertex="1">
          <mxGeometry y="78" width="230" height="26" as="geometry" />
        </mxCell>
        <mxCell id="NW7aTTPV9me7si0JIGtR-32" value="Education" style="swimlane;fontStyle=1;childLayout=stackLayout;horizontal=1;startSize=26;fillColor=#dae8fc;horizontalStack=0;resizeParent=1;resizeParentMax=0;resizeLast=0;collapsible=1;marginBottom=0;html=1;strokeColor=#6c8ebf;" parent="NW7aTTPV9me7si0JIGtR-20" vertex="1">
          <mxGeometry x="180" y="114" width="260" height="104" as="geometry" />
        </mxCell>
        <mxCell id="NW7aTTPV9me7si0JIGtR-33" value="Tutoring in various subjects" style="text;strokeColor=none;fillColor=none;align=left;verticalAlign=top;spacingLeft=4;spacingRight=4;overflow=hidden;rotatable=0;points=[[0,0.5],[1,0.5]];portConstraint=eastwest;whiteSpace=wrap;html=1;" parent="NW7aTTPV9me7si0JIGtR-32" vertex="1">
          <mxGeometry y="26" width="260" height="26" as="geometry" />
        </mxCell>
        <mxCell id="NW7aTTPV9me7si0JIGtR-34" value="Providing explanations for complex concepts" style="text;strokeColor=none;fillColor=none;align=left;verticalAlign=top;spacingLeft=4;spacingRight=4;overflow=hidden;rotatable=0;points=[[0,0.5],[1,0.5]];portConstraint=eastwest;whiteSpace=wrap;html=1;" parent="NW7aTTPV9me7si0JIGtR-32" vertex="1">
          <mxGeometry y="52" width="260" height="26" as="geometry" />
        </mxCell>
        <mxCell id="NW7aTTPV9me7si0JIGtR-35" value="Assisting with homework or assignments" style="text;strokeColor=none;fillColor=none;align=left;verticalAlign=top;spacingLeft=4;spacingRight=4;overflow=hidden;rotatable=0;points=[[0,0.5],[1,0.5]];portConstraint=eastwest;whiteSpace=wrap;html=1;" parent="NW7aTTPV9me7si0JIGtR-32" vertex="1">
          <mxGeometry y="78" width="260" height="26" as="geometry" />
        </mxCell>
        <mxCell id="NW7aTTPV9me7si0JIGtR-36" value="Programming" style="swimlane;fontStyle=1;childLayout=stackLayout;horizontal=1;startSize=26;fillColor=#dae8fc;horizontalStack=0;resizeParent=1;resizeParentMax=0;resizeLast=0;collapsible=1;marginBottom=0;html=1;strokeColor=#6c8ebf;" parent="NW7aTTPV9me7si0JIGtR-20" vertex="1">
          <mxGeometry x="180" y="30" width="260" height="78" as="geometry" />
        </mxCell>
        <mxCell id="NW7aTTPV9me7si0JIGtR-37" value="Writing, debugging, or explaining code" style="text;strokeColor=none;fillColor=none;align=left;verticalAlign=top;spacingLeft=4;spacingRight=4;overflow=hidden;rotatable=0;points=[[0,0.5],[1,0.5]];portConstraint=eastwest;whiteSpace=wrap;html=1;" parent="NW7aTTPV9me7si0JIGtR-36" vertex="1">
          <mxGeometry y="26" width="260" height="26" as="geometry" />
        </mxCell>
        <mxCell id="NW7aTTPV9me7si0JIGtR-38" value="Performing code-related tasks or calculations" style="text;strokeColor=none;fillColor=none;align=left;verticalAlign=top;spacingLeft=4;spacingRight=4;overflow=hidden;rotatable=0;points=[[0,0.5],[1,0.5]];portConstraint=eastwest;whiteSpace=wrap;html=1;" parent="NW7aTTPV9me7si0JIGtR-36" vertex="1">
          <mxGeometry y="52" width="260" height="26" as="geometry" />
        </mxCell>
        <mxCell id="NW7aTTPV9me7si0JIGtR-39" value="Research Assistance" style="swimlane;fontStyle=1;childLayout=stackLayout;horizontal=1;startSize=26;fillColor=#dae8fc;horizontalStack=0;resizeParent=1;resizeParentMax=0;resizeLast=0;collapsible=1;marginBottom=0;html=1;strokeColor=#6c8ebf;" parent="NW7aTTPV9me7si0JIGtR-20" vertex="1">
          <mxGeometry x="450" y="30" width="300" height="78" as="geometry" />
        </mxCell>
        <mxCell id="NW7aTTPV9me7si0JIGtR-40" value="Summarizing research papers or articles" style="text;strokeColor=none;fillColor=none;align=left;verticalAlign=top;spacingLeft=4;spacingRight=4;overflow=hidden;rotatable=0;points=[[0,0.5],[1,0.5]];portConstraint=eastwest;whiteSpace=wrap;html=1;" parent="NW7aTTPV9me7si0JIGtR-39" vertex="1">
          <mxGeometry y="26" width="300" height="26" as="geometry" />
        </mxCell>
        <mxCell id="NW7aTTPV9me7si0JIGtR-41" value="Providing insights or explanations on specific topics" style="text;strokeColor=none;fillColor=none;align=left;verticalAlign=top;spacingLeft=4;spacingRight=4;overflow=hidden;rotatable=0;points=[[0,0.5],[1,0.5]];portConstraint=eastwest;whiteSpace=wrap;html=1;" parent="NW7aTTPV9me7si0JIGtR-39" vertex="1">
          <mxGeometry y="52" width="300" height="26" as="geometry" />
        </mxCell>
        <mxCell id="NW7aTTPV9me7si0JIGtR-42" value="Business Applications" style="swimlane;fontStyle=1;childLayout=stackLayout;horizontal=1;startSize=26;fillColor=#dae8fc;horizontalStack=0;resizeParent=1;resizeParentMax=0;resizeLast=0;collapsible=1;marginBottom=0;html=1;strokeColor=#6c8ebf;" parent="NW7aTTPV9me7si0JIGtR-20" vertex="1">
          <mxGeometry x="450" y="114" width="300" height="104" as="geometry" />
        </mxCell>
        <mxCell id="NW7aTTPV9me7si0JIGtR-43" value="Drafting emails or business communications" style="text;strokeColor=none;fillColor=none;align=left;verticalAlign=top;spacingLeft=4;spacingRight=4;overflow=hidden;rotatable=0;points=[[0,0.5],[1,0.5]];portConstraint=eastwest;whiteSpace=wrap;html=1;" parent="NW7aTTPV9me7si0JIGtR-42" vertex="1">
          <mxGeometry y="26" width="300" height="26" as="geometry" />
        </mxCell>
        <mxCell id="NW7aTTPV9me7si0JIGtR-44" value="Assisting with data analysis or visualization" style="text;strokeColor=none;fillColor=none;align=left;verticalAlign=top;spacingLeft=4;spacingRight=4;overflow=hidden;rotatable=0;points=[[0,0.5],[1,0.5]];portConstraint=eastwest;whiteSpace=wrap;html=1;" parent="NW7aTTPV9me7si0JIGtR-42" vertex="1">
          <mxGeometry y="52" width="300" height="26" as="geometry" />
        </mxCell>
        <mxCell id="NW7aTTPV9me7si0JIGtR-45" value="Automating repetitive tasks" style="text;strokeColor=none;fillColor=none;align=left;verticalAlign=top;spacingLeft=4;spacingRight=4;overflow=hidden;rotatable=0;points=[[0,0.5],[1,0.5]];portConstraint=eastwest;whiteSpace=wrap;html=1;" parent="NW7aTTPV9me7si0JIGtR-42" vertex="1">
          <mxGeometry y="78" width="300" height="26" as="geometry" />
        </mxCell>
        <mxCell id="NW7aTTPV9me7si0JIGtR-46" value="General Knowledge Queries" style="swimlane;fontStyle=1;childLayout=stackLayout;horizontal=1;startSize=26;fillColor=#dae8fc;horizontalStack=0;resizeParent=1;resizeParentMax=0;resizeLast=0;collapsible=1;marginBottom=0;html=1;strokeColor=#6c8ebf;" parent="NW7aTTPV9me7si0JIGtR-20" vertex="1">
          <mxGeometry x="10" y="240" width="280" height="78" as="geometry" />
        </mxCell>
        <mxCell id="NW7aTTPV9me7si0JIGtR-47" value="Providing information on a wide range of topics" style="text;strokeColor=none;fillColor=none;align=left;verticalAlign=top;spacingLeft=4;spacingRight=4;overflow=hidden;rotatable=0;points=[[0,0.5],[1,0.5]];portConstraint=eastwest;whiteSpace=wrap;html=1;" parent="NW7aTTPV9me7si0JIGtR-46" vertex="1">
          <mxGeometry y="26" width="280" height="26" as="geometry" />
        </mxCell>
        <mxCell id="NW7aTTPV9me7si0JIGtR-48" value="Offering historical or factual data" style="text;strokeColor=none;fillColor=none;align=left;verticalAlign=top;spacingLeft=4;spacingRight=4;overflow=hidden;rotatable=0;points=[[0,0.5],[1,0.5]];portConstraint=eastwest;whiteSpace=wrap;html=1;" parent="NW7aTTPV9me7si0JIGtR-46" vertex="1">
          <mxGeometry y="52" width="280" height="26" as="geometry" />
        </mxCell>
        <mxCell id="NW7aTTPV9me7si0JIGtR-49" value="Simulations and Scenarios" style="swimlane;fontStyle=1;childLayout=stackLayout;horizontal=1;startSize=26;fillColor=#dae8fc;horizontalStack=0;resizeParent=1;resizeParentMax=0;resizeLast=0;collapsible=1;marginBottom=0;html=1;strokeColor=#6c8ebf;" parent="NW7aTTPV9me7si0JIGtR-20" vertex="1">
          <mxGeometry x="300" y="240" width="280" height="78" as="geometry" />
        </mxCell>
        <mxCell id="NW7aTTPV9me7si0JIGtR-50" value="Simulating conversations or interactions" style="text;strokeColor=none;fillColor=none;align=left;verticalAlign=top;spacingLeft=4;spacingRight=4;overflow=hidden;rotatable=0;points=[[0,0.5],[1,0.5]];portConstraint=eastwest;whiteSpace=wrap;html=1;" parent="NW7aTTPV9me7si0JIGtR-49" vertex="1">
          <mxGeometry y="26" width="280" height="26" as="geometry" />
        </mxCell>
        <mxCell id="NW7aTTPV9me7si0JIGtR-51" value="Role-playing specific characters or personalities" style="text;strokeColor=none;fillColor=none;align=left;verticalAlign=top;spacingLeft=4;spacingRight=4;overflow=hidden;rotatable=0;points=[[0,0.5],[1,0.5]];portConstraint=eastwest;whiteSpace=wrap;html=1;" parent="NW7aTTPV9me7si0JIGtR-49" vertex="1">
          <mxGeometry y="52" width="280" height="26" as="geometry" />
        </mxCell>
        <mxCell id="NW7aTTPV9me7si0JIGtR-52" value="Entertainment" style="swimlane;fontStyle=1;childLayout=stackLayout;horizontal=1;startSize=26;fillColor=#dae8fc;horizontalStack=0;resizeParent=1;resizeParentMax=0;resizeLast=0;collapsible=1;marginBottom=0;html=1;strokeColor=#6c8ebf;" parent="NW7aTTPV9me7si0JIGtR-20" vertex="1">
          <mxGeometry x="250" y="330" width="230" height="104" as="geometry" />
        </mxCell>
        <mxCell id="NW7aTTPV9me7si0JIGtR-53" value="Playing text-based games" style="text;strokeColor=none;fillColor=none;align=left;verticalAlign=top;spacingLeft=4;spacingRight=4;overflow=hidden;rotatable=0;points=[[0,0.5],[1,0.5]];portConstraint=eastwest;whiteSpace=wrap;html=1;" parent="NW7aTTPV9me7si0JIGtR-52" vertex="1">
          <mxGeometry y="26" width="230" height="26" as="geometry" />
        </mxCell>
        <mxCell id="NW7aTTPV9me7si0JIGtR-54" value="Role-playing scenarios" style="text;strokeColor=none;fillColor=none;align=left;verticalAlign=top;spacingLeft=4;spacingRight=4;overflow=hidden;rotatable=0;points=[[0,0.5],[1,0.5]];portConstraint=eastwest;whiteSpace=wrap;html=1;" parent="NW7aTTPV9me7si0JIGtR-52" vertex="1">
          <mxGeometry y="52" width="230" height="26" as="geometry" />
        </mxCell>
        <mxCell id="NW7aTTPV9me7si0JIGtR-55" value="Generating jokes or trivia" style="text;strokeColor=none;fillColor=none;align=left;verticalAlign=top;spacingLeft=4;spacingRight=4;overflow=hidden;rotatable=0;points=[[0,0.5],[1,0.5]];portConstraint=eastwest;whiteSpace=wrap;html=1;" parent="NW7aTTPV9me7si0JIGtR-52" vertex="1">
          <mxGeometry y="78" width="230" height="26" as="geometry" />
        </mxCell>
        <mxCell id="NW7aTTPV9me7si0JIGtR-56" value="Custom Tasks" style="swimlane;whiteSpace=wrap;html=1;fillColor=#e51400;strokeColor=#B20000;fontColor=#ffffff;" parent="NW7aTTPV9me7si0JIGtR-20" vertex="1">
          <mxGeometry x="500" y="330" width="200" height="100" as="geometry" />
        </mxCell>
        <mxCell id="NW7aTTPV9me7si0JIGtR-57" value="The API can be trained or fine-tuned on specific datasets to perform custom tasks tailored to the user&#39;s needs" style="text;html=1;strokeColor=none;fillColor=none;align=center;verticalAlign=middle;whiteSpace=wrap;rounded=0;" parent="NW7aTTPV9me7si0JIGtR-56" vertex="1">
          <mxGeometry x="15" y="26" width="170" height="70" as="geometry" />
        </mxCell>
        <mxCell id="vrCM3ZJGCrk5wsnZjBwA-96" value="7" style="ellipse;whiteSpace=wrap;html=1;aspect=fixed;strokeWidth=2;fontFamily=Tahoma;spacingBottom=4;spacingRight=2;strokeColor=#d3d3d3;fillColor=#000000;fontColor=#ffffff;fontStyle=1;fontSize=14;" parent="NW7aTTPV9me7si0JIGtR-20" vertex="1">
          <mxGeometry x="-16" y="-13" width="26" height="26" as="geometry" />
        </mxCell>
        <mxCell id="NW7aTTPV9me7si0JIGtR-58" value="User&lt;br style=&quot;font-size: 12px;&quot;&gt;Task" style="edgeStyle=orthogonalEdgeStyle;rounded=0;orthogonalLoop=1;jettySize=auto;html=1;entryX=0.25;entryY=0;entryDx=0;entryDy=0;fontStyle=1;fontSize=12;" parent="NW7aTTPV9me7si0JIGtR-1" source="NW7aTTPV9me7si0JIGtR-6" target="NW7aTTPV9me7si0JIGtR-20" edge="1">
          <mxGeometry relative="1" as="geometry" />
        </mxCell>
        <mxCell id="NW7aTTPV9me7si0JIGtR-59" value="Consider Past&lt;br style=&quot;font-size: 12px;&quot;&gt;Memories&lt;br style=&quot;font-size: 12px;&quot;&gt;Interactions" style="edgeStyle=orthogonalEdgeStyle;rounded=0;orthogonalLoop=1;jettySize=auto;html=1;entryX=1;entryY=0.5;entryDx=0;entryDy=0;curved=1;exitX=0;exitY=0.75;exitDx=0;exitDy=0;fontStyle=1;fontSize=12;" parent="NW7aTTPV9me7si0JIGtR-1" source="NW7aTTPV9me7si0JIGtR-4" target="NW7aTTPV9me7si0JIGtR-6" edge="1">
          <mxGeometry x="-0.2744" y="-10" relative="1" as="geometry">
            <mxPoint as="offset" />
          </mxGeometry>
        </mxCell>
        <mxCell id="NW7aTTPV9me7si0JIGtR-60" value="Primary &lt;br&gt;Focus&lt;br style=&quot;font-size: 12px;&quot;&gt;Context &lt;br&gt;Information" style="edgeStyle=orthogonalEdgeStyle;rounded=0;orthogonalLoop=1;jettySize=auto;html=1;entryX=1;entryY=0.25;entryDx=0;entryDy=0;curved=1;fontStyle=1;fontSize=12;" parent="NW7aTTPV9me7si0JIGtR-1" source="NW7aTTPV9me7si0JIGtR-3" target="NW7aTTPV9me7si0JIGtR-6" edge="1">
          <mxGeometry x="-0.3713" y="-10" relative="1" as="geometry">
            <mxPoint as="offset" />
          </mxGeometry>
        </mxCell>
        <mxCell id="NW7aTTPV9me7si0JIGtR-61" value="Task&lt;br style=&quot;font-size: 12px;&quot;&gt;Iteration" style="edgeStyle=orthogonalEdgeStyle;rounded=0;orthogonalLoop=1;jettySize=auto;html=1;exitX=0;exitY=0.5;exitDx=0;exitDy=0;curved=1;fontSize=12;fontStyle=1" parent="NW7aTTPV9me7si0JIGtR-1" source="NW7aTTPV9me7si0JIGtR-63" target="NW7aTTPV9me7si0JIGtR-5" edge="1">
          <mxGeometry relative="1" as="geometry" />
        </mxCell>
        <mxCell id="NW7aTTPV9me7si0JIGtR-62" style="edgeStyle=orthogonalEdgeStyle;rounded=0;orthogonalLoop=1;jettySize=auto;html=1;entryX=0.5;entryY=0;entryDx=0;entryDy=0;exitX=1;exitY=0.5;exitDx=0;exitDy=0;curved=1;" parent="NW7aTTPV9me7si0JIGtR-1" source="NW7aTTPV9me7si0JIGtR-63" target="NW7aTTPV9me7si0JIGtR-2" edge="1">
          <mxGeometry relative="1" as="geometry" />
        </mxCell>
        <mxCell id="NW7aTTPV9me7si0JIGtR-63" value="Multi-Task Planner" style="rounded=0;whiteSpace=wrap;html=1;fontSize=15;fontStyle=1" parent="NW7aTTPV9me7si0JIGtR-1" vertex="1">
          <mxGeometry x="290" y="70" width="220" height="60" as="geometry" />
        </mxCell>
        <mxCell id="NW7aTTPV9me7si0JIGtR-64" value="Search&lt;br&gt;User&lt;br&gt;Memory" style="edgeStyle=orthogonalEdgeStyle;rounded=0;orthogonalLoop=1;jettySize=auto;html=1;entryX=0.25;entryY=0;entryDx=0;entryDy=0;curved=1;fontStyle=1;exitX=1;exitY=0.5;exitDx=0;exitDy=0;exitPerimeter=0;" parent="NW7aTTPV9me7si0JIGtR-1" source="NW7aTTPV9me7si0JIGtR-86" edge="1">
          <mxGeometry x="0.5988" y="27" relative="1" as="geometry">
            <mxPoint x="520" y="-120" as="sourcePoint" />
            <mxPoint x="653" y="180" as="targetPoint" />
            <Array as="points">
              <mxPoint x="440" y="-80" />
              <mxPoint x="653" y="-80" />
            </Array>
            <mxPoint as="offset" />
          </mxGeometry>
        </mxCell>
        <mxCell id="NW7aTTPV9me7si0JIGtR-65" value="&lt;font style=&quot;font-size: 12px;&quot;&gt;Store Prompt and&lt;br style=&quot;border-color: var(--border-color);&quot;&gt;Response&lt;/font&gt;" style="edgeStyle=orthogonalEdgeStyle;rounded=0;orthogonalLoop=1;jettySize=auto;html=1;curved=1;fontStyle=1" parent="NW7aTTPV9me7si0JIGtR-1" source="NW7aTTPV9me7si0JIGtR-66" target="NW7aTTPV9me7si0JIGtR-4" edge="1">
          <mxGeometry x="-0.0476" y="5" relative="1" as="geometry">
            <mxPoint as="offset" />
          </mxGeometry>
        </mxCell>
        <mxCell id="NW7aTTPV9me7si0JIGtR-66" value="Human Edited&lt;br&gt;Response" style="rounded=0;whiteSpace=wrap;html=1;fontSize=15;fontStyle=1;fillColor=#d5e8d4;strokeColor=#82b366;" parent="NW7aTTPV9me7si0JIGtR-1" vertex="1">
          <mxGeometry x="515" y="430" width="160" height="60" as="geometry" />
        </mxCell>
        <mxCell id="Y2u720_w0oZSXogZxxiW-8" style="edgeStyle=orthogonalEdgeStyle;rounded=0;orthogonalLoop=1;jettySize=auto;html=1;entryX=0.5;entryY=1;entryDx=0;entryDy=0;" edge="1" parent="NW7aTTPV9me7si0JIGtR-1" source="NW7aTTPV9me7si0JIGtR-68" target="Y2u720_w0oZSXogZxxiW-1">
          <mxGeometry relative="1" as="geometry" />
        </mxCell>
        <mxCell id="NW7aTTPV9me7si0JIGtR-68" value="Use Generative Pre-trained TRANSFORMER &amp;gt;&amp;gt; BALANCE BENEFIT vs RISK ASSESSMENT" style="swimlane;whiteSpace=wrap;html=1;fillColor=#d5e8d4;strokeColor=#82b366;" parent="NW7aTTPV9me7si0JIGtR-1" vertex="1">
          <mxGeometry x="17" y="1332" width="760" height="210" as="geometry" />
        </mxCell>
        <mxCell id="NW7aTTPV9me7si0JIGtR-69" value="" style="edgeStyle=orthogonalEdgeStyle;rounded=0;orthogonalLoop=1;jettySize=auto;html=1;" parent="NW7aTTPV9me7si0JIGtR-68" source="NW7aTTPV9me7si0JIGtR-70" target="NW7aTTPV9me7si0JIGtR-72" edge="1">
          <mxGeometry relative="1" as="geometry" />
        </mxCell>
        <mxCell id="NW7aTTPV9me7si0JIGtR-70" value="Legislation" style="whiteSpace=wrap;html=1;aspect=fixed;" parent="NW7aTTPV9me7si0JIGtR-68" vertex="1">
          <mxGeometry x="390" y="50" width="80" height="80" as="geometry" />
        </mxCell>
        <mxCell id="NW7aTTPV9me7si0JIGtR-71" value="" style="edgeStyle=orthogonalEdgeStyle;rounded=0;orthogonalLoop=1;jettySize=auto;html=1;" parent="NW7aTTPV9me7si0JIGtR-68" source="NW7aTTPV9me7si0JIGtR-72" target="NW7aTTPV9me7si0JIGtR-81" edge="1">
          <mxGeometry relative="1" as="geometry" />
        </mxCell>
        <mxCell id="NW7aTTPV9me7si0JIGtR-72" value="Regulatory Compliance" style="whiteSpace=wrap;html=1;aspect=fixed;" parent="NW7aTTPV9me7si0JIGtR-68" vertex="1">
          <mxGeometry x="510" y="50" width="80" height="80" as="geometry" />
        </mxCell>
        <mxCell id="NW7aTTPV9me7si0JIGtR-73" style="edgeStyle=orthogonalEdgeStyle;rounded=0;orthogonalLoop=1;jettySize=auto;html=1;" parent="NW7aTTPV9me7si0JIGtR-68" source="NW7aTTPV9me7si0JIGtR-74" target="NW7aTTPV9me7si0JIGtR-78" edge="1">
          <mxGeometry relative="1" as="geometry" />
        </mxCell>
        <mxCell id="NW7aTTPV9me7si0JIGtR-74" value="Open&lt;br&gt;LLMs" style="ellipse;whiteSpace=wrap;html=1;" parent="NW7aTTPV9me7si0JIGtR-68" vertex="1">
          <mxGeometry x="13" y="30" width="90" height="60" as="geometry" />
        </mxCell>
        <mxCell id="NW7aTTPV9me7si0JIGtR-75" style="edgeStyle=orthogonalEdgeStyle;rounded=0;orthogonalLoop=1;jettySize=auto;html=1;" parent="NW7aTTPV9me7si0JIGtR-68" source="NW7aTTPV9me7si0JIGtR-76" target="NW7aTTPV9me7si0JIGtR-78" edge="1">
          <mxGeometry relative="1" as="geometry" />
        </mxCell>
        <mxCell id="NW7aTTPV9me7si0JIGtR-76" value="CLOSED&lt;br&gt;&amp;nbsp;LLMs" style="ellipse;whiteSpace=wrap;html=1;" parent="NW7aTTPV9me7si0JIGtR-68" vertex="1">
          <mxGeometry x="13" y="100" width="90" height="60" as="geometry" />
        </mxCell>
        <mxCell id="NW7aTTPV9me7si0JIGtR-77" value="" style="edgeStyle=orthogonalEdgeStyle;rounded=0;orthogonalLoop=1;jettySize=auto;html=1;" parent="NW7aTTPV9me7si0JIGtR-68" source="NW7aTTPV9me7si0JIGtR-78" target="NW7aTTPV9me7si0JIGtR-80" edge="1">
          <mxGeometry relative="1" as="geometry" />
        </mxCell>
        <mxCell id="NW7aTTPV9me7si0JIGtR-78" value="Security" style="whiteSpace=wrap;html=1;aspect=fixed;" parent="NW7aTTPV9me7si0JIGtR-68" vertex="1">
          <mxGeometry x="160" y="50" width="80" height="80" as="geometry" />
        </mxCell>
        <mxCell id="NW7aTTPV9me7si0JIGtR-79" value="" style="edgeStyle=orthogonalEdgeStyle;rounded=0;orthogonalLoop=1;jettySize=auto;html=1;" parent="NW7aTTPV9me7si0JIGtR-68" source="NW7aTTPV9me7si0JIGtR-80" target="NW7aTTPV9me7si0JIGtR-70" edge="1">
          <mxGeometry relative="1" as="geometry" />
        </mxCell>
        <mxCell id="NW7aTTPV9me7si0JIGtR-80" value="Data Protection" style="whiteSpace=wrap;html=1;aspect=fixed;" parent="NW7aTTPV9me7si0JIGtR-68" vertex="1">
          <mxGeometry x="270" y="50" width="80" height="80" as="geometry" />
        </mxCell>
        <mxCell id="NW7aTTPV9me7si0JIGtR-81" value="Develop AI Software or devices that are compliant." style="shape=process;whiteSpace=wrap;html=1;backgroundOutline=1;" parent="NW7aTTPV9me7si0JIGtR-68" vertex="1">
          <mxGeometry x="620" y="60" width="120" height="60" as="geometry" />
        </mxCell>
        <mxCell id="NW7aTTPV9me7si0JIGtR-82" value="GUARDRAILS DURING TRAINING | Data Filtering | Training Objectives | Fine-Tuning" style="rounded=1;arcSize=10;dashed=1;strokeColor=#ff0000;fillColor=none;gradientColor=none;dashPattern=8 4;strokeWidth=2;fontStyle=1" parent="NW7aTTPV9me7si0JIGtR-68" vertex="1">
          <mxGeometry x="125" y="150" width="610" height="39.5" as="geometry" />
        </mxCell>
        <mxCell id="NW7aTTPV9me7si0JIGtR-83" value="&lt;ul&gt;&lt;li&gt;Output Filtering&lt;/li&gt;&lt;ul&gt;&lt;li style=&quot;border-color: var(--border-color);&quot;&gt;Out of Context&lt;/li&gt;&lt;li style=&quot;border-color: var(--border-color);&quot;&gt;Wrong Format&lt;/li&gt;&lt;li style=&quot;border-color: var(--border-color);&quot;&gt;Bias&lt;/li&gt;&lt;/ul&gt;&lt;li&gt;User Feedback Loop&lt;/li&gt;&lt;li&gt;Human-Moderator Loop&lt;/li&gt;&lt;li&gt;Technical Failure&lt;/li&gt;&lt;/ul&gt;" style="text;strokeColor=#FF3333;fillColor=none;html=1;whiteSpace=wrap;verticalAlign=middle;overflow=hidden;dashed=1;dashPattern=12 12;shadow=0;rounded=1;" parent="NW7aTTPV9me7si0JIGtR-1" vertex="1">
          <mxGeometry x="521" y="569" width="182" height="130" as="geometry" />
        </mxCell>
        <mxCell id="vrCM3ZJGCrk5wsnZjBwA-1" value="1" style="ellipse;whiteSpace=wrap;html=1;aspect=fixed;strokeWidth=2;fontFamily=Tahoma;spacingBottom=4;spacingRight=2;strokeColor=#d3d3d3;fillColor=#000000;fontColor=#ffffff;fontStyle=1;fontSize=14;" parent="NW7aTTPV9me7si0JIGtR-1" vertex="1">
          <mxGeometry x="282" y="63" width="26" height="26" as="geometry" />
        </mxCell>
        <mxCell id="vrCM3ZJGCrk5wsnZjBwA-94" value="Evaluation" style="rounded=0;whiteSpace=wrap;html=1;fontSize=15;fontStyle=1" parent="NW7aTTPV9me7si0JIGtR-1" vertex="1">
          <mxGeometry x="25" y="498" width="160" height="42" as="geometry" />
        </mxCell>
        <mxCell id="vrCM3ZJGCrk5wsnZjBwA-95" value="6" style="ellipse;whiteSpace=wrap;html=1;aspect=fixed;strokeWidth=2;fontFamily=Tahoma;spacingBottom=4;spacingRight=2;strokeColor=#d3d3d3;fillColor=#000000;fontColor=#ffffff;fontStyle=1;fontSize=14;" parent="NW7aTTPV9me7si0JIGtR-1" vertex="1">
          <mxGeometry x="15" y="490" width="26" height="26" as="geometry" />
        </mxCell>
        <mxCell id="NW7aTTPV9me7si0JIGtR-84" value="&lt;span style=&quot;background-color: initial;&quot;&gt;Rate Limiting&lt;/span&gt;" style="text;strokeColor=#FF3333;fillColor=none;html=1;whiteSpace=wrap;verticalAlign=middle;overflow=hidden;dashed=1;dashPattern=12 12;rounded=1;align=center;" parent="NW7aTTPV9me7si0JIGtR-1" vertex="1">
          <mxGeometry x="44" y="545" width="138" height="31" as="geometry" />
        </mxCell>
        <mxCell id="NW7aTTPV9me7si0JIGtR-18" value="Log&lt;br&gt;Monitoring" style="rounded=0;whiteSpace=wrap;html=1;fillColor=#ffff88;strokeColor=#36393d;" parent="NW7aTTPV9me7si0JIGtR-1" vertex="1">
          <mxGeometry x="296" y="614" width="85" height="40" as="geometry" />
        </mxCell>
        <mxCell id="X-LKx1V_U_Ox9tWL4Oi3-2" style="rounded=0;orthogonalLoop=1;jettySize=auto;html=1;entryX=0.5;entryY=0;entryDx=0;entryDy=0;endArrow=classic;endFill=1;startArrow=classic;startFill=1;exitX=0.75;exitY=1;exitDx=0;exitDy=0;" edge="1" parent="NW7aTTPV9me7si0JIGtR-1" source="NW7aTTPV9me7si0JIGtR-17" target="X-LKx1V_U_Ox9tWL4Oi3-4">
          <mxGeometry relative="1" as="geometry">
            <mxPoint x="439.5" y="614" as="targetPoint" />
          </mxGeometry>
        </mxCell>
        <mxCell id="X-LKx1V_U_Ox9tWL4Oi3-3" style="rounded=0;orthogonalLoop=1;jettySize=auto;html=1;entryX=0.438;entryY=0.03;entryDx=0;entryDy=0;entryPerimeter=0;exitX=0.25;exitY=1;exitDx=0;exitDy=0;" edge="1" parent="NW7aTTPV9me7si0JIGtR-1" source="NW7aTTPV9me7si0JIGtR-17" target="NW7aTTPV9me7si0JIGtR-18">
          <mxGeometry relative="1" as="geometry" />
        </mxCell>
        <mxCell id="X-LKx1V_U_Ox9tWL4Oi3-4" value="External&lt;br&gt;Tooling" style="shape=process;whiteSpace=wrap;html=1;backgroundOutline=1;fillColor=#e1d5e7;strokeColor=#9673a6;" vertex="1" parent="NW7aTTPV9me7si0JIGtR-1">
          <mxGeometry x="407" y="612" width="80" height="42" as="geometry" />
        </mxCell>
        <mxCell id="Y2u720_w0oZSXogZxxiW-10" style="rounded=0;orthogonalLoop=1;jettySize=auto;html=1;entryX=0.5;entryY=1;entryDx=0;entryDy=0;exitX=0.5;exitY=0;exitDx=0;exitDy=0;" edge="1" parent="NW7aTTPV9me7si0JIGtR-1" source="Y2u720_w0oZSXogZxxiW-1">
          <mxGeometry relative="1" as="geometry">
            <mxPoint x="395" y="1224" as="sourcePoint" />
            <mxPoint x="397.99999999999955" y="1182" as="targetPoint" />
          </mxGeometry>
        </mxCell>
        <mxCell id="Y2u720_w0oZSXogZxxiW-1" value="API MODELS IN USE" style="swimlane;whiteSpace=wrap;html=1;fillColor=#008a00;strokeColor=#005700;fontColor=#ffffff;" vertex="1" parent="NW7aTTPV9me7si0JIGtR-1">
          <mxGeometry x="17.5" y="1225" width="760.5" height="65" as="geometry" />
        </mxCell>
        <mxCell id="Y2u720_w0oZSXogZxxiW-2" value="gpt-3.5-turbo" style="rounded=1;whiteSpace=wrap;html=1;fontStyle=0;fontSize=13;fillColor=#fff2cc;gradientColor=#ffd966;strokeColor=#d6b656;" vertex="1" parent="Y2u720_w0oZSXogZxxiW-1">
          <mxGeometry x="12" y="32" width="120" height="24" as="geometry" />
        </mxCell>
        <mxCell id="Y2u720_w0oZSXogZxxiW-3" value="gpt-3.5-turbo-16k" style="rounded=1;whiteSpace=wrap;html=1;fontStyle=1;fontSize=13;fillColor=#fff2cc;gradientColor=#ffd966;strokeColor=#d6b656;" vertex="1" parent="Y2u720_w0oZSXogZxxiW-1">
          <mxGeometry x="149" y="32" width="120" height="24" as="geometry" />
        </mxCell>
        <mxCell id="Y2u720_w0oZSXogZxxiW-4" value="gpt-4" style="rounded=1;whiteSpace=wrap;html=1;fontStyle=1;fontSize=13;fillColor=#fff2cc;gradientColor=#ffd966;strokeColor=#d6b656;" vertex="1" parent="Y2u720_w0oZSXogZxxiW-1">
          <mxGeometry x="293" y="32" width="120" height="24" as="geometry" />
        </mxCell>
        <mxCell id="Y2u720_w0oZSXogZxxiW-5" value="gpt-4-32k" style="rounded=1;whiteSpace=wrap;html=1;fontStyle=1;fontSize=13;fillColor=#fff2cc;gradientColor=#ffd966;strokeColor=#d6b656;" vertex="1" parent="Y2u720_w0oZSXogZxxiW-1">
          <mxGeometry x="427" y="32" width="120" height="24" as="geometry" />
        </mxCell>
        <mxCell id="Y2u720_w0oZSXogZxxiW-6" value="3" style="ellipse;whiteSpace=wrap;html=1;aspect=fixed;strokeWidth=2;fontFamily=Tahoma;spacingBottom=4;spacingRight=2;strokeColor=#d3d3d3;fillColor=#000000;fontColor=#ffffff;fontStyle=1;fontSize=14;" vertex="1" parent="Y2u720_w0oZSXogZxxiW-1">
          <mxGeometry x="279" y="-5" width="26" height="26" as="geometry" />
        </mxCell>
        <mxCell id="Y2u720_w0oZSXogZxxiW-7" value="fine-tuned-llm" style="rounded=1;whiteSpace=wrap;html=1;fontStyle=1;fontSize=13;fillColor=#e51400;strokeColor=#B20000;fontColor=#ffffff;" vertex="1" parent="Y2u720_w0oZSXogZxxiW-1">
          <mxGeometry x="579.5" y="32" width="120" height="24" as="geometry" />
        </mxCell>
        <mxCell id="NW7aTTPV9me7si0JIGtR-85" value="UI Application Stack" style="swimlane;whiteSpace=wrap;html=1;startSize=30;fontSize=21;fillColor=#ffcd28;gradientColor=#ffa500;strokeColor=#d79b00;" parent="1" vertex="1">
          <mxGeometry x="356" y="345" width="800" height="128" as="geometry" />
        </mxCell>
        <mxCell id="NW7aTTPV9me7si0JIGtR-86" value="" style="fontColor=#0066CC;verticalAlign=top;verticalLabelPosition=bottom;labelPosition=center;align=center;html=1;outlineConnect=0;fillColor=#CCCCCC;strokeColor=#6881B3;gradientColor=none;gradientDirection=north;strokeWidth=2;shape=mxgraph.networks.terminal;" parent="NW7aTTPV9me7si0JIGtR-85" vertex="1">
          <mxGeometry x="360" y="50" width="80" height="65" as="geometry" />
        </mxCell>
        <mxCell id="NW7aTTPV9me7si0JIGtR-87" value="" style="outlineConnect=0;dashed=0;verticalLabelPosition=bottom;verticalAlign=top;align=center;html=1;shape=mxgraph.aws3.users;fillColor=#D2D3D3;gradientColor=none;" parent="NW7aTTPV9me7si0JIGtR-85" vertex="1">
          <mxGeometry x="264" y="52" width="66" height="63" as="geometry" />
        </mxCell>
        <mxCell id="NW7aTTPV9me7si0JIGtR-88" value="New Valid&lt;br style=&quot;font-size: 12px;&quot;&gt;Response" style="edgeStyle=elbowEdgeStyle;rounded=0;orthogonalLoop=1;jettySize=auto;html=1;strokeWidth=2;fontStyle=1;fontSize=12;exitX=1;exitY=0.25;exitDx=0;exitDy=0;" parent="NW7aTTPV9me7si0JIGtR-85" edge="1">
          <mxGeometry x="0.7026" y="20" relative="1" as="geometry">
            <mxPoint x="510" y="713.5000000000002" as="sourcePoint" />
            <mxPoint x="440" y="58" as="targetPoint" />
            <Array as="points">
              <mxPoint x="760" y="363.5" />
            </Array>
            <mxPoint as="offset" />
          </mxGeometry>
        </mxCell>
        <mxCell id="vrCM3ZJGCrk5wsnZjBwA-97" value="8" style="ellipse;whiteSpace=wrap;html=1;aspect=fixed;strokeWidth=2;fontFamily=Tahoma;spacingBottom=4;spacingRight=2;strokeColor=#d3d3d3;fillColor=#000000;fontColor=#ffffff;fontStyle=1;fontSize=14;" parent="NW7aTTPV9me7si0JIGtR-85" vertex="1">
          <mxGeometry x="262" y="2" width="26" height="26" as="geometry" />
        </mxCell>
        <mxCell id="NW7aTTPV9me7si0JIGtR-89" value="New User&lt;br style=&quot;font-size: 12px;&quot;&gt;Request" style="rounded=0;orthogonalLoop=1;jettySize=auto;html=1;strokeWidth=2;entryX=0.5;entryY=0;entryDx=0;entryDy=0;exitX=0.5;exitY=1;exitDx=0;exitDy=0;exitPerimeter=0;fontSize=12;fontStyle=1" parent="1" source="NW7aTTPV9me7si0JIGtR-86" target="NW7aTTPV9me7si0JIGtR-1" edge="1">
          <mxGeometry relative="1" as="geometry">
            <mxPoint x="636" y="396" as="sourcePoint" />
            <mxPoint x="576" y="413" as="targetPoint" />
          </mxGeometry>
        </mxCell>
      </root>
    </mxGraphModel>
  </diagram>
</mxfile>
